<?xml version="1.0" encoding="utf-8"?>
<!-- Generator: Adobe Illustrator 20.1.0, SVG Export Plug-In . SVG Version: 6.00 Build 0)  -->
<svg version="1.1" id="Ebene_1" xmlns="http://www.w3.org/2000/svg" xmlns:xlink="http://www.w3.org/1999/xlink" x="0px" y="0px"
	 viewBox="0 0 80 80" style="enable-background:new 0 0 80 80;" xml:space="preserve">
<style type="text/css">
	.st0{fill:#FFFFFF;}
</style>
<path class="st0" d="M64.4,3.8L40,28.3L15.6,3.8c-1.9-1.9-4.8-1.9-6.7,0L3.4,9.2c-1.9,1.9-1.9,4.8,0,6.7l24.4,24.4L3.5,64.7
	c-1.9,1.9-1.9,4.8,0,6.7l5.4,5.4c1.9,1.9,4.8,1.9,6.7,0L40,52.3l24.4,24.4c1.9,1.9,4.8,1.9,6.7,0l5.4-5.4c1.9-1.9,1.9-4.8,0-6.7
	L52,40.3l24.4-24.4c1.9-1.9,1.9-4.8,0-6.7l-5.4-5.4C69.3,1.9,66.2,1.9,64.4,3.8z"/>
</svg>
