<svg xmlns="http://www.w3.org/2000/svg" viewBox="0 0 320.5 518"><defs><style>.cls-1{fill:#f28e6b;}.cls-2{fill:#97c6b4;}.cls-3{fill:#eabb36;}.cls-4{fill:#fff;}.cls-5{opacity:0.3;}</style></defs><title>startbildschirm</title><g id="Ebene_1" data-name="Ebene 1"><rect class="cls-1" y="172" width="320.5" height="174"/><rect class="cls-2" y="346" width="320.5" height="172"/><rect class="cls-3" width="320.5" height="172"/><path class="cls-4" d="M29.43,60q0,1.64-1.2,1.64-.93,0-1.81-1.34v-.17a24.38,24.38,0,0,0-1.23-5.49Q24.09,51.19,23.82,50T23,45.36q-.6-3.38-1-5.16V59.9a1.42,1.42,0,0,1-1.64,1.59,1.38,1.38,0,0,1-1-.4,1.32,1.32,0,0,1-.42-1v-.39l.34-29.32V24.23a1.15,1.15,0,0,1,.24-.83,2.41,2.41,0,0,1,1.42-.24,4.48,4.48,0,0,1,2.39.77,5.94,5.94,0,0,1,2,2,10.55,10.55,0,0,1,1.51,5.54,15.75,15.75,0,0,1-1.22,5.59q-.15.34-.59,1.44l-.51,1.29a25.66,25.66,0,0,0,.65,4.87q.62,2.92,1.16,4.71T28,55q1.26,3.81,1.43,4.35ZM21.77,25.45,21.5,35.66q0,1.54,0,2.29A13.12,13.12,0,0,0,23.16,36l.73-4.32a12.06,12.06,0,0,0-.68-4.35Q22.52,25.6,21.77,25.45Z"/><path class="cls-4" d="M38.13,59.29l2-.12q1.9,0,1.9,1.22a1.15,1.15,0,0,1-.66,1.1,3.19,3.19,0,0,1-1.49.34H35.15a1.5,1.5,0,0,1-1.09-.44,1.63,1.63,0,0,1-.49-1.12,9.58,9.58,0,0,1,.1-1.71,13.3,13.3,0,0,0,.13-1.64l-.24-6.4.34-14.6-.27-4.22q0-3.54,2.1-3.54a1.86,1.86,0,0,1,1.1.37l.94.09q.74.06,1.31.16T40.3,29q1.42.39,1.42,1.34t-1.46,1.56a19.09,19.09,0,0,0-3.78-1q.07,1.07.07,2.15l-.22,7.18s0,.29.15.78L38.25,41q2.42,0,2.42,1.37a2.08,2.08,0,0,1-.43,1.29,1.43,1.43,0,0,1-1.21.56,2.22,2.22,0,0,1-1.37-.44H36.39q.15,1.9.15,3.61l-.22,9.06Q36.32,59.29,38.13,59.29Z"/><path class="cls-4" d="M48.94,58.56l2.1-.1v0q2,0,2,1.22a1,1,0,0,1-.54.92,2.38,2.38,0,0,1-1.2.31l-3-.15a2.24,2.24,0,0,0-.88.27,2.37,2.37,0,0,1-1,.27,1.24,1.24,0,0,1-.84-.37,1.28,1.28,0,0,1-.4-1,8.86,8.86,0,0,1,.28-1.84q.28-1.21.84-3.05t.78-2.61q.22-.77.77-3.38t.92-4q.37-1.4,1.37-4.33a38.61,38.61,0,0,0,2.44-10.16l-4.08.29a1.18,1.18,0,0,1-.92-.43,1.41,1.41,0,0,1-.38-1q0-1.42,5.08-1.42h.17q2,0,2.33.45a1.45,1.45,0,0,1,.38.94,15.11,15.11,0,0,1-1.09,4.77,29.14,29.14,0,0,0-1.4,5,44.92,44.92,0,0,1-1.49,5.69Q50.09,48.55,49.15,52a29.77,29.77,0,0,0-1.06,6.52Z"/><path class="cls-4" d="M64.18,59.29l2-.12q1.9,0,1.9,1.22a1.15,1.15,0,0,1-.66,1.1,3.19,3.19,0,0,1-1.49.34H61.2a1.5,1.5,0,0,1-1.09-.44,1.63,1.63,0,0,1-.49-1.12,9.58,9.58,0,0,1,.1-1.71,13.3,13.3,0,0,0,.13-1.64l-.24-6.4L60,35.93l-.27-4.22q0-3.54,2.1-3.54a1.86,1.86,0,0,1,1.1.37l.94.09q.74.06,1.31.16t1.22.27q1.42.39,1.42,1.34T66.3,31.95a19.09,19.09,0,0,0-3.78-1q.07,1.07.07,2.15l-.22,7.18s0,.29.15.78L64.3,41q2.42,0,2.42,1.37a2.08,2.08,0,0,1-.43,1.29,1.43,1.43,0,0,1-1.21.56,2.22,2.22,0,0,1-1.37-.44H62.44q.15,1.9.15,3.61l-.22,9.06Q62.37,59.29,64.18,59.29Z"/><path class="cls-4" d="M72.43,39.57l.07-4.76a20.33,20.33,0,0,0-.42-4.64,3.44,3.44,0,0,1,.48-1.2,1,1,0,0,1,.89-.56h2.2A4.15,4.15,0,0,1,79.7,30.8a11.1,11.1,0,0,1,1,4.88A29.86,29.86,0,0,1,80.56,40q-.17.79-.37,1.5a4.24,4.24,0,0,1-.48,1.15,9.51,9.51,0,0,1-.72,1,4.52,4.52,0,0,1-1,.89,12.53,12.53,0,0,1-3,1.37v5.35l.39,9.47a1.38,1.38,0,0,1-.44,1,1.51,1.51,0,0,1-1.07.42H72.65A21,21,0,0,1,72.35,58l-.12-12.79ZM75.23,34,75,43.69v.07q3-.41,3-8.45,0-2.93-1.29-3.76a2.72,2.72,0,0,0-1.46-.37Z"/><path class="cls-4" d="M89.71,56.53l.1-1.71q-.2-.63-.81-11.29t-.66-13A8.64,8.64,0,0,1,84.78,30q-.68-.45-.68-.94a.9.9,0,0,1,.54-.79,2.12,2.12,0,0,1,1-.31l6.79.46.81,0q1.56,0,1.56,1.2a1.17,1.17,0,0,1-.51,1,1.89,1.89,0,0,1-1.15.38l-2.29-.34-.1.51q0,4.74.83,14.18t.83,14.21a1.41,1.41,0,0,1-.45,1,1.47,1.47,0,0,1-1.06.44H89.81Z"/><path class="cls-4" d="M103.46,59.29l2-.12q1.9,0,1.9,1.22a1.15,1.15,0,0,1-.66,1.1,3.19,3.19,0,0,1-1.49.34h-4.71a1.5,1.5,0,0,1-1.09-.44,1.63,1.63,0,0,1-.49-1.12,9.58,9.58,0,0,1,.1-1.71,13.3,13.3,0,0,0,.13-1.64l-.24-6.4.34-14.6L99,31.7q0-3.54,2.1-3.54a1.86,1.86,0,0,1,1.1.37l.94.09q.74.06,1.31.16t1.22.27q1.42.39,1.42,1.34t-1.46,1.56a19.09,19.09,0,0,0-3.78-1q.07,1.07.07,2.15l-.22,7.18s0,.29.15.78l1.78-.07Q106,41,106,42.4a2.08,2.08,0,0,1-.43,1.29,1.43,1.43,0,0,1-1.21.56,2.22,2.22,0,0,1-1.37-.44h-1.27q.15,1.9.15,3.61l-.22,9.06Q101.65,59.29,103.46,59.29Z"/><path class="cls-4" d="M125.63,41q0,1.64-4.15,1.64,0,2.71.48,8.13t.48,8.15l-.1.32a2.57,2.57,0,0,1,.07.73,1.16,1.16,0,0,1-.46.9,1.83,1.83,0,0,1-1.22.39q-1.44,0-1.44-3.2,0-4.76-.5-18t-1-14q0-2.59,3.54-2.76.51,0,1.44,0a2.65,2.65,0,0,1,1.45.34,1.55,1.55,0,0,1,.52,1.39q0,1.05-1.39,1l-1.22,0q-1.39,0-1.39.56,0,2.32.37,6.8t.39,6.63a15.66,15.66,0,0,1,2.75-.54,1.26,1.26,0,0,1,1,.48A1.6,1.6,0,0,1,125.63,41Z"/><path class="cls-4" d="M135.83,60.61l-1.88,0-2.17.1a1.88,1.88,0,0,1-1.86-.9,2.82,2.82,0,0,1,.18-1.14.76.76,0,0,1,.77-.4h1.42l.1-.66L132,47l.27-11.13q0-2.81-.24-5.32h-1.94a2.37,2.37,0,0,1-1.31-.28,1.19,1.19,0,0,1-.42-1.06q0-1.17,2.71-1.15h.17q6.42,0,6.42,1.71a2.78,2.78,0,0,1-.29.93h-2.56A41.21,41.21,0,0,1,135,35l-.27,9.55.37,10.62v1.49A8,8,0,0,1,135,58h2.12q2.05,0,2.05,1.25a1.37,1.37,0,0,1-.35,1,1.05,1.05,0,0,1-.79.39Z"/><path class="cls-4" d="M145.72,41.45,146,54.38V60a1.79,1.79,0,0,1-.34,1.11,1.13,1.13,0,0,1-1,.45q-1.64,0-1.64-3.05L143,40.93l.29-9.33q0-3.37,1.83-3.37,1.1,0,1.59,1.68.68,3.22,2.38,9.27t2.33,9.19q.46,1.54,1.2,4.55t1.15,4.53q.19-10.84.2-26.27l-.07-1.34a2,2,0,0,1,.26-1.09,1,1,0,0,1,.87-.4,1.62,1.62,0,0,1,1,.29,2,2,0,0,1,.78,1.66q0,6.86-.39,17.63t-1.17,13.45l-.42.13a3.31,3.31,0,0,1-.46.13q-1.39.32-1.76-.12a2.69,2.69,0,0,1-.52-1.17q-.16-.73-.37-1.43t-1.55-6.65Q146.55,36.54,145.72,34Z"/><path class="cls-4" d="M172.79,41.45,172.7,44v2.73a32.72,32.72,0,0,1-.44,6.69,23,23,0,0,1-.89,2.86,9.41,9.41,0,0,1-1.09,2,11.48,11.48,0,0,1-3.71,3.22h-3.42q-1.27,0-1.27-6.54L162,39.17q0-4.37-.17-8.2a1.73,1.73,0,0,1-.41-1.16,1.53,1.53,0,0,1,.56-1.17,2,2,0,0,1,1.36-.5,1.61,1.61,0,0,1,1.36.88,5.61,5.61,0,0,0,1.09.27,4,4,0,0,1,1.06.29,9.15,9.15,0,0,1,4.36,4.58A16.64,16.64,0,0,1,172.79,41.45Zm-8.18-5.79.56,22.07v1.2h.9a16.92,16.92,0,0,0,3.37-5.81,26.18,26.18,0,0,0,.71-6.88q0-15.09-5.18-15.77A29.67,29.67,0,0,0,164.62,35.66Z"/><path class="cls-4" d="M182.17,59.29l2-.12q1.9,0,1.9,1.22a1.15,1.15,0,0,1-.66,1.1,3.19,3.19,0,0,1-1.49.34h-4.71a1.5,1.5,0,0,1-1.09-.44,1.63,1.63,0,0,1-.49-1.12,9.58,9.58,0,0,1,.1-1.71,13.22,13.22,0,0,0,.13-1.64l-.24-6.4.34-14.6-.27-4.22q0-3.54,2.1-3.54a1.86,1.86,0,0,1,1.1.37l.94.09q.74.06,1.31.16c.37.07.78.15,1.22.27q1.42.39,1.42,1.34t-1.46,1.56a19.1,19.1,0,0,0-3.79-1q.07,1.07.07,2.15l-.22,7.18s0,.29.15.78l1.78-.07q2.42,0,2.42,1.37a2.08,2.08,0,0,1-.43,1.29,1.43,1.43,0,0,1-1.21.56,2.21,2.21,0,0,1-1.37-.44h-1.27q.15,1.9.15,3.61l-.22,9.06Q180.36,59.29,182.17,59.29Z"/><path class="cls-4" d="M192.86,41.45l.29,12.94V60a1.78,1.78,0,0,1-.34,1.11,1.13,1.13,0,0,1-1,.45q-1.64,0-1.64-3.05l-.1-17.63.29-9.33q0-3.37,1.83-3.37,1.1,0,1.59,1.68.68,3.22,2.38,9.27t2.33,9.19q.46,1.54,1.2,4.55t1.15,4.53q.19-10.84.2-26.27L201,29.85a2,2,0,0,1,.26-1.09,1,1,0,0,1,.87-.4,1.63,1.63,0,0,1,1,.29,2,2,0,0,1,.78,1.66q0,6.86-.39,17.63t-1.17,13.45l-.42.13a3.27,3.27,0,0,1-.46.13q-1.39.32-1.76-.12a2.69,2.69,0,0,1-.53-1.17q-.16-.73-.37-1.43t-1.55-6.65Q193.69,36.54,192.86,34Z"/><path class="cls-4" d="M29.43,233q0,1.64-1.2,1.64-.93,0-1.81-1.34v-.17a24.38,24.38,0,0,0-1.23-5.49q-1.11-3.49-1.38-4.71t-.87-4.6q-.6-3.38-1-5.16v19.7a1.42,1.42,0,0,1-1.64,1.59,1.38,1.38,0,0,1-1-.4,1.32,1.32,0,0,1-.42-1v-.39l.34-29.32v-6.15a1.15,1.15,0,0,1,.24-.83,2.41,2.41,0,0,1,1.42-.24,4.48,4.48,0,0,1,2.39.77,5.94,5.94,0,0,1,2,2,10.55,10.55,0,0,1,1.51,5.54,15.75,15.75,0,0,1-1.22,5.59q-.15.34-.59,1.44l-.51,1.29a25.66,25.66,0,0,0,.65,4.87q.62,2.92,1.16,4.71T28,228q1.26,3.81,1.43,4.35Zm-7.67-34.59-.27,10.21q0,1.54,0,2.29A13.12,13.12,0,0,0,23.16,209l.73-4.32a12.06,12.06,0,0,0-.68-4.35Q22.52,198.6,21.77,198.45Z"/><path class="cls-4" d="M38.13,232.29l2-.12q1.9,0,1.9,1.22a1.15,1.15,0,0,1-.66,1.1,3.19,3.19,0,0,1-1.49.34H35.15a1.5,1.5,0,0,1-1.09-.44,1.63,1.63,0,0,1-.49-1.12,9.58,9.58,0,0,1,.1-1.71,13.3,13.3,0,0,0,.13-1.64l-.24-6.4.34-14.6-.27-4.22q0-3.54,2.1-3.54a1.86,1.86,0,0,1,1.1.37l.94.09q.74.06,1.31.16t1.22.27q1.42.39,1.42,1.34t-1.46,1.56a19.09,19.09,0,0,0-3.78-1q.07,1.07.07,2.15l-.22,7.18s0,.29.15.78l1.78-.07q2.42,0,2.42,1.37a2.08,2.08,0,0,1-.43,1.29,1.43,1.43,0,0,1-1.21.56,2.22,2.22,0,0,1-1.37-.44H36.39q.15,1.9.15,3.61l-.22,9.06Q36.32,232.29,38.13,232.29Z"/><path class="cls-4" d="M48.94,231.56l2.1-.1v0q2,0,2,1.22a1,1,0,0,1-.54.92,2.38,2.38,0,0,1-1.2.31l-3-.15a2.24,2.24,0,0,0-.88.27,2.37,2.37,0,0,1-1,.27,1.24,1.24,0,0,1-.84-.37,1.28,1.28,0,0,1-.4-1,8.86,8.86,0,0,1,.28-1.84q.28-1.21.84-3.05t.78-2.61q.22-.77.77-3.38t.92-4q.37-1.4,1.37-4.33a38.61,38.61,0,0,0,2.44-10.16l-4.08.29a1.18,1.18,0,0,1-.92-.43,1.41,1.41,0,0,1-.38-1q0-1.42,5.08-1.42h.17q2,0,2.33.45a1.45,1.45,0,0,1,.38.94,15.11,15.11,0,0,1-1.09,4.77,29.14,29.14,0,0,0-1.4,5,44.92,44.92,0,0,1-1.49,5.69q-1.17,3.74-2.11,7.23a29.77,29.77,0,0,0-1.06,6.52Z"/><path class="cls-4" d="M64.18,232.29l2-.12q1.9,0,1.9,1.22a1.15,1.15,0,0,1-.66,1.1,3.19,3.19,0,0,1-1.49.34H61.2a1.5,1.5,0,0,1-1.09-.44,1.63,1.63,0,0,1-.49-1.12,9.58,9.58,0,0,1,.1-1.71,13.3,13.3,0,0,0,.13-1.64l-.24-6.4.34-14.6-.27-4.22q0-3.54,2.1-3.54a1.86,1.86,0,0,1,1.1.37l.94.09q.74.06,1.31.16t1.22.27q1.42.39,1.42,1.34t-1.46,1.56a19.09,19.09,0,0,0-3.78-1q.07,1.07.07,2.15l-.22,7.18s0,.29.15.78L64.3,214q2.42,0,2.42,1.37a2.08,2.08,0,0,1-.43,1.29,1.43,1.43,0,0,1-1.21.56,2.22,2.22,0,0,1-1.37-.44H62.44q.15,1.9.15,3.61l-.22,9.06Q62.37,232.29,64.18,232.29Z"/><path class="cls-4" d="M72.43,212.57l.07-4.76a20.33,20.33,0,0,0-.42-4.64,3.44,3.44,0,0,1,.48-1.2,1,1,0,0,1,.89-.56h2.2a4.15,4.15,0,0,1,4.05,2.39,11.1,11.1,0,0,1,1,4.88,29.86,29.86,0,0,1-.17,4.28q-.17.79-.37,1.5a4.24,4.24,0,0,1-.48,1.15,9.51,9.51,0,0,1-.72,1,4.52,4.52,0,0,1-1,.89,12.53,12.53,0,0,1-3,1.37v5.35l.39,9.47a1.38,1.38,0,0,1-.44,1,1.51,1.51,0,0,1-1.07.42H72.65a21,21,0,0,1-.29-4.08l-.12-12.79ZM75.23,207,75,216.69v.07q3-.41,3-8.45,0-2.93-1.29-3.76a2.72,2.72,0,0,0-1.46-.37Z"/><path class="cls-4" d="M89.71,229.53l.1-1.71q-.2-.63-.81-11.29t-.66-13a8.64,8.64,0,0,1-3.56-.52q-.68-.45-.68-.94a.9.9,0,0,1,.54-.79,2.12,2.12,0,0,1,1-.31l6.79.46.81,0q1.56,0,1.56,1.2a1.17,1.17,0,0,1-.51,1,1.89,1.89,0,0,1-1.15.38l-2.29-.34-.1.51q0,4.74.83,14.18t.83,14.21a1.41,1.41,0,0,1-.45,1,1.47,1.47,0,0,1-1.06.44H89.81Z"/><path class="cls-4" d="M103.46,232.29l2-.12q1.9,0,1.9,1.22a1.15,1.15,0,0,1-.66,1.1,3.19,3.19,0,0,1-1.49.34h-4.71a1.5,1.5,0,0,1-1.09-.44,1.63,1.63,0,0,1-.49-1.12,9.58,9.58,0,0,1,.1-1.71,13.3,13.3,0,0,0,.13-1.64l-.24-6.4.34-14.6L99,204.7q0-3.54,2.1-3.54a1.86,1.86,0,0,1,1.1.37l.94.09q.74.06,1.31.16t1.22.27q1.42.39,1.42,1.34t-1.46,1.56a19.09,19.09,0,0,0-3.78-1q.07,1.07.07,2.15l-.22,7.18s0,.29.15.78l1.78-.07q2.42,0,2.42,1.37a2.08,2.08,0,0,1-.43,1.29,1.43,1.43,0,0,1-1.21.56,2.22,2.22,0,0,1-1.37-.44h-1.27q.15,1.9.15,3.61l-.22,9.06Q101.65,232.29,103.46,232.29Z"/><path class="cls-4" d="M123.77,215.86l-1.25,0a1.06,1.06,0,0,0-.88.37v15.43l2.64-.15q2.78,0,2.78,1.32V233a2.27,2.27,0,0,1-1.16,1,4.48,4.48,0,0,1-1.43.42q-.61,0-1.61,0H121.3q-1.9,0-2.34-.73a1.81,1.81,0,0,1-.2-.9V196.75l4.32-.44a3,3,0,0,1,1.53.45,1.34,1.34,0,0,1,.77,1.18q0,1.49-2.27,1.49l-1.44,0a4.24,4.24,0,0,0-.54,0l.39,8.25q0,1-.12,2.92t-.12,2.8l.73-.17a6.8,6.8,0,0,1,1.6-.27,1.48,1.48,0,0,1,1,.42,1.31,1.31,0,0,1,.45,1,1.65,1.65,0,0,1-.37,1A1.16,1.16,0,0,1,123.77,215.86Z"/><path class="cls-4" d="M133.32,219.38A10.84,10.84,0,0,0,133,222q0,1.18.31,5.05t.31,5a3,3,0,0,1-.4,1.71,1.13,1.13,0,0,1-.92.59q-.73,0-.93-1,0-1.86,0-4.55T131,216.89q-.43-9.16-.43-13.67,0-2.37,1.66-2.37a7,7,0,0,1,4.39,1.37,4.63,4.63,0,0,1,1.78,3.91,20.56,20.56,0,0,1-.54,5.32,26.31,26.31,0,0,1-2,4.76q.27,1.2,1,4.79,1.44,7.76,3.25,11.21a3.64,3.64,0,0,1,.51,1.53,1.43,1.43,0,0,1-.31.93,1,1,0,0,1-.82.38q-1.64,0-3-5.44-.59-2.37-1-4.79a71.52,71.52,0,0,0-1.68-7.45A9.67,9.67,0,0,1,133.32,219.38Zm-.07-16.67-.17.71q0,2.05.1,5.92t.1,5.63q1.17-.61,1.89-3.19a16,16,0,0,0,.72-3.94,19.82,19.82,0,0,0-.07-2,7.78,7.78,0,0,0-.32-1.43A2.17,2.17,0,0,0,133.24,202.7Z"/><path class="cls-4" d="M143.84,232.07l2.64.37a2.13,2.13,0,0,0,1.66-.83,5.32,5.32,0,0,0,1-2.08,16.19,16.19,0,0,0,.66-4.24,11.34,11.34,0,0,0-.61-3.65,19.38,19.38,0,0,0-1.49-3.36L146,215.13a15.31,15.31,0,0,1-2.1-7.47,9.86,9.86,0,0,1,.76-4q1.42-3.22,3.76-3.22a2.85,2.85,0,0,1,1.67.56,1.55,1.55,0,0,1,.79,1.22q0,1.15-1.22,1.15a2.09,2.09,0,0,1-1-.29q-1.59.07-2.15,3.54a11.24,11.24,0,0,0-.12,1.77,9.15,9.15,0,0,0,.44,2.5,12.09,12.09,0,0,0,1.11,2.65q.67,1.16,1.44,2.56t1.45,2.72a15.31,15.31,0,0,1,1.54,7,13.48,13.48,0,0,1-1.25,5.79,5.8,5.8,0,0,1-1.87,2.23,4.81,4.81,0,0,1-2.8.89v.12a4,4,0,0,1-1.68-.62,1.78,1.78,0,0,1-.85-1.31Z"/><path class="cls-4" d="M161,229.53l.1-1.71q-.19-.63-.81-11.29t-.66-13a8.64,8.64,0,0,1-3.56-.52q-.68-.45-.68-.94a.9.9,0,0,1,.54-.79,2.12,2.12,0,0,1,1-.31l6.79.46.8,0q1.56,0,1.56,1.2a1.17,1.17,0,0,1-.51,1,1.89,1.89,0,0,1-1.15.38l-2.29-.34-.1.51q0,4.74.83,14.18t.83,14.21a1.41,1.41,0,0,1-.45,1,1.47,1.47,0,0,1-1.06.44h-1.12Z"/><path class="cls-4" d="M174.77,232.29l2-.12q1.9,0,1.9,1.22a1.15,1.15,0,0,1-.66,1.1,3.19,3.19,0,0,1-1.49.34h-4.71a1.5,1.5,0,0,1-1.09-.44,1.62,1.62,0,0,1-.49-1.12,9.58,9.58,0,0,1,.1-1.71,13.38,13.38,0,0,0,.13-1.64l-.24-6.4.34-14.6-.27-4.22q0-3.54,2.1-3.54a1.85,1.85,0,0,1,1.1.37l.94.09q.74.06,1.31.16t1.22.27q1.42.39,1.42,1.34t-1.46,1.56a19.08,19.08,0,0,0-3.78-1q.07,1.07.07,2.15l-.22,7.18s0,.29.15.78l1.78-.07q2.42,0,2.42,1.37a2.08,2.08,0,0,1-.43,1.29,1.43,1.43,0,0,1-1.21.56,2.22,2.22,0,0,1-1.37-.44H173q.15,1.9.15,3.61l-.22,9.06Q173,232.29,174.77,232.29Z"/><path class="cls-4" d="M185.66,206.14l.15,12a8.24,8.24,0,0,0-.29,2.71l-.2,8q0,3.44,1.68,3.44l2.08-.07q2.68,0,2.69,1.46a1.08,1.08,0,0,1-.46.89,2.13,2.13,0,0,1-1,.43,14.8,14.8,0,0,0-4.47-.59,3.11,3.11,0,0,1-1.55.46,1.4,1.4,0,0,1-1.16-.51,1.74,1.74,0,0,1-.42-1.12l.49-22.34v-.37Q183,209,183,205.83q0-4.74,1.73-4.74a1.24,1.24,0,0,1,.89.37,1.18,1.18,0,0,1,.38.88Z"/><path class="cls-4" d="M198.4,206.14l.15,12a8.24,8.24,0,0,0-.29,2.71l-.2,8q0,3.44,1.68,3.44l2.08-.07q2.68,0,2.69,1.46a1.08,1.08,0,0,1-.46.89,2.13,2.13,0,0,1-1,.43,14.8,14.8,0,0,0-4.47-.59,3.11,3.11,0,0,1-1.55.46,1.4,1.4,0,0,1-1.16-.51,1.74,1.74,0,0,1-.42-1.12l.49-22.34v-.37q-.15-1.56-.15-4.69,0-4.74,1.73-4.74a1.24,1.24,0,0,1,.89.37,1.18,1.18,0,0,1,.38.88Z"/><path class="cls-4" d="M212.88,232.29l2-.12q1.9,0,1.9,1.22a1.15,1.15,0,0,1-.66,1.1,3.19,3.19,0,0,1-1.49.34H209.9a1.5,1.5,0,0,1-1.09-.44,1.63,1.63,0,0,1-.49-1.12,9.58,9.58,0,0,1,.1-1.71,13.22,13.22,0,0,0,.13-1.64l-.24-6.4.34-14.6-.27-4.22q0-3.54,2.1-3.54a1.86,1.86,0,0,1,1.1.37l.94.09q.74.06,1.31.16c.37.07.78.15,1.22.27q1.42.39,1.42,1.34T215,204.95a19.1,19.1,0,0,0-3.79-1q.07,1.07.07,2.15l-.22,7.18s0,.29.15.78L213,214q2.42,0,2.42,1.37a2.08,2.08,0,0,1-.43,1.29,1.43,1.43,0,0,1-1.21.56,2.21,2.21,0,0,1-1.37-.44h-1.27q.15,1.9.15,3.61l-.22,9.06Q211.07,232.29,212.88,232.29Z"/><path class="cls-4" d="M223.57,214.45l.29,12.94V233a1.78,1.78,0,0,1-.34,1.11,1.13,1.13,0,0,1-1,.45q-1.64,0-1.64-3.05l-.1-17.63.29-9.33q0-3.37,1.83-3.37,1.1,0,1.59,1.68.68,3.22,2.38,9.27t2.33,9.19q.46,1.54,1.2,4.55t1.15,4.53q.19-10.84.2-26.27l-.07-1.34a2,2,0,0,1,.26-1.09,1,1,0,0,1,.87-.4,1.63,1.63,0,0,1,1,.29,2,2,0,0,1,.78,1.66q0,6.86-.39,17.63t-1.17,13.45l-.42.13a3.27,3.27,0,0,1-.46.13q-1.39.32-1.76-.12a2.69,2.69,0,0,1-.53-1.17q-.16-.73-.37-1.43T228,225.29q-3.59-15.75-4.42-18.31Z"/><path class="cls-4" d="M18.89,385.2l.15-5.47a17.63,17.63,0,0,0-.22-3.33,15.25,15.25,0,0,0-.55-1.93,4.54,4.54,0,0,1-.33-1.39,1.49,1.49,0,0,1,.2-.79,1.32,1.32,0,0,1,.59-.5,5.8,5.8,0,0,1,.76-.29,4.85,4.85,0,0,1,.93-.16q.93,0,1.34,0h.49a6.63,6.63,0,0,1,4.37,2.2A10.86,10.86,0,0,1,30,379.09a26,26,0,0,1,.49,3.86q.12,2.12.17,2.83a8.61,8.61,0,0,0,.39,2.2v2.32a3.17,3.17,0,0,0-.27,1.51,23.16,23.16,0,0,1-1.73,8.28,17.76,17.76,0,0,1-4.3,6.84A14.69,14.69,0,0,1,22.2,409a3.08,3.08,0,0,1-1.32.32,2.88,2.88,0,0,1-1.4-.43,1.38,1.38,0,0,1-.76-1.28q1.1-1.15,1.1-5.88,0-2.78-.46-8.28T18.89,385.2Zm3.32,16.41v4.79q3.88-2.73,5.44-10.18a39.17,39.17,0,0,0,.78-7.89q0-14-6.93-14v0q0,4.64.34,13.73T22.21,401.6Z"/><path class="cls-4" d="M42,408.61l-1.88,0-2.17.1a1.88,1.88,0,0,1-1.86-.9,2.82,2.82,0,0,1,.18-1.14.76.76,0,0,1,.77-.4h1.42l.1-.66L38.17,395l.27-11.13q0-2.81-.24-5.32H36.26a2.37,2.37,0,0,1-1.31-.28,1.19,1.19,0,0,1-.42-1.06q0-1.17,2.71-1.15h.17q6.42,0,6.42,1.71a2.78,2.78,0,0,1-.29.93H41a41.21,41.21,0,0,1,.2,4.3l-.27,9.55.37,10.62v1.49A8,8,0,0,1,41.1,406h2.12q2.05,0,2.05,1.25a1.37,1.37,0,0,1-.35,1,1.05,1.05,0,0,1-.79.39Z"/><path class="cls-4" d="M53.77,407.29l2-.12q1.9,0,1.9,1.22a1.15,1.15,0,0,1-.66,1.1,3.19,3.19,0,0,1-1.49.34H50.8a1.5,1.5,0,0,1-1.09-.44,1.63,1.63,0,0,1-.49-1.12,9.58,9.58,0,0,1,.1-1.71,13.3,13.3,0,0,0,.13-1.64l-.24-6.4.34-14.6-.27-4.22q0-3.54,2.1-3.54a1.86,1.86,0,0,1,1.1.37l.94.08q.74.06,1.31.16t1.22.27q1.42.39,1.42,1.34t-1.46,1.56a19.09,19.09,0,0,0-3.78-1q.07,1.08.07,2.15L52,388.32s0,.29.15.78L53.9,389q2.42,0,2.42,1.37a2.08,2.08,0,0,1-.43,1.29,1.43,1.43,0,0,1-1.21.56,2.22,2.22,0,0,1-1.37-.44H52q.15,1.9.15,3.61L52,404.48Q52,407.29,53.77,407.29Z"/><path class="cls-4" d="M74.87,380.14l-.1,6.45a31.92,31.92,0,0,0,.78,7.67v0a18.34,18.34,0,0,0-.34,3.81l.42,9q0,2.44-1.44,2.44a1.29,1.29,0,0,1-1.22-.78,3.82,3.82,0,0,1-.39-1.73l.39-8q0-2.59-.34-7.79t-.34-7.79l.07-4.37a14.5,14.5,0,0,0-.46-4.66l-2.71.27A1.83,1.83,0,0,1,68,374.3a1.17,1.17,0,0,1-.5-1q0-.6,1.2-1a13.22,13.22,0,0,1,2.93-.62,46,46,0,0,1,5.05-.34,1.74,1.74,0,0,1,1.11.4,1.25,1.25,0,0,1,.5,1,1.17,1.17,0,0,1-.44,1,1.66,1.66,0,0,1-1.07.35L75,374a3.88,3.88,0,0,0-.51,0A52.38,52.38,0,0,1,74.87,380.14Z"/><path class="cls-4" d="M93.18,370.87h1q-.34,3.25-1.78,14.18t-1.72,14.31q-.28,3.37-.29,4.59c0,.81,0,1.53-.06,2.14s-.1,1.23-.2,1.87Q89.86,410,88.69,410a1.48,1.48,0,0,1-1.17-.54q-1.15-4.76-3.42-19.05T80.9,372a1.35,1.35,0,0,1,1.46-1,1,1,0,0,1,.77.26c.14.17.24.3.31.4a1.45,1.45,0,0,1,.17.43l.11.44a4.64,4.64,0,0,1,.07.48q0,.32.28,1.79t1.1,7.21Q87,394.47,88.3,400.9q.32-2.83,1.22-9a151,151,0,0,0,1.83-20A2.28,2.28,0,0,1,93.18,370.87Z"/><path class="cls-4" d="M104.51,408.59q0-1.34,1.12-1.34a4.13,4.13,0,0,1,1.48.38,4.26,4.26,0,0,0,1.59.38,2.13,2.13,0,0,0,1.45-.85,6,6,0,0,0,1.22-2.12,14.17,14.17,0,0,0,.9-4.66,15.38,15.38,0,0,0-.73-4.49,28.25,28.25,0,0,0-1.79-4.49l-2.11-4.2a20.72,20.72,0,0,1-2.51-9.13,7.83,7.83,0,0,1,2.47-6.13,4.52,4.52,0,0,1,3.1-1.17,3.44,3.44,0,0,1,1.76.5,2.76,2.76,0,0,1,1.2,1.31v1.07a5.45,5.45,0,0,1-2.81-.49,2.44,2.44,0,0,0-1.61.88A5.07,5.07,0,0,0,108,377.4a14.85,14.85,0,0,0,.56,4,28.63,28.63,0,0,0,1.34,3.83q.78,1.79,1.57,3.33t1.35,2.51a11.67,11.67,0,0,1,.56,1v.39q.17.63.59,2l.66,2.17a15,15,0,0,1,.61,4,13.08,13.08,0,0,1-1.65,6.43,6.63,6.63,0,0,1-2.15,2.33,4.63,4.63,0,0,1-2.53.9,13.55,13.55,0,0,1-2-.12,5.25,5.25,0,0,1-1.61-.54Q104.51,409.2,104.51,408.59Z"/><path class="cls-4" d="M122.48,379.07l-.2,12.48a10.56,10.56,0,0,0,2.64.24h1.9v-1q0-2.3-.34-6.9t-.34-6.9a1.2,1.2,0,0,1,.43-.94,1.23,1.23,0,0,1,.76-.38,3.79,3.79,0,0,0,.57,0,1.93,1.93,0,0,1,.4,0,1,1,0,0,1,.35.11q.37.17.37,1.12,0,5.25.46,15.72t.46,15.72a.77.77,0,0,1-.38.68,1.75,1.75,0,0,1-1,.24,2.11,2.11,0,0,1-1.1-.3A1,1,0,0,1,127,408q-.27-5-.27-12.26v-.2l0-1.44,0-.46v0a4.9,4.9,0,0,1-1.12.1l-3.1-.46-.15,5.52V399l.42,8.23a2.26,2.26,0,0,1-.35,1.27,1.16,1.16,0,0,1-1,.54q-1,0-1.38-1.82a25.55,25.55,0,0,1-.38-5l.15-7.62,0-2.86.1-2.93-.34-11.28a1.49,1.49,0,0,1,.42-1,1.31,1.31,0,0,1,1-.45Q122.48,376.09,122.48,379.07Z"/><path class="cls-4" d="M146.35,395.72q0,14.38-5.88,14.38-5.42,0-6.08-13.62,0-1.29,0-2.59l0-3.05v-1q0-10.57,3.1-13.06a2.87,2.87,0,0,1,1.68-.66,13.79,13.79,0,0,0,1.73.45,7.69,7.69,0,0,1,1.51.43,5.33,5.33,0,0,1,2,2.16,13.55,13.55,0,0,1,1.55,4.66,34.55,34.55,0,0,1,.5,5.85ZM137.08,384l.07,2.93,0,4.79q0,.61,0,1.44t.06,2.19q0,1.35.15,2.69t.26,2.81q.15,1.48.39,2.73t.54,2.28q.66,2.22,1.73,2.22,1.44,0,2.2-2.71a37.45,37.45,0,0,0,1.12-9.91l.07-5.15a35.86,35.86,0,0,0-.48-7.3,19.63,19.63,0,0,0-.89-2.83,2.69,2.69,0,0,0-2.51-1.93h-.1Q137.08,378.19,137.08,384Z"/><path class="cls-4" d="M166.74,380q-.37,2.42-.41,3.59v3.66A82,82,0,0,1,165,403.63a10.4,10.4,0,0,0-.24,2.15q0,5.08-1.83,5.08-.91,0-1.17-1.29a8.87,8.87,0,0,1-.1-1.61,33.7,33.7,0,0,0-.61-4.61q-.24-1.49-.41-3t-.54-6.52q-.37-5-.73-7.62-.15,1.66-.15,4a64.41,64.41,0,0,1-1,8.35q-.44,2.93-.54,3.67t-.21,2.26A24,24,0,0,1,157,408q-.49,2.27-1.56,2.27-1.49,0-2.05-4.27-.24-1.9-.38-3.71t-.2-3.6q-.06-1.79-.15-2.48t-.51-3.45q-.43-2.77-.51-3.93t-.16-3q-.07-1.81-.21-4a12.18,12.18,0,0,0-1.06-4.24,1.47,1.47,0,0,1,1.44-.88q1.61,0,1.61,3.63a87.31,87.31,0,0,0,1,11.06q1,7.44,1.17,10.85l.34-2.27.37-2.45q.1-.67.29-2.21t.27-2.48q.07-.94.15-2.21t.07-2.62q0-1.36.29-4.41t.34-4h1.34a1.46,1.46,0,0,1,1,.32,1.1,1.1,0,0,1,.39.9v.42a86.78,86.78,0,0,1,2,13.94q.34,4.2.63,6.47a142.44,142.44,0,0,0,.83-16.53,27.23,27.23,0,0,1,.38-3.76,27.37,27.37,0,0,0,.38-3.76,2.36,2.36,0,0,1-.17-.85q0-1.22,1.4-1.22t1.4,1.17A32.36,32.36,0,0,1,166.74,380Z"/><path class="cls-4" d="M19.59,96.4H18.09V83.55h7.16v1.33H19.59v4.7h5.33v1.33H19.59Z"/><path class="cls-4" d="M27,84.16a1,1,0,0,1,.25-.73.91.91,0,0,1,1.22,0,1,1,0,0,1,.25.73,1,1,0,0,1-.25.73.89.89,0,0,1-1.22,0A1,1,0,0,1,27,84.16ZM28.62,96.4H27.16V86.77h1.46Z"/><path class="cls-4" d="M38.31,96.4V90.17a2.51,2.51,0,0,0-.54-1.76,2.18,2.18,0,0,0-1.68-.58,2.77,2.77,0,0,0-2.21.82,4.13,4.13,0,0,0-.7,2.7V96.4H31.71V86.77H32.9l.24,1.32h.07A3,3,0,0,1,34.47,87a4.08,4.08,0,0,1,1.8-.39,3.66,3.66,0,0,1,2.62.84,3.57,3.57,0,0,1,.88,2.69V96.4Z"/><path class="cls-4" d="M49.32,95.11h-.08a3.43,3.43,0,0,1-3,1.47,3.58,3.58,0,0,1-2.94-1.29,5.69,5.69,0,0,1-1.05-3.67,5.78,5.78,0,0,1,1.05-3.7,3.55,3.55,0,0,1,2.94-1.32,3.5,3.5,0,0,1,3,1.42h.11l-.06-.69,0-.68V82.72H50.7V96.4H49.51Zm-2.92.25a2.66,2.66,0,0,0,2.17-.81,4.11,4.11,0,0,0,.67-2.62v-.31a4.83,4.83,0,0,0-.68-2.92,2.59,2.59,0,0,0-2.18-.87,2.23,2.23,0,0,0-2,1,5,5,0,0,0-.68,2.82,4.76,4.76,0,0,0,.68,2.79A2.29,2.29,0,0,0,46.4,95.35Z"/><path class="cls-4" d="M57.86,96.58a4.43,4.43,0,0,1-3.37-1.3,5,5,0,0,1-1.23-3.61A5.58,5.58,0,0,1,54.4,88a3.81,3.81,0,0,1,3.08-1.37,3.63,3.63,0,0,1,2.87,1.19,4.56,4.56,0,0,1,1.05,3.14v.92H54.77a3.82,3.82,0,0,0,.86,2.58,3,3,0,0,0,2.29.88A7.76,7.76,0,0,0,61,94.65V96a7.72,7.72,0,0,1-1.46.48A8.22,8.22,0,0,1,57.86,96.58Zm-.4-8.76a2.38,2.38,0,0,0-1.85.76,3.48,3.48,0,0,0-.81,2.09h5a3.21,3.21,0,0,0-.62-2.11A2.17,2.17,0,0,0,57.47,87.81Z"/><path class="cls-4" d="M74.73,96.4h-7v-1L73,87.9H68.07V86.77H74.6V87.9l-5.19,7.37h5.32Z"/><path class="cls-4" d="M78.36,86.77V93a2.51,2.51,0,0,0,.54,1.76,2.18,2.18,0,0,0,1.68.58,2.74,2.74,0,0,0,2.21-.83,4.17,4.17,0,0,0,.7-2.7V86.77h1.46V96.4h-1.2l-.21-1.29h-.08A2.91,2.91,0,0,1,82.2,96.2a4.18,4.18,0,0,1-1.81.38,3.68,3.68,0,0,1-2.63-.83,3.55,3.55,0,0,1-.87-2.67v-6.3Z"/><path class="cls-4" d="M99.27,95.11h-.08a3.43,3.43,0,0,1-3,1.47,3.58,3.58,0,0,1-2.94-1.29,5.69,5.69,0,0,1-1.05-3.67,5.78,5.78,0,0,1,1.05-3.7,3.55,3.55,0,0,1,2.94-1.32,3.5,3.5,0,0,1,3,1.42h.11l-.06-.69,0-.68V82.72h1.46V96.4H99.46Zm-2.92.25a2.66,2.66,0,0,0,2.17-.81,4.11,4.11,0,0,0,.67-2.62v-.31a4.83,4.83,0,0,0-.68-2.92,2.59,2.59,0,0,0-2.18-.87,2.23,2.23,0,0,0-2,1,5,5,0,0,0-.68,2.82,4.76,4.76,0,0,0,.68,2.79A2.29,2.29,0,0,0,96.35,95.35Z"/><path class="cls-4" d="M107.81,96.58a4.43,4.43,0,0,1-3.37-1.3,5,5,0,0,1-1.23-3.61,5.58,5.58,0,0,1,1.15-3.7,3.81,3.81,0,0,1,3.08-1.37,3.63,3.63,0,0,1,2.87,1.19,4.56,4.56,0,0,1,1.05,3.14v.92h-6.64a3.82,3.82,0,0,0,.86,2.58,3,3,0,0,0,2.29.88,7.76,7.76,0,0,0,3.08-.65V96a7.72,7.72,0,0,1-1.46.48A8.22,8.22,0,0,1,107.81,96.58Zm-.4-8.76a2.38,2.38,0,0,0-1.85.76,3.48,3.48,0,0,0-.81,2.09h5a3.21,3.21,0,0,0-.62-2.11A2.17,2.17,0,0,0,107.41,87.81Z"/><path class="cls-4" d="M113.72,84.16a1,1,0,0,1,.25-.73.91.91,0,0,1,1.22,0,1,1,0,0,1,.25.73,1,1,0,0,1-.25.73.89.89,0,0,1-1.22,0A1,1,0,0,1,113.72,84.16ZM115.3,96.4h-1.46V86.77h1.46Z"/><path class="cls-4" d="M125,96.4V90.17a2.51,2.51,0,0,0-.54-1.76,2.18,2.18,0,0,0-1.68-.58,2.77,2.77,0,0,0-2.21.82,4.13,4.13,0,0,0-.7,2.7V96.4h-1.46V86.77h1.19l.24,1.32h.07a3,3,0,0,1,1.26-1.1,4.08,4.08,0,0,1,1.8-.39,3.66,3.66,0,0,1,2.62.84,3.57,3.57,0,0,1,.88,2.69V96.4Z"/><path class="cls-4" d="M133.51,96.58a4.43,4.43,0,0,1-3.37-1.3,5,5,0,0,1-1.23-3.61,5.58,5.58,0,0,1,1.15-3.7,3.81,3.81,0,0,1,3.08-1.37A3.63,3.63,0,0,1,136,87.78a4.56,4.56,0,0,1,1.05,3.14v.92h-6.64a3.82,3.82,0,0,0,.86,2.58,3,3,0,0,0,2.29.88,7.76,7.76,0,0,0,3.08-.65V96a7.72,7.72,0,0,1-1.46.48A8.22,8.22,0,0,1,133.51,96.58Zm-.4-8.76a2.38,2.38,0,0,0-1.85.76,3.48,3.48,0,0,0-.81,2.09h5a3.21,3.21,0,0,0-.62-2.11A2.17,2.17,0,0,0,133.11,87.81Z"/><path class="cls-4" d="M146.13,96.4V90.17a2.51,2.51,0,0,0-.54-1.76,2.18,2.18,0,0,0-1.68-.58,2.77,2.77,0,0,0-2.21.82,4.13,4.13,0,0,0-.7,2.7V96.4h-1.46V86.77h1.19l.24,1.32H141a3,3,0,0,1,1.26-1.1,4.08,4.08,0,0,1,1.8-.39,3.66,3.66,0,0,1,2.62.84,3.57,3.57,0,0,1,.88,2.69V96.4Z"/><path class="cls-4" d="M163.27,96.4h-8.83V95.23l6.82-10.34h-6.61V83.55h8.43v1.17L156.26,95h7Z"/><path class="cls-4" d="M166.91,86.77V93a2.51,2.51,0,0,0,.54,1.76,2.19,2.19,0,0,0,1.68.58,2.74,2.74,0,0,0,2.21-.83,4.17,4.17,0,0,0,.7-2.7V86.77h1.46V96.4h-1.2l-.21-1.29H172a2.91,2.91,0,0,1-1.24,1.09,4.18,4.18,0,0,1-1.82.38,3.68,3.68,0,0,1-2.63-.83,3.55,3.55,0,0,1-.87-2.67v-6.3Z"/><path class="cls-4" d="M179.7,95.37A5.17,5.17,0,0,0,181,95.2v1.12a2.66,2.66,0,0,1-.7.19,5.25,5.25,0,0,1-.83.07q-2.79,0-2.79-2.94V87.9h-1.38v-.7l1.38-.61.62-2.06h.84v2.23h2.79V87.9h-2.79v5.67a2,2,0,0,0,.41,1.34A1.44,1.44,0,0,0,179.7,95.37Z"/><path class="cls-4" d="M188.86,96.4,188.57,95h-.07a4.05,4.05,0,0,1-1.44,1.23,4.38,4.38,0,0,1-1.79.32,3.22,3.22,0,0,1-2.25-.74,2.69,2.69,0,0,1-.81-2.1q0-2.92,4.67-3.06l1.63-.05V90a2.44,2.44,0,0,0-.49-1.67,2,2,0,0,0-1.56-.54,6.36,6.36,0,0,0-2.72.74l-.45-1.12a6.86,6.86,0,0,1,1.56-.61,6.76,6.76,0,0,1,1.7-.22,3.67,3.67,0,0,1,2.55.76,3.19,3.19,0,0,1,.83,2.45V96.4Zm-3.3-1a3,3,0,0,0,2.14-.75,2.76,2.76,0,0,0,.78-2.09v-.87l-1.46.06a5.3,5.3,0,0,0-2.51.54,1.63,1.63,0,0,0-.77,1.49,1.5,1.5,0,0,0,.48,1.2A2,2,0,0,0,185.57,95.37Z"/><path class="cls-4" d="M196.06,95.37a5.17,5.17,0,0,0,1.32-.18v1.12a2.66,2.66,0,0,1-.7.19,5.25,5.25,0,0,1-.83.07q-2.79,0-2.79-2.94V87.9h-1.38v-.7l1.38-.61.62-2.06h.84v2.23h2.79V87.9h-2.79v5.67a2,2,0,0,0,.41,1.34A1.44,1.44,0,0,0,196.06,95.37Z"/><path class="cls-4" d="M203.37,96.58a4.42,4.42,0,0,1-3.37-1.3,5,5,0,0,1-1.24-3.61,5.58,5.58,0,0,1,1.15-3.7A3.81,3.81,0,0,1,203,86.59a3.63,3.63,0,0,1,2.87,1.19,4.56,4.56,0,0,1,1.05,3.14v.92h-6.64a3.82,3.82,0,0,0,.86,2.58,3,3,0,0,0,2.29.88,7.76,7.76,0,0,0,3.08-.65V96a7.72,7.72,0,0,1-1.46.48A8.23,8.23,0,0,1,203.37,96.58ZM203,87.81a2.38,2.38,0,0,0-1.85.76,3.48,3.48,0,0,0-.81,2.09h5a3.21,3.21,0,0,0-.62-2.11A2.17,2.17,0,0,0,203,87.81Z"/><path class="cls-4" d="M216,96.4V90.17a2.51,2.51,0,0,0-.54-1.76,2.19,2.19,0,0,0-1.68-.58,2.77,2.77,0,0,0-2.21.82,4.13,4.13,0,0,0-.7,2.7V96.4H209.4V86.77h1.19l.24,1.32h.07a3,3,0,0,1,1.26-1.1,4.08,4.08,0,0,1,1.8-.39,3.66,3.66,0,0,1,2.62.84,3.57,3.57,0,0,1,.88,2.69V96.4Z"/><path class="cls-4" d="M27.37,118H25.61l-4.68-6.23L19.59,113v5H18.09V105.15h1.49v6.37l5.83-6.37h1.77L22,110.73Z"/><path class="cls-4" d="M30.38,118H28.92V104.32h1.46Z"/><path class="cls-4" d="M39.4,118l-.29-1.37H39a4.05,4.05,0,0,1-1.44,1.23,4.38,4.38,0,0,1-1.79.32,3.22,3.22,0,0,1-2.25-.74,2.69,2.69,0,0,1-.81-2.1q0-2.92,4.67-3.06l1.63-.05v-.6a2.44,2.44,0,0,0-.49-1.67,2,2,0,0,0-1.56-.54,6.36,6.36,0,0,0-2.72.74L33.83,109a6.86,6.86,0,0,1,1.56-.61,6.76,6.76,0,0,1,1.7-.22,3.67,3.67,0,0,1,2.55.76,3.19,3.19,0,0,1,.83,2.45V118Zm-3.3-1a3,3,0,0,0,2.14-.75,2.76,2.76,0,0,0,.78-2.09v-.87l-1.46.06a5.31,5.31,0,0,0-2.51.54,1.63,1.63,0,0,0-.77,1.49,1.5,1.5,0,0,0,.48,1.2A2,2,0,0,0,36.1,117Z"/><path class="cls-4" d="M49.7,115.37a2.41,2.41,0,0,1-1,2.07,4.71,4.71,0,0,1-2.81.73,6.12,6.12,0,0,1-3-.61v-1.35a7.23,7.23,0,0,0,1.49.55,6.22,6.22,0,0,0,1.53.2,3.48,3.48,0,0,0,1.76-.36,1.26,1.26,0,0,0,.13-2.07,7.67,7.67,0,0,0-1.9-.94,10.32,10.32,0,0,1-1.91-.87,2.61,2.61,0,0,1-.84-.85,2.21,2.21,0,0,1-.28-1.13,2.16,2.16,0,0,1,1-1.86,4.46,4.46,0,0,1,2.63-.68,7.69,7.69,0,0,1,3,.63L49,110a7,7,0,0,0-2.63-.6,3,3,0,0,0-1.56.33,1,1,0,0,0-.53.9,1.09,1.09,0,0,0,.2.66,2,2,0,0,0,.64.52,14.24,14.24,0,0,0,1.69.71,6.3,6.3,0,0,1,2.32,1.26A2.22,2.22,0,0,1,49.7,115.37Z"/><path class="cls-4" d="M58.28,115.37a2.41,2.41,0,0,1-1,2.07,4.71,4.71,0,0,1-2.81.73,6.12,6.12,0,0,1-3-.61v-1.35a7.23,7.23,0,0,0,1.49.55,6.22,6.22,0,0,0,1.53.2,3.48,3.48,0,0,0,1.76-.36,1.26,1.26,0,0,0,.13-2.07,7.67,7.67,0,0,0-1.9-.94,10.32,10.32,0,0,1-1.91-.87,2.61,2.61,0,0,1-.84-.85,2.21,2.21,0,0,1-.28-1.13,2.16,2.16,0,0,1,1-1.86,4.46,4.46,0,0,1,2.63-.68,7.69,7.69,0,0,1,3,.63L57.56,110a7,7,0,0,0-2.63-.6,3,3,0,0,0-1.56.33,1,1,0,0,0-.53.9,1.09,1.09,0,0,0,.2.66,2,2,0,0,0,.64.52,14.24,14.24,0,0,0,1.69.71,6.3,6.3,0,0,1,2.32,1.26A2.22,2.22,0,0,1,58.28,115.37Z"/><path class="cls-4" d="M60.53,105.76a1,1,0,0,1,.25-.73A.91.91,0,0,1,62,105a1,1,0,0,1,.25.73,1,1,0,0,1-.25.73.89.89,0,0,1-1.22,0A1,1,0,0,1,60.53,105.76ZM62.12,118H60.66v-9.63h1.46Z"/><path class="cls-4" d="M66.65,113.07a17.16,17.16,0,0,1,1.15-1.41l3.11-3.3h1.73l-3.9,4.1L72.92,118H71.15l-3.4-4.55-1.1.95V118H65.21V104.32h1.44v7.25q0,.48-.07,1.49Z"/><path class="cls-4" d="M78.73,118.18a4.43,4.43,0,0,1-3.37-1.3,5,5,0,0,1-1.23-3.61,5.58,5.58,0,0,1,1.15-3.7,3.81,3.81,0,0,1,3.08-1.37,3.63,3.63,0,0,1,2.87,1.19,4.56,4.56,0,0,1,1.05,3.14v.92H75.63a3.82,3.82,0,0,0,.86,2.58,3,3,0,0,0,2.29.88,7.76,7.76,0,0,0,3.08-.65v1.3a7.72,7.72,0,0,1-1.46.48A8.22,8.22,0,0,1,78.73,118.18Zm-.4-8.76a2.38,2.38,0,0,0-1.85.76,3.48,3.48,0,0,0-.81,2.09h5a3.21,3.21,0,0,0-.62-2.11A2.17,2.17,0,0,0,78.33,109.41Z"/><path class="cls-4" d="M89.15,108.19a5.71,5.71,0,0,1,1.15.11l-.2,1.35a5,5,0,0,0-1.05-.13,2.57,2.57,0,0,0-2,.95,3.46,3.46,0,0,0-.83,2.36V118H84.76v-9.63H86l.17,1.78h.07a4.23,4.23,0,0,1,1.29-1.45A2.91,2.91,0,0,1,89.15,108.19Z"/><path class="cls-4" d="M105.09,113.18a5.31,5.31,0,0,1-1.19,3.68,4.18,4.18,0,0,1-3.28,1.32,4.34,4.34,0,0,1-2.29-.61,4,4,0,0,1-1.55-1.74,6.06,6.06,0,0,1-.54-2.65,5.31,5.31,0,0,1,1.18-3.67,4.17,4.17,0,0,1,3.27-1.31,4.08,4.08,0,0,1,3.21,1.34A5.29,5.29,0,0,1,105.09,113.18Zm-7.34,0a4.57,4.57,0,0,0,.74,2.81,2.93,2.93,0,0,0,4.35,0,4.55,4.55,0,0,0,.74-2.82,4.48,4.48,0,0,0-.74-2.79,2.61,2.61,0,0,0-2.19-1,2.57,2.57,0,0,0-2.16.94A4.53,4.53,0,0,0,97.76,113.18Z"/><path class="cls-4" d="M114.21,116.71h-.08a3.43,3.43,0,0,1-3,1.47,3.58,3.58,0,0,1-2.94-1.29,5.69,5.69,0,0,1-1.05-3.67,5.78,5.78,0,0,1,1.05-3.7,3.55,3.55,0,0,1,2.94-1.32,3.5,3.5,0,0,1,3,1.42h.11l-.06-.69,0-.68v-3.92h1.46V118H114.4Zm-2.92.25a2.66,2.66,0,0,0,2.17-.81,4.11,4.11,0,0,0,.67-2.62v-.31a4.83,4.83,0,0,0-.68-2.92,2.59,2.59,0,0,0-2.18-.87,2.23,2.23,0,0,0-2,1,5,5,0,0,0-.68,2.82,4.76,4.76,0,0,0,.68,2.79A2.29,2.29,0,0,0,111.29,117Z"/><path class="cls-4" d="M122.75,118.18a4.43,4.43,0,0,1-3.37-1.3,5,5,0,0,1-1.23-3.61,5.58,5.58,0,0,1,1.15-3.7,3.81,3.81,0,0,1,3.08-1.37,3.63,3.63,0,0,1,2.87,1.19,4.56,4.56,0,0,1,1.05,3.14v.92h-6.64a3.82,3.82,0,0,0,.86,2.58,3,3,0,0,0,2.29.88,7.76,7.76,0,0,0,3.08-.65v1.3a7.72,7.72,0,0,1-1.46.48A8.22,8.22,0,0,1,122.75,118.18Zm-.4-8.76a2.38,2.38,0,0,0-1.85.76,3.48,3.48,0,0,0-.81,2.09h5a3.21,3.21,0,0,0-.62-2.11A2.17,2.17,0,0,0,122.36,109.41Z"/><path class="cls-4" d="M133.18,108.19a5.71,5.71,0,0,1,1.15.11l-.2,1.35a5,5,0,0,0-1.05-.13,2.57,2.57,0,0,0-2,.95,3.46,3.46,0,0,0-.83,2.36V118h-1.46v-9.63H130l.17,1.78h.07a4.23,4.23,0,0,1,1.29-1.45A2.91,2.91,0,0,1,133.18,108.19Z"/><path class="cls-4" d="M144.87,118.18a4.43,4.43,0,0,1-3.37-1.3,5,5,0,0,1-1.23-3.61,5.58,5.58,0,0,1,1.15-3.7,3.81,3.81,0,0,1,3.08-1.37,3.63,3.63,0,0,1,2.87,1.19,4.56,4.56,0,0,1,1.05,3.14v.92h-6.64a3.82,3.82,0,0,0,.86,2.58,3,3,0,0,0,2.29.88,7.76,7.76,0,0,0,3.08-.65v1.3a7.72,7.72,0,0,1-1.46.48A8.22,8.22,0,0,1,144.87,118.18Zm-.4-8.76a2.38,2.38,0,0,0-1.85.76,3.48,3.48,0,0,0-.81,2.09h5a3.21,3.21,0,0,0-.62-2.11A2.17,2.17,0,0,0,144.48,109.41Z"/><path class="cls-4" d="M153.22,113.07l-3.35-4.7h1.66l2.54,3.69,2.53-3.69h1.64l-3.35,4.7,3.52,4.93h-1.65l-2.7-3.9-2.72,3.9H149.7Z"/><path class="cls-4" d="M164.82,118.18a4.17,4.17,0,0,1-1.72-.35,3.23,3.23,0,0,1-1.3-1.07h-.11a12.92,12.92,0,0,1,.11,1.6v4h-1.46v-14h1.19l.2,1.32h.07a3.39,3.39,0,0,1,1.31-1.14,4,4,0,0,1,1.71-.35,3.56,3.56,0,0,1,3,1.31,7,7,0,0,1,0,7.36A3.57,3.57,0,0,1,164.82,118.18Zm-.21-8.75a2.59,2.59,0,0,0-2.14.82,4.21,4.21,0,0,0-.68,2.6v.33a4.82,4.82,0,0,0,.68,2.9,2.58,2.58,0,0,0,2.17.87,2.26,2.26,0,0,0,2-1,4.79,4.79,0,0,0,.71-2.79,4.61,4.61,0,0,0-.71-2.76A2.33,2.33,0,0,0,164.61,109.43Z"/><path class="cls-4" d="M175.43,118.18a4.43,4.43,0,0,1-3.37-1.3,5,5,0,0,1-1.23-3.61,5.58,5.58,0,0,1,1.15-3.7,3.81,3.81,0,0,1,3.08-1.37,3.63,3.63,0,0,1,2.87,1.19,4.56,4.56,0,0,1,1.05,3.14v.92h-6.63a3.82,3.82,0,0,0,.86,2.58,3,3,0,0,0,2.29.88,7.76,7.76,0,0,0,3.08-.65v1.3a7.72,7.72,0,0,1-1.46.48A8.22,8.22,0,0,1,175.43,118.18Zm-.4-8.76a2.38,2.38,0,0,0-1.85.76,3.48,3.48,0,0,0-.81,2.09h5a3.21,3.21,0,0,0-.62-2.11A2.17,2.17,0,0,0,175,109.41Z"/><path class="cls-4" d="M185.86,108.19a5.7,5.7,0,0,1,1.15.11l-.2,1.35a5,5,0,0,0-1.05-.13,2.57,2.57,0,0,0-2,.95,3.46,3.46,0,0,0-.83,2.36V118h-1.46v-9.63h1.2l.17,1.78h.07a4.23,4.23,0,0,1,1.29-1.45A2.91,2.91,0,0,1,185.86,108.19Z"/><path class="cls-4" d="M188.69,105.76a1,1,0,0,1,.25-.73.91.91,0,0,1,1.22,0,1,1,0,0,1,.26.73,1,1,0,0,1-.26.73.89.89,0,0,1-1.22,0A1,1,0,0,1,188.69,105.76ZM190.27,118h-1.46v-9.63h1.46Z"/><path class="cls-4" d="M205.64,118v-6.27a2.6,2.6,0,0,0-.49-1.73,1.9,1.9,0,0,0-1.53-.58,2.47,2.47,0,0,0-2,.78,3.72,3.72,0,0,0-.65,2.41V118H199.5v-6.27A2.6,2.6,0,0,0,199,110a1.92,1.92,0,0,0-1.54-.58,2.38,2.38,0,0,0-2,.82,4.45,4.45,0,0,0-.64,2.69V118h-1.46v-9.63h1.19l.24,1.32h.07a2.87,2.87,0,0,1,1.16-1.1,3.56,3.56,0,0,1,1.68-.4,2.86,2.86,0,0,1,3,1.63h.07a3.07,3.07,0,0,1,1.25-1.2,3.87,3.87,0,0,1,1.86-.44,3.26,3.26,0,0,1,2.45.84,3.75,3.75,0,0,1,.81,2.69V118Z"/><path class="cls-4" d="M214.18,118.18a4.43,4.43,0,0,1-3.37-1.3,5,5,0,0,1-1.23-3.61,5.58,5.58,0,0,1,1.15-3.7,3.81,3.81,0,0,1,3.08-1.37,3.63,3.63,0,0,1,2.87,1.19,4.56,4.56,0,0,1,1.05,3.14v.92h-6.63a3.82,3.82,0,0,0,.86,2.58,3,3,0,0,0,2.29.88,7.76,7.76,0,0,0,3.08-.65v1.3a7.72,7.72,0,0,1-1.46.48A8.22,8.22,0,0,1,214.18,118.18Zm-.4-8.76a2.38,2.38,0,0,0-1.85.76,3.48,3.48,0,0,0-.81,2.09h5a3.21,3.21,0,0,0-.62-2.11A2.17,2.17,0,0,0,213.78,109.41Z"/><path class="cls-4" d="M226.8,118v-6.23a2.51,2.51,0,0,0-.54-1.76,2.18,2.18,0,0,0-1.68-.58,2.77,2.77,0,0,0-2.21.82,4.13,4.13,0,0,0-.7,2.7V118h-1.46v-9.63h1.19l.24,1.32h.07a3,3,0,0,1,1.26-1.1,4.09,4.09,0,0,1,1.8-.39,3.66,3.66,0,0,1,2.62.84,3.57,3.57,0,0,1,.88,2.69V118Z"/><path class="cls-4" d="M234.36,117a5.17,5.17,0,0,0,1.32-.18v1.12a2.66,2.66,0,0,1-.7.19,5.25,5.25,0,0,1-.83.07q-2.79,0-2.79-2.94V109.5H230v-.7l1.38-.61.62-2.06h.84v2.23h2.79v1.13h-2.79v5.67a2,2,0,0,0,.41,1.34A1.44,1.44,0,0,0,234.36,117Z"/><path class="cls-4" d="M241.68,118.18a4.42,4.42,0,0,1-3.37-1.3,5,5,0,0,1-1.24-3.61,5.58,5.58,0,0,1,1.15-3.7,3.81,3.81,0,0,1,3.08-1.37,3.63,3.63,0,0,1,2.87,1.19,4.56,4.56,0,0,1,1.05,3.14v.92h-6.64a3.82,3.82,0,0,0,.86,2.58,3,3,0,0,0,2.29.88,7.76,7.76,0,0,0,3.08-.65v1.3a7.72,7.72,0,0,1-1.46.48A8.23,8.23,0,0,1,241.68,118.18Zm-.39-8.76a2.38,2.38,0,0,0-1.85.76,3.48,3.48,0,0,0-.81,2.09h5a3.21,3.21,0,0,0-.62-2.11A2.17,2.17,0,0,0,241.28,109.41Z"/><path class="cls-4" d="M249.16,118h-1.46V104.32h1.46Z"/><path class="cls-4" d="M253.72,118h-1.46V104.32h1.46Z"/><path class="cls-4" d="M260.88,118.18a4.43,4.43,0,0,1-3.37-1.3,5,5,0,0,1-1.23-3.61,5.58,5.58,0,0,1,1.15-3.7,3.81,3.81,0,0,1,3.08-1.37,3.63,3.63,0,0,1,2.87,1.19,4.56,4.56,0,0,1,1.05,3.14v.92h-6.63a3.82,3.82,0,0,0,.86,2.58,3,3,0,0,0,2.29.88,7.76,7.76,0,0,0,3.08-.65v1.3a7.72,7.72,0,0,1-1.46.48A8.22,8.22,0,0,1,260.88,118.18Zm-.4-8.76a2.38,2.38,0,0,0-1.85.76,3.48,3.48,0,0,0-.81,2.09h5a3.21,3.21,0,0,0-.62-2.11A2.17,2.17,0,0,0,260.48,109.41Z"/><path class="cls-4" d="M27.85,139.6H26.35v-6H19.59v6H18.09V126.75h1.49v5.47h6.77v-5.47h1.49Z"/><path class="cls-4" d="M35.22,139.78a4.43,4.43,0,0,1-3.37-1.3,5,5,0,0,1-1.23-3.61,5.58,5.58,0,0,1,1.15-3.7,3.81,3.81,0,0,1,3.08-1.37A3.63,3.63,0,0,1,37.71,131a4.56,4.56,0,0,1,1.05,3.14V135H32.13a3.82,3.82,0,0,0,.86,2.58,3,3,0,0,0,2.29.88,7.76,7.76,0,0,0,3.08-.65v1.3a7.72,7.72,0,0,1-1.46.48A8.22,8.22,0,0,1,35.22,139.78Zm-.4-8.76a2.38,2.38,0,0,0-1.85.76,3.48,3.48,0,0,0-.81,2.09h5a3.21,3.21,0,0,0-.62-2.11A2.17,2.17,0,0,0,34.83,131Z"/><path class="cls-4" d="M45.65,129.79a5.71,5.71,0,0,1,1.15.11l-.2,1.35a5,5,0,0,0-1.05-.13,2.57,2.57,0,0,0-2,.95,3.46,3.46,0,0,0-.83,2.36v5.17H41.25V130h1.2l.17,1.78h.07A4.23,4.23,0,0,1,44,130.3,2.91,2.91,0,0,1,45.65,129.79Z"/><path class="cls-4" d="M54.52,139.6l-.29-1.37h-.07a4.05,4.05,0,0,1-1.44,1.23,4.38,4.38,0,0,1-1.79.32,3.22,3.22,0,0,1-2.25-.74,2.69,2.69,0,0,1-.81-2.1q0-2.92,4.67-3.06l1.63-.05v-.6a2.44,2.44,0,0,0-.49-1.67,2,2,0,0,0-1.56-.54,6.36,6.36,0,0,0-2.72.74L49,130.64a6.86,6.86,0,0,1,1.56-.61,6.76,6.76,0,0,1,1.7-.22,3.67,3.67,0,0,1,2.55.76A3.19,3.19,0,0,1,55.6,133v6.57Zm-3.3-1a3,3,0,0,0,2.14-.75,2.76,2.76,0,0,0,.78-2.09v-.87l-1.46.06a5.31,5.31,0,0,0-2.51.54,1.63,1.63,0,0,0-.77,1.49,1.5,1.5,0,0,0,.48,1.2A2,2,0,0,0,51.23,138.57Z"/><path class="cls-4" d="M60,130v6.25a2.51,2.51,0,0,0,.54,1.76,2.18,2.18,0,0,0,1.68.58,2.74,2.74,0,0,0,2.21-.83,4.17,4.17,0,0,0,.7-2.7V130h1.46v9.63h-1.2l-.21-1.29h-.08a2.91,2.91,0,0,1-1.24,1.09,4.18,4.18,0,0,1-1.81.38,3.68,3.68,0,0,1-2.63-.83,3.55,3.55,0,0,1-.87-2.67V130Z"/><path class="cls-4" d="M75.87,137a2.41,2.41,0,0,1-1,2.07,4.71,4.71,0,0,1-2.81.73,6.12,6.12,0,0,1-3-.61v-1.35a7.23,7.23,0,0,0,1.49.55,6.22,6.22,0,0,0,1.53.2,3.48,3.48,0,0,0,1.76-.36,1.26,1.26,0,0,0,.13-2.07,7.67,7.67,0,0,0-1.9-.94,10.32,10.32,0,0,1-1.91-.87,2.61,2.61,0,0,1-.84-.85,2.21,2.21,0,0,1-.28-1.13,2.16,2.16,0,0,1,1-1.86,4.46,4.46,0,0,1,2.63-.68,7.69,7.69,0,0,1,3,.63l-.52,1.19a7,7,0,0,0-2.63-.6,3,3,0,0,0-1.56.33,1,1,0,0,0-.53.9,1.09,1.09,0,0,0,.2.66,2,2,0,0,0,.64.52,14.24,14.24,0,0,0,1.69.71,6.3,6.3,0,0,1,2.32,1.26A2.22,2.22,0,0,1,75.87,137Z"/><path class="cls-4" d="M82.59,131.1H80.13v8.5H78.67v-8.5H77v-.66l1.72-.53v-.54q0-3.55,3.1-3.55a6.38,6.38,0,0,1,1.79.31l-.38,1.17a4.83,4.83,0,0,0-1.44-.27,1.4,1.4,0,0,0-1.22.55,3.07,3.07,0,0,0-.4,1.76V130h2.45Z"/><path class="cls-4" d="M92.66,134.78a5.31,5.31,0,0,1-1.19,3.68,4.18,4.18,0,0,1-3.28,1.32,4.34,4.34,0,0,1-2.29-.61,4,4,0,0,1-1.55-1.74,6.06,6.06,0,0,1-.54-2.65A5.31,5.31,0,0,1,85,131.11a4.17,4.17,0,0,1,3.27-1.31,4.08,4.08,0,0,1,3.21,1.34A5.29,5.29,0,0,1,92.66,134.78Zm-7.34,0a4.57,4.57,0,0,0,.74,2.81,2.93,2.93,0,0,0,4.35,0,4.55,4.55,0,0,0,.74-2.82A4.48,4.48,0,0,0,90.4,132a2.61,2.61,0,0,0-2.19-1A2.57,2.57,0,0,0,86,132,4.53,4.53,0,0,0,85.32,134.78Z"/><path class="cls-4" d="M99.61,129.79a5.71,5.71,0,0,1,1.15.11l-.2,1.35a5,5,0,0,0-1.05-.13,2.57,2.57,0,0,0-2,.95,3.46,3.46,0,0,0-.83,2.36v5.17H95.22V130h1.2l.17,1.78h.07a4.23,4.23,0,0,1,1.29-1.45A2.91,2.91,0,0,1,99.61,129.79Z"/><path class="cls-4" d="M109.12,138.31H109a3.43,3.43,0,0,1-3,1.47,3.58,3.58,0,0,1-2.94-1.29,5.69,5.69,0,0,1-1.05-3.67,5.78,5.78,0,0,1,1.05-3.7,3.55,3.55,0,0,1,2.94-1.32,3.5,3.5,0,0,1,3,1.42h.11l-.06-.69,0-.68v-3.92h1.46V139.6h-1.19Zm-2.92.25a2.66,2.66,0,0,0,2.17-.81,4.11,4.11,0,0,0,.67-2.62v-.31a4.83,4.83,0,0,0-.68-2.92,2.59,2.59,0,0,0-2.18-.87,2.23,2.23,0,0,0-2,1,5,5,0,0,0-.68,2.82,4.76,4.76,0,0,0,.68,2.79A2.29,2.29,0,0,0,106.2,138.55Z"/><path class="cls-4" d="M117.66,139.78a4.43,4.43,0,0,1-3.37-1.3,5,5,0,0,1-1.23-3.61,5.58,5.58,0,0,1,1.15-3.7,3.81,3.81,0,0,1,3.08-1.37,3.63,3.63,0,0,1,2.87,1.19,4.56,4.56,0,0,1,1.05,3.14V135h-6.64a3.82,3.82,0,0,0,.86,2.58,3,3,0,0,0,2.29.88,7.76,7.76,0,0,0,3.08-.65v1.3a7.72,7.72,0,0,1-1.46.48A8.22,8.22,0,0,1,117.66,139.78Zm-.4-8.76a2.38,2.38,0,0,0-1.85.76,3.48,3.48,0,0,0-.81,2.09h5a3.21,3.21,0,0,0-.62-2.11A2.17,2.17,0,0,0,117.27,131Z"/><path class="cls-4" d="M128.09,129.79a5.71,5.71,0,0,1,1.15.11l-.2,1.35a5,5,0,0,0-1.05-.13,2.57,2.57,0,0,0-2,.95,3.46,3.46,0,0,0-.83,2.36v5.17h-1.46V130h1.2l.17,1.78h.07a4.23,4.23,0,0,1,1.29-1.45A2.91,2.91,0,0,1,128.09,129.79Z"/><path class="cls-4" d="M132.41,130v6.25a2.51,2.51,0,0,0,.54,1.76,2.18,2.18,0,0,0,1.68.58,2.74,2.74,0,0,0,2.21-.83,4.17,4.17,0,0,0,.7-2.7V130H139v9.63h-1.2l-.21-1.29h-.08a2.91,2.91,0,0,1-1.24,1.09,4.18,4.18,0,0,1-1.81.38,3.68,3.68,0,0,1-2.63-.83,3.55,3.55,0,0,1-.87-2.67V130Z"/><path class="cls-4" d="M148.68,139.6v-6.23a2.51,2.51,0,0,0-.54-1.76,2.18,2.18,0,0,0-1.68-.58,2.77,2.77,0,0,0-2.21.82,4.13,4.13,0,0,0-.7,2.7v5.05h-1.46V130h1.19l.24,1.32h.07a3,3,0,0,1,1.26-1.1,4.08,4.08,0,0,1,1.8-.39,3.66,3.66,0,0,1,2.62.84,3.57,3.57,0,0,1,.88,2.69v6.28Z"/><path class="cls-4" d="M161,130v.92l-1.78.21a3.13,3.13,0,0,1,.63,1.92,2.85,2.85,0,0,1-1,2.26,3.9,3.9,0,0,1-2.65.84,4.42,4.42,0,0,1-.81-.07,1.44,1.44,0,0,0-.93,1.24.63.63,0,0,0,.33.58,2.38,2.38,0,0,0,1.12.19h1.71a3.82,3.82,0,0,1,2.4.66,2.29,2.29,0,0,1,.84,1.92,2.74,2.74,0,0,1-1.28,2.44,6.87,6.87,0,0,1-3.74.84,5.12,5.12,0,0,1-2.91-.7,2.27,2.27,0,0,1-1-2,2.23,2.23,0,0,1,.56-1.52,2.86,2.86,0,0,1,1.58-.87,1.53,1.53,0,0,1-.62-.52,1.37,1.37,0,0,1-.25-.82,1.55,1.55,0,0,1,.28-.92,3,3,0,0,1,.89-.76,2.6,2.6,0,0,1-1.22-1,3.07,3.07,0,0,1-.47-1.69,3.12,3.12,0,0,1,.95-2.44,3.88,3.88,0,0,1,2.69-.86,4.89,4.89,0,0,1,1.36.18Zm-7.68,11.25a1.31,1.31,0,0,0,.66,1.19,3.64,3.64,0,0,0,1.89.4,5.27,5.27,0,0,0,2.72-.55,1.68,1.68,0,0,0,.88-1.49,1.18,1.18,0,0,0-.48-1.09,3.75,3.75,0,0,0-1.82-.3h-1.75a2.3,2.3,0,0,0-1.55.47A1.7,1.7,0,0,0,153.34,141.22Zm.79-8.17a2,2,0,0,0,.57,1.53,2.28,2.28,0,0,0,1.59.52,1.86,1.86,0,0,0,2.14-2.07,1.91,1.91,0,0,0-2.16-2.17,2.14,2.14,0,0,0-1.58.55A2.23,2.23,0,0,0,154.13,133.05Z"/><path class="cls-4" d="M167.07,139.78a4.43,4.43,0,0,1-3.37-1.3,5,5,0,0,1-1.23-3.61,5.58,5.58,0,0,1,1.15-3.7,3.81,3.81,0,0,1,3.08-1.37,3.63,3.63,0,0,1,2.87,1.19,4.56,4.56,0,0,1,1.05,3.14V135H164a3.82,3.82,0,0,0,.86,2.58,3,3,0,0,0,2.29.88,7.76,7.76,0,0,0,3.08-.65v1.3a7.72,7.72,0,0,1-1.46.48A8.22,8.22,0,0,1,167.07,139.78Zm-.4-8.76a2.38,2.38,0,0,0-1.85.76,3.48,3.48,0,0,0-.81,2.09h5a3.21,3.21,0,0,0-.62-2.11A2.17,2.17,0,0,0,166.67,131Z"/><path class="cls-4" d="M179.69,139.6v-6.23a2.51,2.51,0,0,0-.54-1.76,2.18,2.18,0,0,0-1.68-.58,2.77,2.77,0,0,0-2.21.82,4.13,4.13,0,0,0-.7,2.7v5.05H173.1V130h1.19l.24,1.32h.07a3,3,0,0,1,1.26-1.1,4.09,4.09,0,0,1,1.8-.39,3.66,3.66,0,0,1,2.62.84,3.57,3.57,0,0,1,.88,2.69v6.28Z"/><path class="cls-4" d="M183.93,138.67a1.31,1.31,0,0,1,.27-.89,1,1,0,0,1,.77-.3,1,1,0,0,1,.8.3,1.26,1.26,0,0,1,.29.89,1.23,1.23,0,0,1-.29.88,1.15,1.15,0,0,1-1.53,0A1.2,1.2,0,0,1,183.93,138.67Z"/><path class="cls-4" d="M27.37,274.4H25.61l-4.68-6.23-1.34,1.2v5H18.09V261.55h1.49v6.37l5.83-6.37h1.77L22,267.13Z"/><path class="cls-4" d="M33.31,264.59a5.71,5.71,0,0,1,1.15.11l-.2,1.35a5,5,0,0,0-1.05-.13,2.57,2.57,0,0,0-2,.95,3.46,3.46,0,0,0-.83,2.36v5.17H28.92v-9.63h1.2l.17,1.78h.07a4.23,4.23,0,0,1,1.29-1.45A2.91,2.91,0,0,1,33.31,264.59Z"/><path class="cls-4" d="M40.34,274.58a4.43,4.43,0,0,1-3.37-1.3,5,5,0,0,1-1.23-3.61,5.58,5.58,0,0,1,1.15-3.7A3.81,3.81,0,0,1,40,264.59a3.63,3.63,0,0,1,2.87,1.19,4.56,4.56,0,0,1,1.05,3.14v.92H37.24a3.82,3.82,0,0,0,.86,2.58,3,3,0,0,0,2.29.88,7.76,7.76,0,0,0,3.08-.65V274a7.79,7.79,0,0,1-1.46.48A8.3,8.3,0,0,1,40.34,274.58Zm-.4-8.76a2.38,2.38,0,0,0-1.85.76,3.48,3.48,0,0,0-.81,2.09h5a3.21,3.21,0,0,0-.62-2.11A2.17,2.17,0,0,0,39.94,265.81Z"/><path class="cls-4" d="M46.24,262.16a1,1,0,0,1,.25-.73.91.91,0,0,1,1.22,0,1,1,0,0,1,.25.73,1,1,0,0,1-.25.73.89.89,0,0,1-1.22,0A1,1,0,0,1,46.24,262.16Zm1.58,12.24H46.37v-9.63h1.46Z"/><path class="cls-4" d="M55,274.58a4.43,4.43,0,0,1-3.37-1.3,5,5,0,0,1-1.23-3.61,5.58,5.58,0,0,1,1.15-3.7,3.81,3.81,0,0,1,3.08-1.37,3.63,3.63,0,0,1,2.87,1.19,4.56,4.56,0,0,1,1.05,3.14v.92H51.89a3.82,3.82,0,0,0,.86,2.58,3,3,0,0,0,2.29.88,7.76,7.76,0,0,0,3.08-.65V274a7.79,7.79,0,0,1-1.46.48A8.3,8.3,0,0,1,55,274.58Zm-.4-8.76a2.38,2.38,0,0,0-1.85.76,3.48,3.48,0,0,0-.81,2.09h5a3.21,3.21,0,0,0-.62-2.11A2.17,2.17,0,0,0,54.59,265.81Z"/><path class="cls-4" d="M65.41,264.59a5.71,5.71,0,0,1,1.15.11l-.2,1.35a5,5,0,0,0-1.05-.13,2.57,2.57,0,0,0-2,.95,3.46,3.46,0,0,0-.83,2.36v5.17H61v-9.63h1.2l.17,1.78h.07a4.23,4.23,0,0,1,1.29-1.45A2.91,2.91,0,0,1,65.41,264.59Z"/><path class="cls-4" d="M72.43,274.58a4.43,4.43,0,0,1-3.37-1.3,5,5,0,0,1-1.23-3.61A5.58,5.58,0,0,1,69,266a3.81,3.81,0,0,1,3.08-1.37,3.63,3.63,0,0,1,2.87,1.19A4.56,4.56,0,0,1,76,268.92v.92H69.34a3.82,3.82,0,0,0,.86,2.58,3,3,0,0,0,2.29.88,7.76,7.76,0,0,0,3.08-.65V274a7.79,7.79,0,0,1-1.46.48A8.3,8.3,0,0,1,72.43,274.58Zm-.4-8.76a2.38,2.38,0,0,0-1.85.76,3.48,3.48,0,0,0-.81,2.09h5a3.21,3.21,0,0,0-.62-2.11A2.17,2.17,0,0,0,72,265.81Z"/><path class="cls-4" d="M83.36,274.4V261.55h1.49V274.4Z"/><path class="cls-4" d="M94.71,273.11h-.08a3.43,3.43,0,0,1-3,1.47,3.58,3.58,0,0,1-2.94-1.29,5.69,5.69,0,0,1-1.05-3.67,5.78,5.78,0,0,1,1.05-3.7,3.55,3.55,0,0,1,2.94-1.32,3.5,3.5,0,0,1,3,1.42h.11l-.06-.69,0-.68v-3.92h1.46V274.4H94.91Zm-2.92.25a2.65,2.65,0,0,0,2.17-.81,4.1,4.1,0,0,0,.67-2.62v-.31a4.84,4.84,0,0,0-.68-2.92,2.59,2.59,0,0,0-2.18-.87,2.23,2.23,0,0,0-2,1,5,5,0,0,0-.68,2.82,4.76,4.76,0,0,0,.68,2.79A2.29,2.29,0,0,0,91.8,273.35Z"/><path class="cls-4" d="M103.26,274.58a4.43,4.43,0,0,1-3.37-1.3,5,5,0,0,1-1.23-3.61A5.58,5.58,0,0,1,99.8,266a3.81,3.81,0,0,1,3.08-1.37,3.63,3.63,0,0,1,2.87,1.19,4.56,4.56,0,0,1,1.05,3.14v.92h-6.64a3.82,3.82,0,0,0,.86,2.58,3,3,0,0,0,2.29.88,7.76,7.76,0,0,0,3.08-.65V274a7.79,7.79,0,0,1-1.46.48A8.3,8.3,0,0,1,103.26,274.58Zm-.4-8.76a2.38,2.38,0,0,0-1.85.76,3.48,3.48,0,0,0-.81,2.09h5a3.21,3.21,0,0,0-.62-2.11A2.17,2.17,0,0,0,102.86,265.81Z"/><path class="cls-4" d="M113.36,274.58a4.43,4.43,0,0,1-3.37-1.3,5,5,0,0,1-1.23-3.61,5.58,5.58,0,0,1,1.15-3.7,3.81,3.81,0,0,1,3.08-1.37,3.63,3.63,0,0,1,2.87,1.19,4.56,4.56,0,0,1,1.05,3.14v.92h-6.64a3.82,3.82,0,0,0,.86,2.58,3,3,0,0,0,2.29.88,7.76,7.76,0,0,0,3.08-.65V274a7.79,7.79,0,0,1-1.46.48A8.3,8.3,0,0,1,113.36,274.58Zm-.4-8.76a2.38,2.38,0,0,0-1.85.76,3.48,3.48,0,0,0-.81,2.09h5a3.21,3.21,0,0,0-.62-2.11A2.17,2.17,0,0,0,113,265.81Z"/><path class="cls-4" d="M126,274.4v-6.23a2.51,2.51,0,0,0-.54-1.76,2.18,2.18,0,0,0-1.68-.58,2.77,2.77,0,0,0-2.21.82,4.13,4.13,0,0,0-.7,2.7v5.05h-1.46v-9.63h1.19l.24,1.32h.07a3,3,0,0,1,1.26-1.1,4.1,4.1,0,0,1,1.8-.39,3.65,3.65,0,0,1,2.62.84,3.57,3.57,0,0,1,.88,2.68v6.28Z"/><path class="cls-4" d="M141,274.4l-.29-1.37h-.07a4.07,4.07,0,0,1-1.44,1.23,4.4,4.4,0,0,1-1.79.32,3.22,3.22,0,0,1-2.25-.74,2.69,2.69,0,0,1-.81-2.1q0-2.92,4.67-3.06l1.63-.05V268a2.45,2.45,0,0,0-.49-1.67,2,2,0,0,0-1.56-.54,6.36,6.36,0,0,0-2.72.74l-.45-1.12a6.86,6.86,0,0,1,1.56-.61,6.76,6.76,0,0,1,1.7-.22,3.67,3.67,0,0,1,2.55.76,3.19,3.19,0,0,1,.83,2.45v6.57Zm-3.3-1a3,3,0,0,0,2.14-.75,2.76,2.76,0,0,0,.78-2.09v-.87l-1.46.06a5.29,5.29,0,0,0-2.51.54,1.63,1.63,0,0,0-.77,1.49,1.5,1.5,0,0,0,.48,1.2A2,2,0,0,0,137.74,273.37Z"/><path class="cls-4" d="M146.49,264.77V271a2.51,2.51,0,0,0,.54,1.76,2.18,2.18,0,0,0,1.68.58,2.74,2.74,0,0,0,2.21-.83,4.17,4.17,0,0,0,.7-2.7v-5.06h1.46v9.63h-1.2l-.21-1.29h-.08a2.91,2.91,0,0,1-1.24,1.09,4.18,4.18,0,0,1-1.81.38,3.68,3.68,0,0,1-2.63-.83,3.55,3.55,0,0,1-.87-2.67v-6.3Z"/><path class="cls-4" d="M162.38,271.77a2.41,2.41,0,0,1-1,2.07,4.71,4.71,0,0,1-2.81.73,6.12,6.12,0,0,1-3-.61v-1.35a7.23,7.23,0,0,0,1.49.55,6.22,6.22,0,0,0,1.53.2,3.49,3.49,0,0,0,1.76-.36,1.26,1.26,0,0,0,.13-2.07,7.64,7.64,0,0,0-1.9-.95,10.25,10.25,0,0,1-1.91-.87,2.6,2.6,0,0,1-.84-.85,2.21,2.21,0,0,1-.28-1.13,2.16,2.16,0,0,1,1-1.86,4.46,4.46,0,0,1,2.63-.68,7.69,7.69,0,0,1,3,.63l-.52,1.19a7,7,0,0,0-2.63-.6,3,3,0,0,0-1.56.33,1,1,0,0,0-.53.9,1.09,1.09,0,0,0,.2.66,2,2,0,0,0,.64.52,14.24,14.24,0,0,0,1.69.71,6.3,6.3,0,0,1,2.32,1.26A2.22,2.22,0,0,1,162.38,271.77Z"/><path class="cls-4" d="M170.8,264.77V271a2.51,2.51,0,0,0,.54,1.76,2.18,2.18,0,0,0,1.68.58,2.74,2.74,0,0,0,2.21-.83,4.17,4.17,0,0,0,.7-2.7v-5.06h1.46v9.63h-1.21l-.21-1.29h-.08a2.91,2.91,0,0,1-1.24,1.09,4.18,4.18,0,0,1-1.81.38,3.68,3.68,0,0,1-2.63-.83,3.55,3.55,0,0,1-.87-2.67v-6.3Z"/><path class="cls-4" d="M187.07,274.4v-6.23a2.51,2.51,0,0,0-.54-1.76,2.18,2.18,0,0,0-1.68-.58,2.77,2.77,0,0,0-2.21.82,4.13,4.13,0,0,0-.7,2.7v5.05h-1.46v-9.63h1.19l.24,1.32H182a3,3,0,0,1,1.26-1.1,4.1,4.1,0,0,1,1.8-.39,3.65,3.65,0,0,1,2.62.84,3.57,3.57,0,0,1,.88,2.68v6.28Z"/><path class="cls-4" d="M197.74,271.77a2.41,2.41,0,0,1-1,2.07,4.71,4.71,0,0,1-2.81.73,6.12,6.12,0,0,1-3-.61v-1.35a7.22,7.22,0,0,0,1.49.55,6.22,6.22,0,0,0,1.53.2,3.49,3.49,0,0,0,1.76-.36,1.26,1.26,0,0,0,.13-2.07,7.63,7.63,0,0,0-1.9-.95,10.26,10.26,0,0,1-1.91-.87,2.6,2.6,0,0,1-.84-.85,2.21,2.21,0,0,1-.28-1.13,2.16,2.16,0,0,1,1-1.86,4.45,4.45,0,0,1,2.63-.68,7.69,7.69,0,0,1,3,.63l-.52,1.19a7,7,0,0,0-2.63-.6,3,3,0,0,0-1.56.33,1,1,0,0,0-.53.9,1.09,1.09,0,0,0,.2.66,2,2,0,0,0,.64.52,14.24,14.24,0,0,0,1.69.71,6.3,6.3,0,0,1,2.32,1.26A2.22,2.22,0,0,1,197.74,271.77Z"/><path class="cls-4" d="M204.18,274.58a4.42,4.42,0,0,1-3.37-1.3,5,5,0,0,1-1.24-3.61,5.58,5.58,0,0,1,1.15-3.7,3.81,3.81,0,0,1,3.08-1.37,3.63,3.63,0,0,1,2.87,1.19,4.56,4.56,0,0,1,1.05,3.14v.92h-6.64a3.82,3.82,0,0,0,.86,2.58,3,3,0,0,0,2.29.88,7.76,7.76,0,0,0,3.08-.65V274a7.79,7.79,0,0,1-1.46.48A8.3,8.3,0,0,1,204.18,274.58Zm-.39-8.76a2.38,2.38,0,0,0-1.85.76,3.48,3.48,0,0,0-.81,2.09h5a3.21,3.21,0,0,0-.62-2.11A2.17,2.17,0,0,0,203.79,265.81Z"/><path class="cls-4" d="M214.61,264.59a5.72,5.72,0,0,1,1.15.11l-.2,1.35a5,5,0,0,0-1.05-.13,2.57,2.57,0,0,0-2,.95,3.46,3.46,0,0,0-.83,2.36v5.17h-1.46v-9.63h1.21l.17,1.78h.07a4.24,4.24,0,0,1,1.29-1.45A2.91,2.91,0,0,1,214.61,264.59Z"/><path class="cls-4" d="M221.63,274.58a4.43,4.43,0,0,1-3.37-1.3,5,5,0,0,1-1.23-3.61,5.58,5.58,0,0,1,1.15-3.7,3.81,3.81,0,0,1,3.08-1.37,3.63,3.63,0,0,1,2.87,1.19,4.56,4.56,0,0,1,1.05,3.14v.92h-6.63a3.82,3.82,0,0,0,.86,2.58,3,3,0,0,0,2.29.88,7.76,7.76,0,0,0,3.08-.65V274a7.8,7.8,0,0,1-1.46.48A8.29,8.29,0,0,1,221.63,274.58Zm-.4-8.76a2.38,2.38,0,0,0-1.85.76,3.48,3.48,0,0,0-.81,2.09h5a3.21,3.21,0,0,0-.62-2.11A2.17,2.17,0,0,0,221.23,265.81Z"/><path class="cls-4" d="M234.25,274.4v-6.23a2.51,2.51,0,0,0-.54-1.76,2.18,2.18,0,0,0-1.68-.58,2.77,2.77,0,0,0-2.21.82,4.13,4.13,0,0,0-.7,2.7v5.05h-1.46v-9.63h1.19l.24,1.32h.07a3,3,0,0,1,1.26-1.1,4.1,4.1,0,0,1,1.8-.39,3.65,3.65,0,0,1,2.62.84,3.57,3.57,0,0,1,.88,2.68v6.28Z"/><path class="cls-4" d="M19.24,286.37v6.25a2.51,2.51,0,0,0,.54,1.76,2.18,2.18,0,0,0,1.68.58,2.74,2.74,0,0,0,2.21-.83,4.17,4.17,0,0,0,.7-2.7v-5.06h1.46V296h-1.2l-.21-1.29h-.08a2.91,2.91,0,0,1-1.24,1.09,4.18,4.18,0,0,1-1.81.38,3.68,3.68,0,0,1-2.63-.83,3.55,3.55,0,0,1-.87-2.67v-6.3Z"/><path class="cls-4" d="M35.51,296v-6.23A2.51,2.51,0,0,0,35,288a2.18,2.18,0,0,0-1.68-.58,2.77,2.77,0,0,0-2.21.82,4.13,4.13,0,0,0-.7,2.7V296H28.92v-9.63h1.19l.24,1.32h.07a3,3,0,0,1,1.26-1.1,4.08,4.08,0,0,1,1.8-.39,3.66,3.66,0,0,1,2.62.84,3.57,3.57,0,0,1,.88,2.69V296Z"/><path class="cls-4" d="M52.25,296v-6.27a2.6,2.6,0,0,0-.49-1.73,1.9,1.9,0,0,0-1.53-.58,2.47,2.47,0,0,0-2,.78,3.72,3.72,0,0,0-.65,2.41V296H46.1v-6.27a2.6,2.6,0,0,0-.49-1.73,1.92,1.92,0,0,0-1.54-.58,2.38,2.38,0,0,0-2,.82,4.45,4.45,0,0,0-.64,2.69V296H40v-9.63h1.19l.24,1.32h.07a2.87,2.87,0,0,1,1.16-1.1,3.56,3.56,0,0,1,1.68-.4,2.86,2.86,0,0,1,3,1.63h.07a3.07,3.07,0,0,1,1.25-1.2,3.87,3.87,0,0,1,1.86-.44,3.26,3.26,0,0,1,2.45.84,3.76,3.76,0,0,1,.81,2.69V296Z"/><path class="cls-4" d="M65,291.18a5.31,5.31,0,0,1-1.19,3.68,4.18,4.18,0,0,1-3.28,1.32,4.34,4.34,0,0,1-2.29-.61,4,4,0,0,1-1.55-1.74,6.06,6.06,0,0,1-.54-2.65,5.31,5.31,0,0,1,1.18-3.67,4.17,4.17,0,0,1,3.27-1.31,4.08,4.08,0,0,1,3.21,1.35A5.29,5.29,0,0,1,65,291.18Zm-7.34,0a4.57,4.57,0,0,0,.74,2.81,2.93,2.93,0,0,0,4.35,0,4.55,4.55,0,0,0,.74-2.82,4.48,4.48,0,0,0-.74-2.79,2.61,2.61,0,0,0-2.19-1,2.57,2.57,0,0,0-2.16.94A4.53,4.53,0,0,0,57.69,291.18Zm.43-7.42a.83.83,0,0,1,.23-.66.82.82,0,0,1,.56-.2.87.87,0,0,1,.58.2.82.82,0,0,1,.24.66.79.79,0,0,1-.82.87.79.79,0,0,1-.56-.21A.85.85,0,0,1,58.12,283.76Zm3.35,0a.83.83,0,0,1,.23-.66.82.82,0,0,1,.56-.2.86.86,0,0,1,.57.2.82.82,0,0,1,.24.66.79.79,0,0,1-.81.87.79.79,0,0,1-.56-.21A.85.85,0,0,1,61.47,283.76Z"/><path class="cls-4" d="M75.47,286.37v.92l-1.78.21a3.13,3.13,0,0,1,.63,1.92,2.85,2.85,0,0,1-1,2.26,3.9,3.9,0,0,1-2.65.84,4.42,4.42,0,0,1-.81-.07A1.43,1.43,0,0,0,69,293.7a.63.63,0,0,0,.33.58,2.38,2.38,0,0,0,1.12.19H72.1a3.82,3.82,0,0,1,2.4.66,2.29,2.29,0,0,1,.84,1.92,2.73,2.73,0,0,1-1.28,2.44,6.87,6.87,0,0,1-3.74.84,5.12,5.12,0,0,1-2.91-.7,2.27,2.27,0,0,1-1-2,2.23,2.23,0,0,1,.56-1.52,2.87,2.87,0,0,1,1.58-.87,1.52,1.52,0,0,1-.62-.52,1.38,1.38,0,0,1-.25-.82,1.55,1.55,0,0,1,.28-.92,3,3,0,0,1,.89-.77,2.6,2.6,0,0,1-1.22-1,3.07,3.07,0,0,1-.47-1.69,3.12,3.12,0,0,1,.95-2.44,3.88,3.88,0,0,1,2.69-.86,4.89,4.89,0,0,1,1.36.18Zm-7.68,11.25a1.31,1.31,0,0,0,.66,1.19,3.64,3.64,0,0,0,1.89.4,5.27,5.27,0,0,0,2.72-.55,1.68,1.68,0,0,0,.88-1.49,1.18,1.18,0,0,0-.48-1.09,3.76,3.76,0,0,0-1.82-.3H69.89a2.3,2.3,0,0,0-1.55.47A1.69,1.69,0,0,0,67.78,297.62Zm.79-8.16a2,2,0,0,0,.57,1.53,2.28,2.28,0,0,0,1.59.52,1.86,1.86,0,0,0,2.14-2.07,1.91,1.91,0,0,0-2.16-2.17,2.14,2.14,0,0,0-1.58.55A2.23,2.23,0,0,0,68.58,289.45Z"/><path class="cls-4" d="M78.9,296H77.44V282.32H78.9Z"/><path class="cls-4" d="M81.87,283.76a1,1,0,0,1,.25-.73.91.91,0,0,1,1.22,0,1,1,0,0,1,.25.73,1,1,0,0,1-.25.73.89.89,0,0,1-1.22,0A1,1,0,0,1,81.87,283.76ZM83.46,296H82v-9.63h1.46Z"/><path class="cls-4" d="M90.4,296.18a4.11,4.11,0,0,1-3.24-1.29A5.29,5.29,0,0,1,86,291.25a5.46,5.46,0,0,1,1.16-3.74,4.19,4.19,0,0,1,3.32-1.32,6.59,6.59,0,0,1,1.39.15,4.57,4.57,0,0,1,1.09.35l-.45,1.24a6.86,6.86,0,0,0-1.05-.32,4.71,4.71,0,0,0-1-.13q-2.94,0-2.94,3.74a4.46,4.46,0,0,0,.72,2.72,2.49,2.49,0,0,0,2.12.95,6.49,6.49,0,0,0,2.47-.52v1.29A5.26,5.26,0,0,1,90.4,296.18Z"/><path class="cls-4" d="M101.71,296v-6.23a2.51,2.51,0,0,0-.54-1.76,2.18,2.18,0,0,0-1.68-.58,2.75,2.75,0,0,0-2.22.83,4.18,4.18,0,0,0-.7,2.71v5H95.12V282.32h1.46v4.14a9,9,0,0,1-.07,1.24h.09a3,3,0,0,1,1.23-1.09,4,4,0,0,1,1.81-.4,3.72,3.72,0,0,1,2.65.84,3.54,3.54,0,0,1,.88,2.67V296Z"/><path class="cls-4" d="M110.24,296.18a4.43,4.43,0,0,1-3.37-1.3,5,5,0,0,1-1.23-3.61,5.59,5.59,0,0,1,1.15-3.7,3.81,3.81,0,0,1,3.08-1.37,3.63,3.63,0,0,1,2.87,1.19,4.57,4.57,0,0,1,1.05,3.14v.92h-6.64A3.82,3.82,0,0,0,108,294a3,3,0,0,0,2.29.88,7.76,7.76,0,0,0,3.08-.65v1.3a7.72,7.72,0,0,1-1.46.48A8.23,8.23,0,0,1,110.24,296.18Zm-.4-8.76a2.38,2.38,0,0,0-1.85.76,3.48,3.48,0,0,0-.81,2.09h5a3.21,3.21,0,0,0-.62-2.11A2.17,2.17,0,0,0,109.84,287.41Z"/><path class="cls-4" d="M122.86,296v-6.23a2.51,2.51,0,0,0-.54-1.76,2.18,2.18,0,0,0-1.68-.58,2.77,2.77,0,0,0-2.21.82,4.13,4.13,0,0,0-.7,2.7V296h-1.46v-9.63h1.19l.24,1.32h.07a3,3,0,0,1,1.26-1.1,4.08,4.08,0,0,1,1.8-.39,3.66,3.66,0,0,1,2.62.84,3.57,3.57,0,0,1,.88,2.69V296Z"/><path class="cls-4" d="M140,296h-8.83v-1.17L138,284.5h-6.61v-1.35h8.43v1.17L133,294.65h7Z"/><path class="cls-4" d="M143.63,286.37v6.25a2.51,2.51,0,0,0,.54,1.76,2.18,2.18,0,0,0,1.68.58,2.74,2.74,0,0,0,2.21-.83,4.17,4.17,0,0,0,.7-2.7v-5.06h1.46V296H149l-.21-1.29h-.08a2.91,2.91,0,0,1-1.24,1.09,4.18,4.18,0,0,1-1.81.38,3.68,3.68,0,0,1-2.63-.83,3.55,3.55,0,0,1-.87-2.67v-6.3Z"/><path class="cls-4" d="M156.42,295a4.77,4.77,0,0,0,.75-.06,4.85,4.85,0,0,0,.57-.12v1.12a2.66,2.66,0,0,1-.7.19,5.24,5.24,0,0,1-.83.07q-2.79,0-2.79-2.94V287.5H152v-.7l1.38-.61.62-2.06h.84v2.23h2.79v1.13h-2.79v5.67a2,2,0,0,0,.41,1.34A1.44,1.44,0,0,0,156.42,295Z"/><path class="cls-4" d="M165.59,296l-.29-1.37h-.07a4.05,4.05,0,0,1-1.44,1.23,4.38,4.38,0,0,1-1.79.32,3.22,3.22,0,0,1-2.25-.74,2.69,2.69,0,0,1-.81-2.1q0-2.92,4.67-3.06l1.63-.05v-.6a2.44,2.44,0,0,0-.49-1.67,2,2,0,0,0-1.56-.54,6.36,6.36,0,0,0-2.73.74L160,287a6.85,6.85,0,0,1,1.56-.61,6.76,6.76,0,0,1,1.7-.22,3.67,3.67,0,0,1,2.55.77,3.19,3.19,0,0,1,.83,2.45V296Zm-3.3-1a3,3,0,0,0,2.14-.75,2.76,2.76,0,0,0,.78-2.09v-.87l-1.46.06a5.3,5.3,0,0,0-2.51.54,1.63,1.63,0,0,0-.77,1.49,1.5,1.5,0,0,0,.48,1.2A2,2,0,0,0,162.29,295Z"/><path class="cls-4" d="M172.79,295a4.78,4.78,0,0,0,.75-.06,4.83,4.83,0,0,0,.57-.12v1.12a2.66,2.66,0,0,1-.7.19,5.25,5.25,0,0,1-.83.07q-2.79,0-2.79-2.94V287.5H168.4v-.7l1.38-.61.62-2.06h.84v2.23H174v1.13h-2.79v5.67a2,2,0,0,0,.41,1.34A1.44,1.44,0,0,0,172.79,295Z"/><path class="cls-4" d="M180.1,296.18a4.42,4.42,0,0,1-3.37-1.3,5,5,0,0,1-1.24-3.61,5.59,5.59,0,0,1,1.15-3.7,3.81,3.81,0,0,1,3.08-1.37,3.63,3.63,0,0,1,2.87,1.19,4.57,4.57,0,0,1,1.05,3.14v.92H177a3.82,3.82,0,0,0,.86,2.58,3,3,0,0,0,2.29.88,7.76,7.76,0,0,0,3.08-.65v1.3a7.71,7.71,0,0,1-1.46.48A8.23,8.23,0,0,1,180.1,296.18Zm-.39-8.76a2.38,2.38,0,0,0-1.85.76,3.48,3.48,0,0,0-.81,2.09h5a3.21,3.21,0,0,0-.62-2.11A2.17,2.17,0,0,0,179.71,287.41Z"/><path class="cls-4" d="M192.72,296v-6.23a2.51,2.51,0,0,0-.54-1.76,2.19,2.19,0,0,0-1.68-.58,2.77,2.77,0,0,0-2.21.82,4.13,4.13,0,0,0-.7,2.7V296h-1.46v-9.63h1.19l.24,1.32h.07a3,3,0,0,1,1.26-1.1,4.08,4.08,0,0,1,1.8-.39,3.66,3.66,0,0,1,2.62.84,3.57,3.57,0,0,1,.88,2.69V296Z"/><path class="cls-4" d="M203.22,286.37v6.25a2.51,2.51,0,0,0,.54,1.76,2.19,2.19,0,0,0,1.68.58,2.74,2.74,0,0,0,2.21-.83,4.17,4.17,0,0,0,.7-2.7v-5.06h1.46V296h-1.2l-.21-1.29h-.08a2.91,2.91,0,0,1-1.24,1.09,4.18,4.18,0,0,1-1.82.38,3.68,3.68,0,0,1-2.63-.83,3.55,3.55,0,0,1-.87-2.67v-6.3Z"/><path class="cls-4" d="M219.49,296v-6.23A2.51,2.51,0,0,0,219,288a2.19,2.19,0,0,0-1.68-.58,2.77,2.77,0,0,0-2.21.82,4.13,4.13,0,0,0-.7,2.7V296H212.9v-9.63h1.19l.24,1.32h.07a3,3,0,0,1,1.26-1.1,4.08,4.08,0,0,1,1.8-.39,3.66,3.66,0,0,1,2.62.84,3.57,3.57,0,0,1,.88,2.69V296Z"/><path class="cls-4" d="M230.51,294.71h-.08a3.43,3.43,0,0,1-3,1.47,3.57,3.57,0,0,1-2.94-1.29,5.69,5.69,0,0,1-1.05-3.67,5.79,5.79,0,0,1,1.05-3.7,3.55,3.55,0,0,1,2.94-1.32,3.5,3.5,0,0,1,3,1.42h.12l-.06-.69,0-.68v-3.92h1.46V296H230.7Zm-2.92.25a2.66,2.66,0,0,0,2.17-.81,4.11,4.11,0,0,0,.67-2.62v-.31a4.84,4.84,0,0,0-.68-2.92,2.59,2.59,0,0,0-2.17-.87,2.23,2.23,0,0,0-2,1,5,5,0,0,0-.68,2.82,4.75,4.75,0,0,0,.68,2.79A2.29,2.29,0,0,0,227.59,295Z"/><path class="cls-4" d="M17.75,305.36a1,1,0,0,1,.25-.73.91.91,0,0,1,1.22,0,1,1,0,0,1,.25.73,1,1,0,0,1-.25.73.85.85,0,0,1-.61.24.85.85,0,0,1-.62-.24A1,1,0,0,1,17.75,305.36Zm1.58,12.24H17.87V308h1.46Z"/><path class="cls-4" d="M29,317.6v-6.23a2.51,2.51,0,0,0-.54-1.76A2.18,2.18,0,0,0,26.8,309a2.77,2.77,0,0,0-2.21.82,4.13,4.13,0,0,0-.7,2.7v5.05H22.42V308h1.19l.24,1.32h.07a3,3,0,0,1,1.26-1.1,4.07,4.07,0,0,1,1.8-.39,3.66,3.66,0,0,1,2.62.84,3.57,3.57,0,0,1,.88,2.69v6.28Z"/><path class="cls-4" d="M39.69,315a2.41,2.41,0,0,1-1,2.07,4.71,4.71,0,0,1-2.81.73,6.12,6.12,0,0,1-3-.61v-1.35a7.23,7.23,0,0,0,1.49.55,6.22,6.22,0,0,0,1.53.2,3.47,3.47,0,0,0,1.76-.37,1.26,1.26,0,0,0,.13-2.07,7.71,7.71,0,0,0-1.9-.94,10.39,10.39,0,0,1-1.91-.87,2.62,2.62,0,0,1-.84-.85,2.21,2.21,0,0,1-.28-1.13,2.16,2.16,0,0,1,1-1.86,4.47,4.47,0,0,1,2.63-.68,7.69,7.69,0,0,1,3,.63L39,309.61a7,7,0,0,0-2.63-.6,3,3,0,0,0-1.56.33,1,1,0,0,0-.53.9,1.09,1.09,0,0,0,.2.66,2,2,0,0,0,.64.52,14.24,14.24,0,0,0,1.69.71,6.3,6.3,0,0,1,2.32,1.26A2.22,2.22,0,0,1,39.69,315Z"/><path class="cls-4" d="M46.54,317.78a4.18,4.18,0,0,1-1.72-.35,3.24,3.24,0,0,1-1.31-1.07h-.11a12.92,12.92,0,0,1,.11,1.6v4H42.06V308h1.19l.2,1.32h.07a3.39,3.39,0,0,1,1.31-1.14,4,4,0,0,1,1.71-.35,3.56,3.56,0,0,1,3,1.31,7,7,0,0,1,0,7.36A3.57,3.57,0,0,1,46.54,317.78ZM46.33,309a2.59,2.59,0,0,0-2.14.82,4.21,4.21,0,0,0-.68,2.6v.33a4.82,4.82,0,0,0,.68,2.9,2.57,2.57,0,0,0,2.17.88,2.26,2.26,0,0,0,2-1,4.79,4.79,0,0,0,.71-2.79,4.61,4.61,0,0,0-.71-2.76A2.33,2.33,0,0,0,46.33,309Z"/><path class="cls-4" d="M53,305.36a1,1,0,0,1,.25-.73.91.91,0,0,1,1.22,0,1,1,0,0,1,.25.73,1,1,0,0,1-.25.73.85.85,0,0,1-.61.24.85.85,0,0,1-.62-.24A1,1,0,0,1,53,305.36Zm1.58,12.24H53.09V308h1.46Z"/><path class="cls-4" d="M62,307.79a5.71,5.71,0,0,1,1.15.11l-.2,1.35a5,5,0,0,0-1.05-.13,2.57,2.57,0,0,0-2,.95,3.46,3.46,0,0,0-.83,2.36v5.17H57.64V308h1.2l.17,1.78h.07a4.23,4.23,0,0,1,1.29-1.45A2.91,2.91,0,0,1,62,307.79Z"/><path class="cls-4" d="M64.87,305.36a1,1,0,0,1,.25-.73.91.91,0,0,1,1.22,0,1,1,0,0,1,.25.73,1,1,0,0,1-.25.73.85.85,0,0,1-.61.24.85.85,0,0,1-.62-.24A1,1,0,0,1,64.87,305.36Zm1.58,12.24H65V308h1.46Z"/><path class="cls-4" d="M73.61,317.78a4.43,4.43,0,0,1-3.37-1.3A5,5,0,0,1,69,312.86a5.58,5.58,0,0,1,1.15-3.7,3.81,3.81,0,0,1,3.08-1.37A3.64,3.64,0,0,1,76.1,309a4.57,4.57,0,0,1,1.05,3.14V313H70.52a3.82,3.82,0,0,0,.86,2.58,3,3,0,0,0,2.29.88,7.76,7.76,0,0,0,3.08-.65v1.3a7.65,7.65,0,0,1-1.46.48A8.15,8.15,0,0,1,73.61,317.78Zm-.4-8.76a2.38,2.38,0,0,0-1.85.76,3.48,3.48,0,0,0-.81,2.09h5a3.2,3.2,0,0,0-.62-2.11A2.16,2.16,0,0,0,73.22,309Z"/><path class="cls-4" d="M84,307.79a5.71,5.71,0,0,1,1.15.11l-.2,1.35a5,5,0,0,0-1.05-.13,2.57,2.57,0,0,0-2,.95,3.46,3.46,0,0,0-.83,2.36v5.17H79.64V308h1.2l.17,1.78h.07a4.23,4.23,0,0,1,1.29-1.45A2.91,2.91,0,0,1,84,307.79Z"/><path class="cls-4" d="M91.06,317.78a4.43,4.43,0,0,1-3.37-1.3,5,5,0,0,1-1.23-3.61,5.58,5.58,0,0,1,1.15-3.7,3.81,3.81,0,0,1,3.08-1.37A3.64,3.64,0,0,1,93.55,309a4.57,4.57,0,0,1,1.05,3.14V313H88a3.82,3.82,0,0,0,.86,2.58,3,3,0,0,0,2.29.88,7.76,7.76,0,0,0,3.08-.65v1.3a7.65,7.65,0,0,1-1.46.48A8.15,8.15,0,0,1,91.06,317.78Zm-.4-8.76a2.38,2.38,0,0,0-1.85.76,3.48,3.48,0,0,0-.81,2.09h5a3.2,3.2,0,0,0-.62-2.11A2.16,2.16,0,0,0,90.66,309Z"/><path class="cls-4" d="M108.32,316.31h-.08a3.43,3.43,0,0,1-3,1.47,3.58,3.58,0,0,1-2.94-1.29,5.69,5.69,0,0,1-1.05-3.67,5.78,5.78,0,0,1,1.05-3.7,3.55,3.55,0,0,1,2.94-1.32,3.5,3.5,0,0,1,3,1.42h.11l-.06-.69,0-.68v-3.92h1.46V317.6h-1.19Zm-2.92.25a2.66,2.66,0,0,0,2.17-.81,4.11,4.11,0,0,0,.67-2.62v-.31a4.83,4.83,0,0,0-.68-2.92,2.58,2.58,0,0,0-2.18-.87,2.23,2.23,0,0,0-2,1,5,5,0,0,0-.68,2.82,4.76,4.76,0,0,0,.68,2.79A2.29,2.29,0,0,0,105.4,316.55Z"/><path class="cls-4" d="M112.67,305.36a1,1,0,0,1,.25-.73.91.91,0,0,1,1.22,0,1,1,0,0,1,.25.73,1,1,0,0,1-.25.73.85.85,0,0,1-.61.24.85.85,0,0,1-.62-.24A1,1,0,0,1,112.67,305.36Zm1.58,12.24h-1.46V308h1.46Z"/><path class="cls-4" d="M121.42,317.78a4.43,4.43,0,0,1-3.37-1.3,5,5,0,0,1-1.23-3.61,5.58,5.58,0,0,1,1.15-3.7,3.81,3.81,0,0,1,3.08-1.37A3.64,3.64,0,0,1,123.9,309a4.57,4.57,0,0,1,1.05,3.14V313h-6.64a3.82,3.82,0,0,0,.86,2.58,3,3,0,0,0,2.29.88,7.76,7.76,0,0,0,3.08-.65v1.3a7.65,7.65,0,0,1-1.46.48A8.15,8.15,0,0,1,121.42,317.78ZM121,309a2.38,2.38,0,0,0-1.85.76,3.48,3.48,0,0,0-.81,2.09h5a3.2,3.2,0,0,0-.62-2.11A2.16,2.16,0,0,0,121,309Z"/><path class="cls-4" d="M137.84,305.9a4.2,4.2,0,0,0-3.34,1.41,5.69,5.69,0,0,0-1.23,3.86,5.81,5.81,0,0,0,1.18,3.9,4.2,4.2,0,0,0,3.37,1.38,11.51,11.51,0,0,0,3.07-.48v1.31a9.45,9.45,0,0,1-3.3.5,5.58,5.58,0,0,1-4.38-1.72,7.09,7.09,0,0,1-1.54-4.9,7.73,7.73,0,0,1,.74-3.48,5.33,5.33,0,0,1,2.14-2.3,6.49,6.49,0,0,1,3.3-.81,8,8,0,0,1,3.53.74l-.63,1.28A6.81,6.81,0,0,0,137.84,305.9Z"/><path class="cls-4" d="M151.79,312.78a5.31,5.31,0,0,1-1.19,3.68,4.18,4.18,0,0,1-3.28,1.32,4.34,4.34,0,0,1-2.29-.61,4,4,0,0,1-1.55-1.74,6.06,6.06,0,0,1-.54-2.65,5.31,5.31,0,0,1,1.18-3.67,4.17,4.17,0,0,1,3.27-1.31,4.08,4.08,0,0,1,3.21,1.34A5.29,5.29,0,0,1,151.79,312.78Zm-7.34,0a4.57,4.57,0,0,0,.74,2.81,2.93,2.93,0,0,0,4.35,0,4.55,4.55,0,0,0,.74-2.82,4.48,4.48,0,0,0-.74-2.79,2.61,2.61,0,0,0-2.19-1,2.57,2.57,0,0,0-2.16.94A4.53,4.53,0,0,0,144.45,312.78Z"/><path class="cls-4" d="M166.63,317.6v-6.27a2.6,2.6,0,0,0-.49-1.73,1.9,1.9,0,0,0-1.53-.58,2.47,2.47,0,0,0-2,.78,3.72,3.72,0,0,0-.65,2.41v5.38h-1.46v-6.27a2.6,2.6,0,0,0-.49-1.73,1.91,1.91,0,0,0-1.54-.58,2.38,2.38,0,0,0-2,.82,4.44,4.44,0,0,0-.64,2.69v5.05h-1.46V308h1.19l.24,1.32h.07a2.87,2.87,0,0,1,1.16-1.1,3.56,3.56,0,0,1,1.68-.4,2.86,2.86,0,0,1,3,1.63h.07a3.07,3.07,0,0,1,1.25-1.2,3.87,3.87,0,0,1,1.86-.44,3.27,3.27,0,0,1,2.45.84,3.76,3.76,0,0,1,.81,2.69v6.28Z"/><path class="cls-4" d="M183.37,317.6v-6.27a2.6,2.6,0,0,0-.49-1.73,1.9,1.9,0,0,0-1.53-.58,2.47,2.47,0,0,0-2,.78,3.72,3.72,0,0,0-.65,2.41v5.38h-1.46v-6.27a2.6,2.6,0,0,0-.49-1.73,1.91,1.91,0,0,0-1.54-.58,2.38,2.38,0,0,0-2,.82,4.44,4.44,0,0,0-.64,2.69v5.05h-1.46V308h1.19l.24,1.32h.07a2.87,2.87,0,0,1,1.16-1.1,3.56,3.56,0,0,1,1.68-.4,2.86,2.86,0,0,1,3,1.63h.07a3.07,3.07,0,0,1,1.25-1.2,3.87,3.87,0,0,1,1.86-.44,3.26,3.26,0,0,1,2.45.84,3.76,3.76,0,0,1,.81,2.69v6.28Z"/><path class="cls-4" d="M189.21,308v6.25a2.51,2.51,0,0,0,.54,1.76,2.18,2.18,0,0,0,1.68.58,2.74,2.74,0,0,0,2.21-.83,4.17,4.17,0,0,0,.7-2.7V308h1.46v9.63h-1.21l-.21-1.29h-.08a2.91,2.91,0,0,1-1.24,1.09,4.18,4.18,0,0,1-1.81.38,3.68,3.68,0,0,1-2.63-.83,3.55,3.55,0,0,1-.87-2.67V308Z"/><path class="cls-4" d="M205.47,317.6v-6.23a2.51,2.51,0,0,0-.54-1.76,2.18,2.18,0,0,0-1.68-.58,2.77,2.77,0,0,0-2.21.82,4.13,4.13,0,0,0-.7,2.7v5.05h-1.46V308h1.19l.24,1.32h.07a3,3,0,0,1,1.26-1.1,4.07,4.07,0,0,1,1.8-.39,3.66,3.66,0,0,1,2.62.84,3.57,3.57,0,0,1,.88,2.69v6.28Z"/><path class="cls-4" d="M209.81,305.36a1,1,0,0,1,.25-.73.91.91,0,0,1,1.22,0,1,1,0,0,1,.25.73,1,1,0,0,1-.25.73.86.86,0,0,1-.61.24.85.85,0,0,1-.62-.24A1,1,0,0,1,209.81,305.36Zm1.58,12.24h-1.46V308h1.46Z"/><path class="cls-4" d="M217.59,316.57a4.9,4.9,0,0,0,.75-.06,5,5,0,0,0,.57-.12v1.12a2.63,2.63,0,0,1-.7.19,5.14,5.14,0,0,1-.83.08q-2.79,0-2.79-2.94V309.1h-1.38v-.7l1.38-.61.62-2.06H216V308h2.79v1.13H216v5.67a2,2,0,0,0,.41,1.34A1.44,1.44,0,0,0,217.59,316.57Z"/><path class="cls-4" d="M219.31,308h1.56l2.11,5.49a20.89,20.89,0,0,1,.86,2.72h.07q.11-.45.48-1.53t2.39-6.67h1.56l-4.14,11a5.48,5.48,0,0,1-1.44,2.31,3.06,3.06,0,0,1-2,.68,5.87,5.87,0,0,1-1.32-.15v-1.17a5.08,5.08,0,0,0,1.08.11,2.23,2.23,0,0,0,2.14-1.69l.54-1.37Z"/><path class="cls-4" d="M229.7,316.67a1.31,1.31,0,0,1,.27-.89,1,1,0,0,1,.77-.3,1,1,0,0,1,.79.3,1.25,1.25,0,0,1,.29.89,1.23,1.23,0,0,1-.29.88,1.15,1.15,0,0,1-1.53,0A1.2,1.2,0,0,1,229.7,316.67Z"/><path class="cls-4" d="M25.34,438a3.15,3.15,0,0,1-1.23,2.65,5.34,5.34,0,0,1-3.34.95,8.37,8.37,0,0,1-3.52-.59v-1.44a9.26,9.26,0,0,0,1.72.53,9.06,9.06,0,0,0,1.85.19,3.72,3.72,0,0,0,2.25-.57,1.86,1.86,0,0,0,.76-1.58,2,2,0,0,0-.27-1.09,2.5,2.5,0,0,0-.9-.79,12.54,12.54,0,0,0-1.91-.82,6.1,6.1,0,0,1-2.56-1.52,3.36,3.36,0,0,1-.77-2.29,2.85,2.85,0,0,1,1.12-2.36,4.64,4.64,0,0,1,3-.88,8.7,8.7,0,0,1,3.52.7l-.47,1.3a8,8,0,0,0-3.09-.67,3,3,0,0,0-1.85.51,1.68,1.68,0,0,0-.67,1.42,2.16,2.16,0,0,0,.25,1.09,2.32,2.32,0,0,0,.83.78,10.4,10.4,0,0,0,1.79.79,7.08,7.08,0,0,1,2.78,1.55A3,3,0,0,1,25.34,438Z"/><path class="cls-4" d="M30.86,440.37a5.25,5.25,0,0,0,1.32-.18v1.12a2.7,2.7,0,0,1-.7.19,5.36,5.36,0,0,1-.83.07q-2.79,0-2.79-2.94V432.9H26.48v-.7l1.38-.61.62-2.06h.84v2.23h2.79v1.13H29.31v5.67a2,2,0,0,0,.41,1.34A1.44,1.44,0,0,0,30.86,440.37Z"/><path class="cls-4" d="M38.17,441.58a4.43,4.43,0,0,1-3.37-1.3,5,5,0,0,1-1.23-3.61,5.58,5.58,0,0,1,1.15-3.7,3.81,3.81,0,0,1,3.08-1.37,3.63,3.63,0,0,1,2.87,1.19,4.56,4.56,0,0,1,1.05,3.14v.92H35.08a3.82,3.82,0,0,0,.86,2.58,3,3,0,0,0,2.29.88,7.76,7.76,0,0,0,3.08-.65V441a7.79,7.79,0,0,1-1.46.48A8.3,8.3,0,0,1,38.17,441.58Zm-.4-8.76a2.38,2.38,0,0,0-1.85.76,3.48,3.48,0,0,0-.81,2.09h5a3.21,3.21,0,0,0-.62-2.11A2.17,2.17,0,0,0,37.78,432.81Z"/><path class="cls-4" d="M45.66,441.4H44.2V427.72h1.46Z"/><path class="cls-4" d="M50.22,441.4H48.76V427.72h1.46Z"/><path class="cls-4" d="M57.38,441.58a4.43,4.43,0,0,1-3.37-1.3,5,5,0,0,1-1.23-3.61,5.58,5.58,0,0,1,1.15-3.7A3.81,3.81,0,0,1,57,431.59a3.63,3.63,0,0,1,2.87,1.19,4.56,4.56,0,0,1,1.05,3.14v.92H54.28a3.82,3.82,0,0,0,.86,2.58,3,3,0,0,0,2.29.88,7.76,7.76,0,0,0,3.08-.65V441a7.79,7.79,0,0,1-1.46.48A8.3,8.3,0,0,1,57.38,441.58Zm-.4-8.76a2.38,2.38,0,0,0-1.85.76,3.48,3.48,0,0,0-.81,2.09h5a3.21,3.21,0,0,0-.62-2.11A2.17,2.17,0,0,0,57,432.81Z"/><path class="cls-4" d="M74.64,440.11h-.08a3.43,3.43,0,0,1-3,1.47,3.58,3.58,0,0,1-2.94-1.29,5.69,5.69,0,0,1-1.05-3.67,5.78,5.78,0,0,1,1.05-3.7,3.55,3.55,0,0,1,2.94-1.32,3.5,3.5,0,0,1,3,1.42h.11l-.06-.69,0-.68v-3.92H76V441.4H74.83Zm-2.92.25a2.65,2.65,0,0,0,2.17-.81,4.1,4.1,0,0,0,.67-2.62v-.31a4.84,4.84,0,0,0-.68-2.92,2.59,2.59,0,0,0-2.18-.87,2.23,2.23,0,0,0-2,1,5,5,0,0,0-.68,2.82,4.76,4.76,0,0,0,.68,2.79A2.29,2.29,0,0,0,71.72,440.35Z"/><path class="cls-4" d="M79,429.16a1,1,0,0,1,.25-.73.91.91,0,0,1,1.22,0,1,1,0,0,1,.25.73,1,1,0,0,1-.25.73.89.89,0,0,1-1.22,0A1,1,0,0,1,79,429.16Zm1.58,12.24H79.11v-9.63h1.46Z"/><path class="cls-4" d="M87.52,441.58a4.11,4.11,0,0,1-3.24-1.29,5.3,5.3,0,0,1-1.15-3.64,5.46,5.46,0,0,1,1.16-3.74,4.19,4.19,0,0,1,3.32-1.32,6.58,6.58,0,0,1,1.39.15,4.57,4.57,0,0,1,1.09.35l-.45,1.24a6.75,6.75,0,0,0-1.05-.32,4.65,4.65,0,0,0-1-.13q-2.94,0-2.94,3.74a4.46,4.46,0,0,0,.72,2.72,2.49,2.49,0,0,0,2.12.95,6.49,6.49,0,0,0,2.47-.52v1.29A5.26,5.26,0,0,1,87.52,441.58Z"/><path class="cls-4" d="M98.83,441.4v-6.23a2.51,2.51,0,0,0-.54-1.76,2.18,2.18,0,0,0-1.68-.58,2.75,2.75,0,0,0-2.22.83,4.18,4.18,0,0,0-.7,2.71v5H92.24V427.72h1.46v4.14a9,9,0,0,1-.07,1.24h.09A3,3,0,0,1,94.94,432a4,4,0,0,1,1.81-.4,3.71,3.71,0,0,1,2.65.84,3.53,3.53,0,0,1,.88,2.67v6.28Z"/><path class="cls-4" d="M114.52,440.11h-.08a3.43,3.43,0,0,1-3,1.47,3.58,3.58,0,0,1-2.94-1.29,5.69,5.69,0,0,1-1.05-3.67,5.78,5.78,0,0,1,1.05-3.7,3.55,3.55,0,0,1,2.94-1.32,3.5,3.5,0,0,1,3,1.42h.11l-.06-.69,0-.68v-3.92h1.46V441.4h-1.19Zm-2.92.25a2.65,2.65,0,0,0,2.17-.81,4.1,4.1,0,0,0,.67-2.62v-.31a4.84,4.84,0,0,0-.68-2.92,2.59,2.59,0,0,0-2.18-.87,2.23,2.23,0,0,0-2,1,5,5,0,0,0-.68,2.82,4.76,4.76,0,0,0,.68,2.79A2.29,2.29,0,0,0,111.6,440.35Z"/><path class="cls-4" d="M123.06,441.58a4.43,4.43,0,0,1-3.37-1.3,5,5,0,0,1-1.23-3.61,5.58,5.58,0,0,1,1.15-3.7,3.81,3.81,0,0,1,3.08-1.37,3.63,3.63,0,0,1,2.87,1.19,4.56,4.56,0,0,1,1.05,3.14v.92H120a3.82,3.82,0,0,0,.86,2.58,3,3,0,0,0,2.29.88,7.76,7.76,0,0,0,3.08-.65V441a7.79,7.79,0,0,1-1.46.48A8.3,8.3,0,0,1,123.06,441.58Zm-.4-8.76a2.38,2.38,0,0,0-1.85.76,3.48,3.48,0,0,0-.81,2.09h5a3.21,3.21,0,0,0-.62-2.11A2.17,2.17,0,0,0,122.66,432.81Z"/><path class="cls-4" d="M133.48,431.59a5.71,5.71,0,0,1,1.15.11l-.2,1.35a5,5,0,0,0-1.05-.13,2.57,2.57,0,0,0-2,.95,3.46,3.46,0,0,0-.83,2.36v5.17h-1.46v-9.63h1.2l.17,1.78h.07a4.23,4.23,0,0,1,1.29-1.45A2.91,2.91,0,0,1,133.48,431.59Z"/><path class="cls-4" d="M149,441.4l-1.77-5.65q-.17-.52-.62-2.36h-.07q-.35,1.54-.62,2.37l-1.82,5.63H142.4l-2.63-9.63h1.53l1.42,5.53a22.4,22.4,0,0,1,.56,2.56h.07q.1-.5.31-1.3t.37-1.26l1.77-5.53h1.58l1.72,5.53a18.66,18.66,0,0,1,.67,2.54h.07a9.32,9.32,0,0,1,.19-1q.15-.66,1.83-7.09h1.51l-2.66,9.63Z"/><path class="cls-4" d="M163.43,436.58a5.32,5.32,0,0,1-1.19,3.68,4.18,4.18,0,0,1-3.28,1.32,4.34,4.34,0,0,1-2.29-.61,4,4,0,0,1-1.55-1.74,6.06,6.06,0,0,1-.54-2.65,5.3,5.3,0,0,1,1.18-3.67,4.16,4.16,0,0,1,3.27-1.31,4.08,4.08,0,0,1,3.21,1.34A5.29,5.29,0,0,1,163.43,436.58Zm-7.34,0a4.57,4.57,0,0,0,.74,2.81,2.93,2.93,0,0,0,4.35,0,4.55,4.55,0,0,0,.74-2.82,4.47,4.47,0,0,0-.74-2.79,2.61,2.61,0,0,0-2.19-1,2.57,2.57,0,0,0-2.16.94A4.53,4.53,0,0,0,156.09,436.58Zm.43-7.42a.76.76,0,0,1,.79-.86.87.87,0,0,1,.58.2.81.81,0,0,1,.24.66.79.79,0,0,1-.82.87.8.8,0,0,1-.56-.21A.85.85,0,0,1,156.52,429.16Zm3.35,0a.76.76,0,0,1,.79-.86.86.86,0,0,1,.57.2.81.81,0,0,1,.24.66.79.79,0,0,1-.81.87.8.8,0,0,1-.56-.21A.85.85,0,0,1,159.87,429.16Z"/><path class="cls-4" d="M169.83,441.58a4.11,4.11,0,0,1-3.24-1.29,5.3,5.3,0,0,1-1.15-3.64,5.46,5.46,0,0,1,1.16-3.74,4.19,4.19,0,0,1,3.32-1.32,6.58,6.58,0,0,1,1.39.15,4.57,4.57,0,0,1,1.09.35l-.45,1.24a6.75,6.75,0,0,0-1.05-.32,4.64,4.64,0,0,0-1-.13q-2.94,0-2.94,3.74a4.46,4.46,0,0,0,.72,2.72,2.49,2.49,0,0,0,2.12.95,6.49,6.49,0,0,0,2.47-.52v1.29A5.27,5.27,0,0,1,169.83,441.58Z"/><path class="cls-4" d="M181.15,441.4v-6.23a2.51,2.51,0,0,0-.54-1.76,2.18,2.18,0,0,0-1.68-.58,2.75,2.75,0,0,0-2.22.83,4.18,4.18,0,0,0-.7,2.71v5h-1.46V427.72H176v4.14a9,9,0,0,1-.07,1.24H176a3,3,0,0,1,1.23-1.09,4,4,0,0,1,1.82-.4,3.71,3.71,0,0,1,2.65.84,3.53,3.53,0,0,1,.88,2.67v6.28Z"/><path class="cls-4" d="M189.67,441.58a4.43,4.43,0,0,1-3.37-1.3,5,5,0,0,1-1.23-3.61,5.58,5.58,0,0,1,1.15-3.7,3.81,3.81,0,0,1,3.08-1.37,3.63,3.63,0,0,1,2.87,1.19,4.56,4.56,0,0,1,1.05,3.14v.92h-6.63a3.82,3.82,0,0,0,.86,2.58,3,3,0,0,0,2.29.88,7.76,7.76,0,0,0,3.08-.65V441a7.8,7.8,0,0,1-1.46.48A8.29,8.29,0,0,1,189.67,441.58Zm-.4-8.76a2.38,2.38,0,0,0-1.85.76,3.48,3.48,0,0,0-.81,2.09h5a3.21,3.21,0,0,0-.62-2.11A2.17,2.17,0,0,0,189.28,432.81Z"/><path class="cls-4" d="M202.29,441.4v-6.23a2.51,2.51,0,0,0-.54-1.76,2.18,2.18,0,0,0-1.68-.58,2.77,2.77,0,0,0-2.21.82,4.13,4.13,0,0,0-.7,2.7v5.05H195.7v-9.63h1.19l.24,1.32h.07a3,3,0,0,1,1.26-1.1,4.1,4.1,0,0,1,1.8-.39,3.65,3.65,0,0,1,2.62.84,3.57,3.57,0,0,1,.88,2.68v6.28Z"/><path class="cls-4" d="M209.86,440.37a5.23,5.23,0,0,0,1.32-.18v1.12a2.7,2.7,0,0,1-.7.19,5.37,5.37,0,0,1-.83.07q-2.79,0-2.79-2.94V432.9h-1.38v-.7l1.38-.61.62-2.06h.84v2.23h2.79v1.13h-2.79v5.67a2,2,0,0,0,.41,1.34A1.44,1.44,0,0,0,209.86,440.37Z"/><path class="cls-4" d="M214.56,441.4H213.1V427.72h1.46Z"/><path class="cls-4" d="M217.53,429.16a1,1,0,0,1,.25-.73.91.91,0,0,1,1.22,0,1,1,0,0,1,.26.73,1,1,0,0,1-.26.73.89.89,0,0,1-1.22,0A1,1,0,0,1,217.53,429.16Zm1.58,12.24h-1.46v-9.63h1.46Z"/><path class="cls-4" d="M226.06,441.58a4.12,4.12,0,0,1-3.24-1.29,5.3,5.3,0,0,1-1.15-3.64,5.46,5.46,0,0,1,1.17-3.74,4.19,4.19,0,0,1,3.32-1.32,6.58,6.58,0,0,1,1.39.15,4.57,4.57,0,0,1,1.09.35l-.45,1.24a6.75,6.75,0,0,0-1.05-.32,4.66,4.66,0,0,0-1-.13q-2.94,0-2.94,3.74a4.46,4.46,0,0,0,.72,2.72,2.49,2.49,0,0,0,2.12.95,6.49,6.49,0,0,0,2.47-.52v1.29A5.26,5.26,0,0,1,226.06,441.58Z"/><path class="cls-4" d="M237.37,441.4v-6.23a2.51,2.51,0,0,0-.54-1.76,2.19,2.19,0,0,0-1.68-.58,2.75,2.75,0,0,0-2.22.83,4.18,4.18,0,0,0-.7,2.71v5h-1.46V427.72h1.46v4.14a9,9,0,0,1-.07,1.24h.09a3,3,0,0,1,1.23-1.09,4,4,0,0,1,1.81-.4,3.71,3.71,0,0,1,2.65.84,3.53,3.53,0,0,1,.88,2.67v6.28Z"/><path class="cls-4" d="M245.89,441.58a4.42,4.42,0,0,1-3.37-1.3,5,5,0,0,1-1.24-3.61,5.58,5.58,0,0,1,1.15-3.7,3.81,3.81,0,0,1,3.08-1.37,3.63,3.63,0,0,1,2.87,1.19,4.56,4.56,0,0,1,1.05,3.14v.92H242.8a3.82,3.82,0,0,0,.86,2.58,3,3,0,0,0,2.29.88,7.76,7.76,0,0,0,3.08-.65V441a7.79,7.79,0,0,1-1.46.48A8.3,8.3,0,0,1,245.89,441.58Zm-.39-8.76a2.38,2.38,0,0,0-1.85.76,3.48,3.48,0,0,0-.81,2.09h5a3.21,3.21,0,0,0-.62-2.11A2.17,2.17,0,0,0,245.5,432.81Z"/><path class="cls-4" d="M258.52,441.4v-6.23a2.51,2.51,0,0,0-.54-1.76,2.19,2.19,0,0,0-1.68-.58,2.77,2.77,0,0,0-2.21.82,4.13,4.13,0,0,0-.7,2.7v5.05h-1.46v-9.63h1.19l.24,1.32h.07a3,3,0,0,1,1.26-1.1,4.09,4.09,0,0,1,1.8-.39,3.65,3.65,0,0,1,2.62.84,3.57,3.57,0,0,1,.88,2.68v6.28Z"/><path class="cls-4" d="M23.59,451.3a4.2,4.2,0,0,0-3.34,1.41A5.69,5.69,0,0,0,19,456.58a5.8,5.8,0,0,0,1.18,3.9,4.2,4.2,0,0,0,3.37,1.38,11.51,11.51,0,0,0,3.07-.48v1.31a9.45,9.45,0,0,1-3.3.5A5.58,5.58,0,0,1,19,461.45a7.09,7.09,0,0,1-1.54-4.89,7.73,7.73,0,0,1,.74-3.48,5.33,5.33,0,0,1,2.14-2.3,6.49,6.49,0,0,1,3.3-.81,8,8,0,0,1,3.53.74L26.51,452A6.81,6.81,0,0,0,23.59,451.3Z"/><path class="cls-4" d="M35.82,463v-6.23a2.51,2.51,0,0,0-.54-1.76,2.18,2.18,0,0,0-1.68-.58,2.75,2.75,0,0,0-2.22.83,4.18,4.18,0,0,0-.7,2.71v5H29.23V449.32h1.46v4.14a9,9,0,0,1-.07,1.24h.09a3,3,0,0,1,1.23-1.09,4,4,0,0,1,1.81-.4,3.72,3.72,0,0,1,2.65.84,3.54,3.54,0,0,1,.88,2.67V463Z"/><path class="cls-4" d="M46.2,463l-.29-1.37h-.07a4.06,4.06,0,0,1-1.44,1.23,4.38,4.38,0,0,1-1.79.32,3.22,3.22,0,0,1-2.25-.74,2.69,2.69,0,0,1-.81-2.1q0-2.92,4.67-3.06l1.63-.05v-.6a2.44,2.44,0,0,0-.49-1.67,2,2,0,0,0-1.56-.54,6.36,6.36,0,0,0-2.72.74L40.64,454a6.85,6.85,0,0,1,1.56-.61,6.76,6.76,0,0,1,1.7-.22,3.67,3.67,0,0,1,2.55.77,3.19,3.19,0,0,1,.83,2.45V463Zm-3.3-1a3,3,0,0,0,2.14-.75,2.76,2.76,0,0,0,.78-2.09v-.87l-1.46.06a5.31,5.31,0,0,0-2.51.54,1.63,1.63,0,0,0-.77,1.49,1.5,1.5,0,0,0,.48,1.2A2,2,0,0,0,42.9,462Z"/><path class="cls-4" d="M51.74,463H50.29V449.32h1.46Z"/><path class="cls-4" d="M56.3,463H54.84V449.32H56.3Z"/><path class="cls-4" d="M63.46,463.18a4.43,4.43,0,0,1-3.37-1.3,5,5,0,0,1-1.23-3.61,5.59,5.59,0,0,1,1.15-3.7,3.81,3.81,0,0,1,3.08-1.37,3.63,3.63,0,0,1,2.87,1.19A4.57,4.57,0,0,1,67,457.53v.92H60.37a3.82,3.82,0,0,0,.86,2.58,3,3,0,0,0,2.29.88,7.76,7.76,0,0,0,3.08-.65v1.3a7.72,7.72,0,0,1-1.46.48A8.23,8.23,0,0,1,63.46,463.18Zm-.4-8.76a2.38,2.38,0,0,0-1.85.76,3.48,3.48,0,0,0-.81,2.09h5a3.21,3.21,0,0,0-.62-2.11A2.17,2.17,0,0,0,63.06,454.41Z"/><path class="cls-4" d="M76.08,463v-6.23a2.51,2.51,0,0,0-.54-1.76,2.18,2.18,0,0,0-1.68-.58,2.77,2.77,0,0,0-2.21.82,4.13,4.13,0,0,0-.7,2.7V463H69.49v-9.63h1.19l.24,1.32H71a3,3,0,0,1,1.26-1.1,4.08,4.08,0,0,1,1.8-.39,3.66,3.66,0,0,1,2.62.84,3.57,3.57,0,0,1,.88,2.69V463Z"/><path class="cls-4" d="M88.42,453.37v.92l-1.78.21a3.13,3.13,0,0,1,.63,1.92,2.85,2.85,0,0,1-1,2.26,3.9,3.9,0,0,1-2.65.84,4.42,4.42,0,0,1-.81-.07,1.43,1.43,0,0,0-.93,1.24.63.63,0,0,0,.33.58,2.38,2.38,0,0,0,1.12.19h1.71a3.82,3.82,0,0,1,2.4.66A2.29,2.29,0,0,1,88.3,464,2.73,2.73,0,0,1,87,466.49a6.87,6.87,0,0,1-3.74.84,5.12,5.12,0,0,1-2.91-.7,2.27,2.27,0,0,1-1-2,2.23,2.23,0,0,1,.56-1.52,2.87,2.87,0,0,1,1.58-.87,1.52,1.52,0,0,1-.62-.52,1.38,1.38,0,0,1-.25-.82,1.55,1.55,0,0,1,.28-.92,3,3,0,0,1,.89-.77,2.6,2.6,0,0,1-1.22-1,3.07,3.07,0,0,1-.47-1.69A3.12,3.12,0,0,1,81,454a3.88,3.88,0,0,1,2.69-.86,4.89,4.89,0,0,1,1.36.18Zm-7.68,11.25a1.31,1.31,0,0,0,.66,1.19,3.64,3.64,0,0,0,1.89.4,5.27,5.27,0,0,0,2.72-.55,1.68,1.68,0,0,0,.88-1.49,1.18,1.18,0,0,0-.48-1.09,3.76,3.76,0,0,0-1.82-.3H82.84a2.3,2.3,0,0,0-1.55.47A1.69,1.69,0,0,0,80.74,464.62Zm.79-8.16A2,2,0,0,0,82.1,458a2.28,2.28,0,0,0,1.59.52,1.86,1.86,0,0,0,2.14-2.07,1.91,1.91,0,0,0-2.16-2.17,2.14,2.14,0,0,0-1.58.55A2.23,2.23,0,0,0,81.53,456.45Z"/><path class="cls-4" d="M94.47,463.18a4.43,4.43,0,0,1-3.37-1.3,5,5,0,0,1-1.23-3.61,5.59,5.59,0,0,1,1.15-3.7,3.81,3.81,0,0,1,3.08-1.37A3.63,3.63,0,0,1,97,454.38,4.57,4.57,0,0,1,98,457.53v.92H91.37a3.82,3.82,0,0,0,.86,2.58,3,3,0,0,0,2.29.88,7.76,7.76,0,0,0,3.08-.65v1.3a7.72,7.72,0,0,1-1.46.48A8.23,8.23,0,0,1,94.47,463.18Zm-.4-8.76a2.38,2.38,0,0,0-1.85.76,3.48,3.48,0,0,0-.81,2.09h5a3.21,3.21,0,0,0-.62-2.11A2.17,2.17,0,0,0,94.07,454.41Z"/><path class="cls-4" d="M106.54,453.37v6.25a2.51,2.51,0,0,0,.54,1.76,2.18,2.18,0,0,0,1.68.58,2.74,2.74,0,0,0,2.21-.83,4.17,4.17,0,0,0,.7-2.7v-5.06h1.46V463h-1.2l-.21-1.29h-.08a2.91,2.91,0,0,1-1.24,1.09,4.18,4.18,0,0,1-1.81.38,3.68,3.68,0,0,1-2.63-.83,3.55,3.55,0,0,1-.87-2.67v-6.3Z"/><path class="cls-4" d="M122.81,463v-6.23a2.51,2.51,0,0,0-.54-1.76,2.18,2.18,0,0,0-1.68-.58,2.77,2.77,0,0,0-2.21.82,4.13,4.13,0,0,0-.7,2.7V463h-1.46v-9.63h1.19l.24,1.32h.07a3,3,0,0,1,1.26-1.1,4.08,4.08,0,0,1,1.8-.39,3.66,3.66,0,0,1,2.62.84,3.57,3.57,0,0,1,.88,2.69V463Z"/><path class="cls-4" d="M133.83,461.71h-.08a3.43,3.43,0,0,1-3,1.47,3.58,3.58,0,0,1-2.94-1.29,5.69,5.69,0,0,1-1.05-3.67,5.79,5.79,0,0,1,1.05-3.7,3.55,3.55,0,0,1,2.94-1.32,3.5,3.5,0,0,1,3,1.42h.11l-.06-.69,0-.68v-3.92h1.46V463H134Zm-2.92.25a2.66,2.66,0,0,0,2.17-.81,4.11,4.11,0,0,0,.67-2.62v-.31a4.84,4.84,0,0,0-.68-2.92,2.59,2.59,0,0,0-2.18-.87,2.23,2.23,0,0,0-2,1,5,5,0,0,0-.68,2.82,4.75,4.75,0,0,0,.68,2.79A2.29,2.29,0,0,0,130.91,462Z"/><path class="cls-4" d="M155.25,463v-6.27a2.6,2.6,0,0,0-.49-1.73,1.9,1.9,0,0,0-1.53-.58,2.47,2.47,0,0,0-2,.78,3.72,3.72,0,0,0-.65,2.41V463h-1.46v-6.27a2.6,2.6,0,0,0-.49-1.73,1.92,1.92,0,0,0-1.54-.58,2.38,2.38,0,0,0-2,.82,4.45,4.45,0,0,0-.64,2.69V463H143v-9.63h1.19l.24,1.32h.07a2.87,2.87,0,0,1,1.16-1.1,3.56,3.56,0,0,1,1.68-.4,2.86,2.86,0,0,1,3,1.63h.07a3.07,3.07,0,0,1,1.25-1.2,3.87,3.87,0,0,1,1.86-.44,3.26,3.26,0,0,1,2.45.84,3.76,3.76,0,0,1,.81,2.69V463Z"/><path class="cls-4" d="M163.79,463.18a4.42,4.42,0,0,1-3.37-1.3,5,5,0,0,1-1.23-3.61,5.59,5.59,0,0,1,1.15-3.7,3.81,3.81,0,0,1,3.08-1.37,3.63,3.63,0,0,1,2.87,1.19,4.57,4.57,0,0,1,1.05,3.14v.92h-6.64a3.82,3.82,0,0,0,.86,2.58,3,3,0,0,0,2.29.88,7.76,7.76,0,0,0,3.08-.65v1.3a7.71,7.71,0,0,1-1.46.48A8.23,8.23,0,0,1,163.79,463.18Zm-.39-8.76a2.38,2.38,0,0,0-1.85.76,3.48,3.48,0,0,0-.81,2.09h5a3.21,3.21,0,0,0-.62-2.11A2.17,2.17,0,0,0,163.39,454.41Z"/><path class="cls-4" d="M176,460.37a2.41,2.41,0,0,1-1,2.07,4.71,4.71,0,0,1-2.81.73,6.12,6.12,0,0,1-3-.61v-1.35a7.22,7.22,0,0,0,1.49.55,6.23,6.23,0,0,0,1.53.2,3.48,3.48,0,0,0,1.76-.37,1.26,1.26,0,0,0,.13-2.07,7.66,7.66,0,0,0-1.9-.95,10.33,10.33,0,0,1-1.91-.87,2.61,2.61,0,0,1-.84-.85,2.21,2.21,0,0,1-.28-1.13,2.16,2.16,0,0,1,1-1.86,4.46,4.46,0,0,1,2.63-.68,7.69,7.69,0,0,1,3,.63l-.52,1.19a7,7,0,0,0-2.63-.6,3,3,0,0,0-1.56.32,1,1,0,0,0-.53.9,1.1,1.1,0,0,0,.2.66,2,2,0,0,0,.64.52,14.19,14.19,0,0,0,1.69.71,6.3,6.3,0,0,1,2.32,1.26A2.22,2.22,0,0,1,176,460.37Z"/><path class="cls-4" d="M184.62,460.37a2.41,2.41,0,0,1-1,2.07,4.71,4.71,0,0,1-2.81.73,6.12,6.12,0,0,1-3-.61v-1.35a7.23,7.23,0,0,0,1.49.55,6.22,6.22,0,0,0,1.53.2,3.48,3.48,0,0,0,1.76-.37,1.26,1.26,0,0,0,.13-2.07,7.68,7.68,0,0,0-1.9-.95,10.32,10.32,0,0,1-1.91-.87,2.61,2.61,0,0,1-.84-.85,2.21,2.21,0,0,1-.28-1.13,2.16,2.16,0,0,1,1-1.86,4.47,4.47,0,0,1,2.63-.68,7.69,7.69,0,0,1,3,.63L183.9,455a7,7,0,0,0-2.63-.6,3,3,0,0,0-1.56.32,1,1,0,0,0-.53.9,1.09,1.09,0,0,0,.2.66,2,2,0,0,0,.64.52,14.19,14.19,0,0,0,1.69.71,6.31,6.31,0,0,1,2.32,1.26A2.22,2.22,0,0,1,184.62,460.37Z"/><path class="cls-4" d="M191.06,463.18a4.43,4.43,0,0,1-3.37-1.3,5,5,0,0,1-1.23-3.61,5.59,5.59,0,0,1,1.15-3.7,3.81,3.81,0,0,1,3.08-1.37,3.63,3.63,0,0,1,2.87,1.19,4.57,4.57,0,0,1,1.05,3.14v.92H188a3.82,3.82,0,0,0,.86,2.58,3,3,0,0,0,2.29.88,7.76,7.76,0,0,0,3.08-.65v1.3a7.72,7.72,0,0,1-1.46.48A8.22,8.22,0,0,1,191.06,463.18Zm-.4-8.76a2.38,2.38,0,0,0-1.85.76,3.48,3.48,0,0,0-.81,2.09h5a3.21,3.21,0,0,0-.62-2.11A2.17,2.17,0,0,0,190.66,454.41Z"/><path class="cls-4" d="M208.32,461.71h-.08a3.43,3.43,0,0,1-3,1.47,3.57,3.57,0,0,1-2.94-1.29,5.69,5.69,0,0,1-1.05-3.67,5.79,5.79,0,0,1,1.05-3.7,3.55,3.55,0,0,1,2.94-1.32,3.5,3.5,0,0,1,3,1.42h.12l-.06-.69,0-.68v-3.92h1.46V463h-1.19Zm-2.92.25a2.66,2.66,0,0,0,2.17-.81,4.11,4.11,0,0,0,.67-2.62v-.31a4.84,4.84,0,0,0-.68-2.92,2.59,2.59,0,0,0-2.17-.87,2.23,2.23,0,0,0-2,1,5,5,0,0,0-.68,2.82,4.75,4.75,0,0,0,.68,2.79A2.29,2.29,0,0,0,205.4,462Z"/><path class="cls-4" d="M212.67,450.76a1,1,0,0,1,.25-.73.91.91,0,0,1,1.22,0,1,1,0,0,1,.25.73,1,1,0,0,1-.25.73.85.85,0,0,1-.61.24.84.84,0,0,1-.62-.24A1,1,0,0,1,212.67,450.76ZM214.25,463h-1.46v-9.63h1.46Z"/><path class="cls-4" d="M221.2,463.18a4.11,4.11,0,0,1-3.24-1.29,5.29,5.29,0,0,1-1.15-3.64,5.46,5.46,0,0,1,1.16-3.74,4.19,4.19,0,0,1,3.32-1.32,6.59,6.59,0,0,1,1.39.15,4.57,4.57,0,0,1,1.09.35l-.45,1.24a6.86,6.86,0,0,0-1.05-.32,4.7,4.7,0,0,0-1-.13q-2.94,0-2.94,3.74A4.46,4.46,0,0,0,219,461a2.49,2.49,0,0,0,2.12.95,6.5,6.5,0,0,0,2.47-.52v1.29A5.27,5.27,0,0,1,221.2,463.18Z"/><path class="cls-4" d="M232.51,463v-6.23A2.51,2.51,0,0,0,232,455a2.18,2.18,0,0,0-1.68-.58,2.75,2.75,0,0,0-2.22.83,4.18,4.18,0,0,0-.7,2.71v5h-1.46V449.32h1.46v4.14a9,9,0,0,1-.07,1.24h.09a3,3,0,0,1,1.23-1.09,4,4,0,0,1,1.82-.4,3.72,3.72,0,0,1,2.65.84,3.54,3.54,0,0,1,.88,2.67V463Z"/><path class="cls-4" d="M30.15,484.6v-6.27a2.6,2.6,0,0,0-.49-1.73,1.9,1.9,0,0,0-1.53-.58,2.47,2.47,0,0,0-2,.78,3.72,3.72,0,0,0-.65,2.41v5.38H24v-6.27a2.6,2.6,0,0,0-.49-1.73A1.91,1.91,0,0,0,22,476a2.38,2.38,0,0,0-2,.82,4.44,4.44,0,0,0-.64,2.69v5.05H17.87V475h1.19l.24,1.32h.07a2.87,2.87,0,0,1,1.16-1.1,3.56,3.56,0,0,1,1.68-.4,2.86,2.86,0,0,1,3,1.63h.07a3.07,3.07,0,0,1,1.25-1.2,3.87,3.87,0,0,1,1.86-.44,3.27,3.27,0,0,1,2.45.84,3.76,3.76,0,0,1,.81,2.69v6.28Z"/><path class="cls-4" d="M34.49,472.36a1,1,0,0,1,.25-.73.91.91,0,0,1,1.22,0,1,1,0,0,1,.25.73,1,1,0,0,1-.25.73.85.85,0,0,1-.61.24.85.85,0,0,1-.62-.24A1,1,0,0,1,34.49,472.36Zm1.58,12.24H34.61V475h1.46Z"/><path class="cls-4" d="M42.28,483.57a4.89,4.89,0,0,0,.75-.06,5,5,0,0,0,.57-.12v1.12a2.63,2.63,0,0,1-.7.19,5.14,5.14,0,0,1-.83.08q-2.79,0-2.79-2.94V476.1H37.89v-.7l1.38-.61.62-2.06h.84V475h2.79v1.13H40.73v5.67a2,2,0,0,0,.41,1.34A1.44,1.44,0,0,0,42.28,483.57Z"/><path class="cls-4" d="M56.75,483.31h-.08a3.43,3.43,0,0,1-3,1.47,3.58,3.58,0,0,1-2.94-1.29,5.69,5.69,0,0,1-1.05-3.67,5.78,5.78,0,0,1,1.05-3.7,3.55,3.55,0,0,1,2.94-1.32,3.5,3.5,0,0,1,3,1.42h.11l-.06-.69,0-.68v-3.92h1.46V484.6H56.95Zm-2.92.25a2.66,2.66,0,0,0,2.17-.81,4.11,4.11,0,0,0,.67-2.62v-.31a4.83,4.83,0,0,0-.68-2.92,2.58,2.58,0,0,0-2.18-.87,2.23,2.23,0,0,0-2,1,5,5,0,0,0-.68,2.82,4.76,4.76,0,0,0,.68,2.79A2.29,2.29,0,0,0,53.84,483.55Z"/><path class="cls-4" d="M65.3,484.78a4.43,4.43,0,0,1-3.37-1.3,5,5,0,0,1-1.23-3.61,5.58,5.58,0,0,1,1.15-3.7,3.81,3.81,0,0,1,3.08-1.37A3.64,3.64,0,0,1,67.78,476a4.57,4.57,0,0,1,1.05,3.14V480H62.2a3.82,3.82,0,0,0,.86,2.58,3,3,0,0,0,2.29.88,7.76,7.76,0,0,0,3.08-.65v1.3a7.65,7.65,0,0,1-1.46.48A8.15,8.15,0,0,1,65.3,484.78ZM64.9,476a2.38,2.38,0,0,0-1.85.76,3.48,3.48,0,0,0-.81,2.09h5a3.2,3.2,0,0,0-.62-2.11A2.16,2.16,0,0,0,64.9,476Z"/><path class="cls-4" d="M77.92,484.6v-6.23a2.51,2.51,0,0,0-.54-1.76A2.18,2.18,0,0,0,75.7,476a2.77,2.77,0,0,0-2.21.82,4.13,4.13,0,0,0-.7,2.7v5.05H71.33V475h1.19l.24,1.32h.07a3,3,0,0,1,1.26-1.1,4.07,4.07,0,0,1,1.8-.39,3.66,3.66,0,0,1,2.62.84,3.57,3.57,0,0,1,.88,2.69v6.28Z"/><path class="cls-4" d="M95.42,475.5a3.6,3.6,0,0,1-1.33,3,6,6,0,0,1-3.81,1.05H88.76v5.05H87.27V471.75H90.6Q95.42,471.75,95.42,475.5Zm-6.65,2.77h1.34a5,5,0,0,0,2.87-.64,2.36,2.36,0,0,0,.89-2.06,2.22,2.22,0,0,0-.83-1.9,4.36,4.36,0,0,0-2.6-.62H88.76Z"/><path class="cls-4" d="M102.28,474.79a5.71,5.71,0,0,1,1.15.11l-.2,1.35a5,5,0,0,0-1.05-.13,2.57,2.57,0,0,0-2,.95,3.46,3.46,0,0,0-.83,2.36v5.17H97.89V475h1.2l.17,1.78h.07a4.23,4.23,0,0,1,1.29-1.45A2.91,2.91,0,0,1,102.28,474.79Z"/><path class="cls-4" d="M113.55,479.78a5.31,5.31,0,0,1-1.19,3.68,4.18,4.18,0,0,1-3.28,1.32,4.34,4.34,0,0,1-2.29-.61,4,4,0,0,1-1.55-1.74,6.06,6.06,0,0,1-.54-2.65,5.31,5.31,0,0,1,1.18-3.67,4.17,4.17,0,0,1,3.27-1.31,4.08,4.08,0,0,1,3.21,1.34A5.29,5.29,0,0,1,113.55,479.78Zm-7.34,0a4.57,4.57,0,0,0,.74,2.81,2.93,2.93,0,0,0,4.35,0,4.55,4.55,0,0,0,.74-2.82,4.48,4.48,0,0,0-.74-2.79,2.61,2.61,0,0,0-2.19-1,2.57,2.57,0,0,0-2.16.94A4.53,4.53,0,0,0,106.21,479.78Z"/><path class="cls-4" d="M120.45,476.1H118v8.5h-1.46v-8.5h-1.72v-.66l1.72-.53v-.54q0-3.55,3.1-3.55a6.38,6.38,0,0,1,1.79.31l-.38,1.17a4.83,4.83,0,0,0-1.44-.27,1.4,1.4,0,0,0-1.22.55,3.06,3.06,0,0,0-.4,1.76V475h2.45Zm1.63-3.74a1,1,0,0,1,.25-.73.91.91,0,0,1,1.22,0,1,1,0,0,1,.25.73,1,1,0,0,1-.25.73.85.85,0,0,1-.61.24.85.85,0,0,1-.62-.24A1,1,0,0,1,122.08,472.36Zm1.58,12.24h-1.46V475h1.46Z"/><path class="cls-4" d="M133,482a2.41,2.41,0,0,1-1,2.07,4.71,4.71,0,0,1-2.81.73,6.12,6.12,0,0,1-3-.61v-1.35a7.23,7.23,0,0,0,1.49.55,6.22,6.22,0,0,0,1.53.2,3.47,3.47,0,0,0,1.76-.37,1.26,1.26,0,0,0,.13-2.07,7.71,7.71,0,0,0-1.9-.94,10.39,10.39,0,0,1-1.91-.87,2.62,2.62,0,0,1-.84-.85,2.21,2.21,0,0,1-.28-1.13,2.16,2.16,0,0,1,1-1.86,4.47,4.47,0,0,1,2.63-.68,7.69,7.69,0,0,1,3,.63l-.52,1.19a7,7,0,0,0-2.63-.6,3,3,0,0,0-1.56.33,1,1,0,0,0-.53.9,1.09,1.09,0,0,0,.2.66,2,2,0,0,0,.64.52,14.24,14.24,0,0,0,1.69.71,6.3,6.3,0,0,1,2.32,1.26A2.22,2.22,0,0,1,133,482Z"/><path class="cls-4" d="M135.14,483.67a1.31,1.31,0,0,1,.27-.89,1,1,0,0,1,.77-.3,1,1,0,0,1,.8.3,1.25,1.25,0,0,1,.29.89,1.23,1.23,0,0,1-.29.88,1.15,1.15,0,0,1-1.53,0A1.2,1.2,0,0,1,135.14,483.67Z"/></g><g id="Ebene_2" data-name="Ebene 2"><g id="Notizblock" class="cls-5"><path class="cls-4" d="M280.22,238.83l.94-3-7.39-2.31-.94,3a2.87,2.87,0,0,1-3.43,2.1l-.63-.2a2.87,2.87,0,0,1-1.63-3.68l.94-3-7.39-2.31-.94,3a2.87,2.87,0,0,1-3.43,2.1l-.63-.2a2.87,2.87,0,0,1-1.63-3.68l.94-3-1.51-.47L247,231.1l-2.7,8.65-5.06-1.58,3.46-11.08,10.54-6.33,3.58,1.12.92-2.93a2.87,2.87,0,0,1,3.43-2.1l.63.2a2.87,2.87,0,0,1,1.63,3.68l-.92,2.93,7.39,2.31.92-2.93a2.87,2.87,0,0,1,3.43-2.1l.63.2a2.87,2.87,0,0,1,1.63,3.68l-.92,2.93L283,230l.92-2.93a2.87,2.87,0,0,1,3.43-2.1l.63.2a2.87,2.87,0,0,1,1.63,3.68l-.92,2.93,7.39,2.31.92-2.93a2.87,2.87,0,0,1,3.43-2.1l.63.2a2.87,2.87,0,0,1,1.63,3.68l-.92,2.93,12,3.74-27.08,86.77-22.34-7,.54-6.18L283.38,319l23.47-75.19-6.91-2.16-.94,3a2.87,2.87,0,0,1-3.43,2.1l-.63-.2a2.87,2.87,0,0,1-1.63-3.68l.94-3-7.39-2.31-.94,3a2.87,2.87,0,0,1-3.43,2.1l-.63-.2A2.87,2.87,0,0,1,280.22,238.83Z"/><path class="cls-4" d="M219.88,261.12h0L238,302.2h0l1.21,2.81,18.56,12.21L260,292.28l-.38-.86-19-43h0a4.8,4.8,0,0,0-7.11-2.11l-11,6.74A6.64,6.64,0,0,0,219.88,261.12ZM256,306.6l-4.49,2.91L242,303.25,257.13,294Zm-27.21-42.68,8.57-5.26,13.6,30.8-8.57,5.26Z"/></g><g id="Suchen_2" data-name="Suchen 2" class="cls-5"><path class="cls-4" d="M292.58,149.82a3.14,3.14,0,0,1-4.24-1.42l-16-32.71a3.26,3.26,0,0,1,1.43-4.31l12.76-6.5a3.14,3.14,0,0,1,4.24,1.42l16,32.71a3.26,3.26,0,0,1-1.43,4.31Z"/><path class="cls-4" d="M228.12,64.1a36.07,36.07,0,0,1,5-10.68,34.8,34.8,0,0,1,48.74-9.16A35.55,35.55,0,0,1,295.43,83a36.1,36.1,0,0,1-5,10.68,34.8,34.8,0,0,1-48.74,9.16A35.55,35.55,0,0,1,228.12,64.1m9.12,2.56a25.91,25.91,0,0,0,9.9,28.22A24.9,24.9,0,0,0,266.2,99a25.61,25.61,0,0,0,16.47-10.8,26.31,26.31,0,0,0,3.65-7.79,25.92,25.92,0,0,0-9.9-28.22,24.91,24.91,0,0,0-19.06-4.12,25.61,25.61,0,0,0-16.47,10.8h0a26.27,26.27,0,0,0-3.65,7.78Z"/></g><g id="Video_2" data-name="Video 2" class="cls-5"><path class="cls-4" d="M298.22,470c-1.18-.19-2.22-.41-3.15-.65-4.66-1.22-6.14-2.8-6.66-3.69a4.43,4.43,0,0,1-.22-3.46,11.58,11.58,0,0,1,1-2.44A45.72,45.72,0,1,0,278,465.27a13.25,13.25,0,0,0,1.74,5.43c2.28,3.9,6.58,6.72,12.69,8.3l.11,0c1.26.32,2.59.6,4,.84Zm-62.17-41.83c-6-1.55-9.46-8.37-7.69-15.25s8.08-11.18,14.1-9.63,9.46,8.38,7.69,15.25S242.07,429.72,236.06,428.17ZM254.44,457c-6.88-1.77-11.2-8.08-9.65-14.09s8.38-9.45,15.26-7.68,11.2,8.08,9.65,14.09S261.32,458.82,254.44,457Zm3-36.62a6.19,6.19,0,1,1,4.45,7.53A6.19,6.19,0,0,1,257.48,420.43Zm9.42-11.76c-6.88-1.77-11.2-8.08-9.65-14.09s8.38-9.45,15.26-7.68S283.7,395,282.16,401,273.78,410.44,266.9,408.67Zm9.89,16.74c1.77-6.87,8.08-11.18,14.1-9.63s9.46,8.38,7.69,15.25-8.08,11.18-14.1,9.63S275,432.27,276.79,425.4Z"/></g></g></svg>