<svg xmlns="http://www.w3.org/2000/svg" viewBox="0 0 319.5 62"><defs><style>.cls-1{fill:#fff;}.cls-2{fill:none;stroke:#4d4d4d;stroke-miterlimit:10;}.cls-3{fill:#2dc14c;}.cls-4{fill:#666;}</style></defs><title>Element 2</title><g id="Ebene_2" data-name="Ebene 2"><g id="Ebene_1-2" data-name="Ebene 1"><rect class="cls-1" width="319.5" height="62"/><line class="cls-2" x1="266" y1="31" x2="14" y2="31"/><rect class="cls-3" x="14" y="7" width="80.5" height="18"/><path class="cls-1" d="M26.44,20.29H25.26l-3.12-4.15-.9.8v3.36h-1V11.73h1V16l3.88-4.25h1.18l-3.45,3.72Z"/><path class="cls-1" d="M31.42,20.29l-.19-.91h0a2.7,2.7,0,0,1-1,.82,2.92,2.92,0,0,1-1.19.21,2.14,2.14,0,0,1-1.5-.49,1.8,1.8,0,0,1-.54-1.4q0-1.95,3.11-2l1.09,0V16a1.63,1.63,0,0,0-.33-1.12,1.34,1.34,0,0,0-1-.36,4.24,4.24,0,0,0-1.82.49l-.3-.74a4.57,4.57,0,0,1,1-.4,4.5,4.5,0,0,1,1.13-.15,2.45,2.45,0,0,1,1.7.51,2.13,2.13,0,0,1,.55,1.63v4.38Zm-2.2-.69a2,2,0,0,0,1.43-.5,1.84,1.84,0,0,0,.52-1.39v-.58l-1,0a3.54,3.54,0,0,0-1.67.36,1.09,1.09,0,0,0-.51,1,1,1,0,0,0,.32.8A1.33,1.33,0,0,0,29.22,19.61Z"/><path class="cls-1" d="M37.07,13.75a3.81,3.81,0,0,1,.77.07l-.13.9a3.31,3.31,0,0,0-.7-.09,1.71,1.71,0,0,0-1.33.63,2.31,2.31,0,0,0-.55,1.58v3.45h-1V13.87h.8l.11,1.19h0a2.82,2.82,0,0,1,.86-1A1.94,1.94,0,0,1,37.07,13.75Z"/><path class="cls-1" d="M41.11,19.61a3.18,3.18,0,0,0,.5,0l.38-.08v.74a1.78,1.78,0,0,1-.47.13,3.5,3.5,0,0,1-.55,0q-1.86,0-1.86-2V14.63h-.92v-.47l.92-.4.41-1.37h.56v1.49h1.86v.76H40.08v3.78a1.3,1.3,0,0,0,.28.89A1,1,0,0,0,41.11,19.61Z"/><path class="cls-1" d="M48.82,17.08A3.54,3.54,0,0,1,48,19.53a2.79,2.79,0,0,1-2.19.88,2.89,2.89,0,0,1-1.53-.4,2.67,2.67,0,0,1-1-1.16,4,4,0,0,1-.36-1.77,3.54,3.54,0,0,1,.79-2.45,2.78,2.78,0,0,1,2.18-.88,2.72,2.72,0,0,1,2.14.9A3.53,3.53,0,0,1,48.82,17.08Zm-4.89,0A3,3,0,0,0,44.42,19a2,2,0,0,0,2.9,0,3,3,0,0,0,.5-1.88,3,3,0,0,0-.5-1.86,1.74,1.74,0,0,0-1.46-.64,1.71,1.71,0,0,0-1.44.63A3,3,0,0,0,43.93,17.08Z"/><path class="cls-1" d="M53.42,14.63H51.78v5.67h-1V14.63H49.66v-.44l1.15-.35v-.36q0-2.37,2.07-2.37a4.26,4.26,0,0,1,1.2.21l-.25.78a3.22,3.22,0,0,0-1-.18.94.94,0,0,0-.81.37,2,2,0,0,0-.26,1.17v.42h1.63Zm4.07,0H55.85v5.67h-1V14.63H53.73v-.44l1.15-.35v-.36q0-2.37,2.07-2.37a4.26,4.26,0,0,1,1.2.21l-.25.78a3.22,3.22,0,0,0-1-.18.94.94,0,0,0-.81.37,2,2,0,0,0-.26,1.17v.42h1.63Z"/><path class="cls-1" d="M61.38,20.41a3,3,0,0,1-2.25-.87,3.36,3.36,0,0,1-.82-2.41,3.72,3.72,0,0,1,.76-2.47,2.54,2.54,0,0,1,2.05-.91,2.42,2.42,0,0,1,1.91.79,3,3,0,0,1,.7,2.09v.62H59.31A2.55,2.55,0,0,0,59.88,19a2,2,0,0,0,1.53.59,5.17,5.17,0,0,0,2.05-.43V20a5.15,5.15,0,0,1-1,.32A5.48,5.48,0,0,1,61.38,20.41Zm-.26-5.84a1.59,1.59,0,0,0-1.23.5,2.32,2.32,0,0,0-.54,1.39h3.36a2.14,2.14,0,0,0-.41-1.41A1.44,1.44,0,0,0,61.11,14.57Z"/><path class="cls-1" d="M66.37,20.29h-1V11.17h1Z"/><path class="cls-1" d="M72.82,20.29V16.14A1.68,1.68,0,0,0,72.47,15a1.46,1.46,0,0,0-1.12-.39,1.85,1.85,0,0,0-1.48.54,2.75,2.75,0,0,0-.47,1.8v3.37h-1V13.87h.79l.16.88h0a2,2,0,0,1,.84-.74,2.72,2.72,0,0,1,1.2-.26,2.44,2.44,0,0,1,1.75.56,2.38,2.38,0,0,1,.59,1.79v4.19Z"/><path class="cls-1" d="M86.69,17l-2.23-3.13h1.11l1.69,2.46,1.69-2.46H90L87.81,17l2.35,3.29h-1.1l-1.8-2.6-1.82,2.6h-1.1Z"/><rect class="cls-4" x="14" y="37" width="103.5" height="18"/><path class="cls-1" d="M22.81,50.41a3,3,0,0,1-2.25-.87,3.36,3.36,0,0,1-.82-2.41,3.72,3.72,0,0,1,.76-2.47,2.54,2.54,0,0,1,2.05-.91,2.42,2.42,0,0,1,1.91.79,3,3,0,0,1,.7,2.09v.62H20.75A2.55,2.55,0,0,0,21.32,49a2,2,0,0,0,1.53.59,5.17,5.17,0,0,0,2.05-.43V50a5.15,5.15,0,0,1-1,.32A5.48,5.48,0,0,1,22.81,50.41Zm-.26-5.84a1.59,1.59,0,0,0-1.23.5,2.32,2.32,0,0,0-.54,1.39h3.36a2.14,2.14,0,0,0-.41-1.41A1.44,1.44,0,0,0,22.55,44.57Z"/><path class="cls-1" d="M28.38,47l-2.23-3.13h1.11l1.69,2.46,1.69-2.46h1.1L29.5,47l2.35,3.29h-1.1l-1.8-2.6-1.82,2.6H26Z"/><path class="cls-1" d="M36.11,50.41A2.78,2.78,0,0,1,35,50.18a2.15,2.15,0,0,1-.87-.71H34a8.61,8.61,0,0,1,.07,1.07v2.64h-1v-9.3h.79l.13.88h0A2.26,2.26,0,0,1,35,44a2.65,2.65,0,0,1,1.14-.23,2.37,2.37,0,0,1,2,.87,4.65,4.65,0,0,1,0,4.91A2.38,2.38,0,0,1,36.11,50.41ZM36,44.58a1.72,1.72,0,0,0-1.42.54,2.8,2.8,0,0,0-.45,1.73v.22A3.21,3.21,0,0,0,34.54,49a1.72,1.72,0,0,0,1.45.58,1.5,1.5,0,0,0,1.3-.67,3.2,3.2,0,0,0,.47-1.86,3.08,3.08,0,0,0-.47-1.84A1.55,1.55,0,0,0,36,44.58Z"/><path class="cls-1" d="M43.19,50.41a3,3,0,0,1-2.25-.87,3.36,3.36,0,0,1-.82-2.41,3.72,3.72,0,0,1,.76-2.47,2.54,2.54,0,0,1,2.05-.91,2.42,2.42,0,0,1,1.91.79,3,3,0,0,1,.7,2.09v.62H41.13A2.55,2.55,0,0,0,41.7,49a2,2,0,0,0,1.53.59,5.17,5.17,0,0,0,2.05-.43V50a5.15,5.15,0,0,1-1,.32A5.48,5.48,0,0,1,43.19,50.41Zm-.26-5.84a1.59,1.59,0,0,0-1.23.5,2.32,2.32,0,0,0-.54,1.39h3.36a2.14,2.14,0,0,0-.41-1.41A1.44,1.44,0,0,0,42.92,44.57Z"/><path class="cls-1" d="M50.14,43.75a3.81,3.81,0,0,1,.77.07l-.13.9a3.31,3.31,0,0,0-.7-.09,1.71,1.71,0,0,0-1.33.63,2.31,2.31,0,0,0-.55,1.58v3.45h-1V43.87H48l.11,1.19h0a2.82,2.82,0,0,1,.86-1A1.94,1.94,0,0,1,50.14,43.75Z"/><path class="cls-1" d="M52,42.13a.65.65,0,0,1,.16-.49.61.61,0,0,1,.81,0,.63.63,0,0,1,.17.49.64.64,0,0,1-.17.49.6.6,0,0,1-.81,0A.66.66,0,0,1,52,42.13Zm1.05,8.16h-1V43.87h1Z"/><path class="cls-1" d="M63.33,50.29V46.11A1.73,1.73,0,0,0,63,45a1.27,1.27,0,0,0-1-.38,1.65,1.65,0,0,0-1.34.52,2.48,2.48,0,0,0-.43,1.61v3.59h-1V46.11A1.73,1.73,0,0,0,58.9,45a1.28,1.28,0,0,0-1-.38,1.59,1.59,0,0,0-1.34.55,3,3,0,0,0-.42,1.8v3.37h-1V43.87h.79l.16.88h0a1.91,1.91,0,0,1,.78-.73A2.37,2.37,0,0,1,58,43.75a1.91,1.91,0,0,1,2,1.09h0a2,2,0,0,1,.83-.8,2.58,2.58,0,0,1,1.24-.29,2.17,2.17,0,0,1,1.63.56,2.5,2.5,0,0,1,.54,1.79v4.19Z"/><path class="cls-1" d="M69,50.41a3,3,0,0,1-2.25-.87,3.36,3.36,0,0,1-.82-2.41,3.72,3.72,0,0,1,.76-2.47,2.54,2.54,0,0,1,2.05-.91,2.42,2.42,0,0,1,1.91.79,3,3,0,0,1,.7,2.09v.62H67A2.55,2.55,0,0,0,67.52,49a2,2,0,0,0,1.53.59,5.17,5.17,0,0,0,2.05-.43V50a5.15,5.15,0,0,1-1,.32A5.48,5.48,0,0,1,69,50.41Zm-.26-5.84a1.59,1.59,0,0,0-1.23.5A2.32,2.32,0,0,0,67,46.47h3.36a2.14,2.14,0,0,0-.41-1.41A1.44,1.44,0,0,0,68.75,44.57Z"/><path class="cls-1" d="M77.43,50.29V46.14A1.68,1.68,0,0,0,77.07,45,1.46,1.46,0,0,0,76,44.58a1.85,1.85,0,0,0-1.48.54,2.75,2.75,0,0,0-.47,1.8v3.37H73V43.87h.79l.16.88h0a2,2,0,0,1,.84-.74,2.72,2.72,0,0,1,1.2-.26,2.44,2.44,0,0,1,1.75.56,2.38,2.38,0,0,1,.59,1.79v4.19Z"/><path class="cls-1" d="M82.47,49.61a3.18,3.18,0,0,0,.5,0l.38-.08v.74a1.78,1.78,0,0,1-.47.13,3.5,3.5,0,0,1-.55,0q-1.86,0-1.86-2V44.63h-.92v-.47l.92-.4.41-1.37h.56v1.49h1.86v.76H81.44v3.78a1.3,1.3,0,0,0,.28.89A1,1,0,0,0,82.47,49.61Z"/><path class="cls-1" d="M87.35,50.41a3,3,0,0,1-2.25-.87,3.36,3.36,0,0,1-.82-2.41A3.72,3.72,0,0,1,85,44.67a2.54,2.54,0,0,1,2.05-.91,2.42,2.42,0,0,1,1.91.79,3,3,0,0,1,.7,2.09v.62H85.29A2.55,2.55,0,0,0,85.86,49a2,2,0,0,0,1.53.59,5.17,5.17,0,0,0,2.05-.43V50a5.15,5.15,0,0,1-1,.32A5.48,5.48,0,0,1,87.35,50.41Zm-.26-5.84a1.59,1.59,0,0,0-1.23.5,2.32,2.32,0,0,0-.54,1.39h3.36a2.14,2.14,0,0,0-.41-1.41A1.44,1.44,0,0,0,87.09,44.57Z"/><path class="cls-1" d="M92.34,50.29h-1V41.17h1Z"/><path class="cls-1" d="M95.38,50.29h-1V41.17h1Z"/><path class="cls-1" d="M108.34,47l-2.23-3.13h1.11l1.69,2.46,1.69-2.46h1.1L109.46,47l2.35,3.29h-1.1l-1.8-2.6-1.82,2.6H106Z"/><rect class="cls-4" x="124" y="37" width="68.5" height="18"/><path class="cls-1" d="M133.5,50.29V46.14a1.68,1.68,0,0,0-.36-1.17,1.46,1.46,0,0,0-1.12-.39,1.85,1.85,0,0,0-1.48.54,2.75,2.75,0,0,0-.47,1.8v3.37h-1V43.87h.79l.16.88h0a2,2,0,0,1,.84-.74,2.72,2.72,0,0,1,1.2-.26,2.44,2.44,0,0,1,1.75.56,2.38,2.38,0,0,1,.59,1.79v4.19Z"/><path class="cls-1" d="M139.18,50.41a3,3,0,0,1-2.25-.87,3.36,3.36,0,0,1-.82-2.41,3.72,3.72,0,0,1,.76-2.47,2.54,2.54,0,0,1,2.05-.91,2.42,2.42,0,0,1,1.91.79,3,3,0,0,1,.7,2.09v.62h-4.42a2.55,2.55,0,0,0,.57,1.72,2,2,0,0,0,1.53.59,5.17,5.17,0,0,0,2.05-.43V50a5.15,5.15,0,0,1-1,.32A5.48,5.48,0,0,1,139.18,50.41Zm-.26-5.84a1.59,1.59,0,0,0-1.23.5,2.32,2.32,0,0,0-.54,1.39h3.36a2.14,2.14,0,0,0-.41-1.41A1.44,1.44,0,0,0,138.92,44.57Z"/><path class="cls-1" d="M144.11,43.87V48a1.68,1.68,0,0,0,.36,1.17,1.46,1.46,0,0,0,1.12.39,1.83,1.83,0,0,0,1.47-.55,2.78,2.78,0,0,0,.47-1.8V43.87h1v6.42h-.8l-.14-.86h-.05a1.94,1.94,0,0,1-.83.73,2.79,2.79,0,0,1-1.21.25,2.45,2.45,0,0,1-1.75-.56,2.37,2.37,0,0,1-.58-1.78v-4.2Z"/><path class="cls-1" d="M153.28,50.41a3,3,0,0,1-2.25-.87,3.36,3.36,0,0,1-.82-2.41,3.72,3.72,0,0,1,.76-2.47,2.54,2.54,0,0,1,2.05-.91,2.42,2.42,0,0,1,1.91.79,3,3,0,0,1,.7,2.09v.62h-4.42a2.55,2.55,0,0,0,.57,1.72,2,2,0,0,0,1.53.59,5.17,5.17,0,0,0,2.05-.43V50a5.15,5.15,0,0,1-1,.32A5.48,5.48,0,0,1,153.28,50.41ZM153,44.57a1.59,1.59,0,0,0-1.23.5,2.32,2.32,0,0,0-.54,1.39h3.36a2.14,2.14,0,0,0-.41-1.41A1.44,1.44,0,0,0,153,44.57Z"/><path class="cls-1" d="M161.44,48.54a1.61,1.61,0,0,1-.67,1.38,3.14,3.14,0,0,1-1.87.49,4.08,4.08,0,0,1-2-.4v-.9a4.82,4.82,0,0,0,1,.37,4.15,4.15,0,0,0,1,.13,2.32,2.32,0,0,0,1.17-.24.84.84,0,0,0,.08-1.38,5.12,5.12,0,0,0-1.27-.63,6.88,6.88,0,0,1-1.27-.58,1.74,1.74,0,0,1-.56-.57,1.47,1.47,0,0,1-.18-.76,1.44,1.44,0,0,1,.64-1.24,3,3,0,0,1,1.75-.45,5.13,5.13,0,0,1,2,.42L161,45a4.65,4.65,0,0,0-1.75-.4,2,2,0,0,0-1,.22.67.67,0,0,0-.35.6.73.73,0,0,0,.13.44,1.3,1.3,0,0,0,.42.35,9.49,9.49,0,0,0,1.13.47,4.2,4.2,0,0,1,1.54.84A1.48,1.48,0,0,1,161.44,48.54Z"/><path class="cls-1" d="M165.1,49.61a3.18,3.18,0,0,0,.5,0l.38-.08v.74a1.78,1.78,0,0,1-.47.13,3.5,3.5,0,0,1-.55,0q-1.86,0-1.86-2V44.63h-.92v-.47l.92-.4.41-1.37h.56v1.49h1.86v.76h-1.86v3.78a1.3,1.3,0,0,0,.28.89A1,1,0,0,0,165.1,49.61Z"/><path class="cls-1" d="M170,50.41a3,3,0,0,1-2.25-.87,3.36,3.36,0,0,1-.82-2.41,3.72,3.72,0,0,1,.76-2.47,2.54,2.54,0,0,1,2.05-.91,2.42,2.42,0,0,1,1.91.79,3,3,0,0,1,.7,2.09v.62h-4.42a2.55,2.55,0,0,0,.57,1.72,2,2,0,0,0,1.53.59,5.17,5.17,0,0,0,2.05-.43V50a5.15,5.15,0,0,1-1,.32A5.48,5.48,0,0,1,170,50.41Zm-.26-5.84a1.59,1.59,0,0,0-1.23.5,2.32,2.32,0,0,0-.54,1.39h3.36a2.14,2.14,0,0,0-.41-1.41A1.44,1.44,0,0,0,169.71,44.57Z"/><path class="cls-1" d="M184.89,47l-2.23-3.13h1.11l1.69,2.46,1.69-2.46h1.1L186,47l2.35,3.29h-1.1l-1.8-2.6-1.82,2.6h-1.1Z"/><rect class="cls-4" x="281.5" y="31.5" width="23" height="23.34"/><polygon class="cls-1" points="293.45 47.19 301.41 36.99 285.5 36.99 293.45 47.19"/><rect class="cls-1" x="291.07" y="44.06" width="4.78" height="6.66"/></g></g></svg>