<svg id="Ebene_1" data-name="Ebene 1" xmlns="http://www.w3.org/2000/svg" xmlns:xlink="http://www.w3.org/1999/xlink" viewBox="0 0 320.5 518"><defs><style>.cls-1,.cls-3,.cls-7{fill:#fff;}.cls-2{fill:#fc926a;}.cls-3{font-size:15px;font-family:OpenSans, Open Sans;}.cls-4{fill:#998675;}.cls-5{fill:#c7b299;}.cls-6{fill:#85c2a3;}.cls-7{font-size:30px;font-family:AmaticSC-Bold, Amatic SC;font-weight:700;}.cls-8{opacity:0.66;}.cls-9{fill:#d3462f;}.cls-10{fill:#aeff6a;}</style><symbol id="Häkchen" data-name="Häkchen" viewBox="0 0 64 64"><path class="cls-1" d="M54.63,9.37a32,32,0,1,0,0,45.25A31.89,31.89,0,0,0,54.63,9.37ZM51.09,51.09A27,27,0,0,1,12.91,12.91,27,27,0,0,1,51.09,51.09Z"/><polygon class="cls-1" points="27.62 33.54 21.02 26.37 13.73 33.67 13.73 33.66 27.48 47.42 50.71 24.18 45.4 18.79 27.62 33.54"/></symbol><symbol id="Löschen" data-name="Löschen" viewBox="0 0 64 64"><polygon class="cls-1" points="40.45 16.3 32 24.75 23.55 16.3 16.3 23.55 24.75 32 16.3 40.45 23.55 47.7 32 39.24 40.45 47.7 47.7 40.45 39.24 32 47.7 23.55 40.45 16.3"/><path class="cls-1" d="M54.63,9.37a32,32,0,1,0,0,45.25A31.9,31.9,0,0,0,54.63,9.37ZM51.09,51.09A27,27,0,0,1,12.91,12.91a27,27,0,0,1,38.18,0h0a27,27,0,0,1,0,38.18Z"/></symbol></defs><title>challenge_akzeptieren</title><rect class="cls-2" width="320.5" height="104"/><text class="cls-3" transform="translate(30.1 76.81)">Mit zufälligen Zutaten kreativ werden</text><path class="cls-1" d="M116.48,37.38q1.1-8.79,1.1-11.47v-.57a1,1,0,0,1,.24-.62.7.7,0,0,1,.55-.3q1.22,0,1.22.88v.45a43.23,43.23,0,0,0,1.19,8.41q.54,2.46.76,3.84.16-1.66.59-4.79A84.47,84.47,0,0,0,123,22.68a1.65,1.65,0,0,1,.22-1,.83.83,0,0,1,.72-.3,1.2,1.2,0,0,1,.78.23.74.74,0,0,1,.29.6.94.94,0,0,1-.31.67,71.39,71.39,0,0,0-.8,7.34q-.35,4.88-.67,6.82t-.42,2.67a29.26,29.26,0,0,0-.38,4.35,1.19,1.19,0,0,1-.23.75.76.76,0,0,1-.63.29.77.77,0,0,1-.67-.48,4.35,4.35,0,0,1-.41-1.28q-.15-.8-.23-1.52t-.13-1.51q-.05-.78-.16-1.64t-.7-3.72q-.59-2.86-.67-3.33a107.22,107.22,0,0,0-1.1,12.67.78.78,0,0,1-.27.58.85.85,0,0,1-.59.26q-1.1,0-1.1-2.29,0-1.41-1.24-10.28t-1.57-9.7a1.16,1.16,0,0,1,1-.72q.86,0,1.25,2.26a19.82,19.82,0,0,1,.22,2.64q0,1.58.09,2.17t.19,1.77q.14,1.19.27,2Q116.13,35,116.48,37.38Z"/><path class="cls-1" d="M134.44,31.37l0,.51a23.39,23.39,0,0,0-.29,3.63q-.06,2.57-.26,4.15a19.87,19.87,0,0,1-.51,2.77,4.79,4.79,0,0,1-1,2,2.1,2.1,0,0,1-1.58.79,2.88,2.88,0,0,1-1.43-.31,2.45,2.45,0,0,1-.91-.91,6.89,6.89,0,0,1-.59-1.27,8.1,8.1,0,0,1-.35-1.57,25.53,25.53,0,0,1-.21-3.31l.16-7.91a20.89,20.89,0,0,0-.37-4.29V24.9a1.35,1.35,0,0,1,1.14.56,2,2,0,0,1,.42,1.25V41.21a4,4,0,0,0,.58,2.12,1.87,1.87,0,0,0,1.71,1q1.27,0,1.7-7.41v-.32q.38-6.77.38-11v-.5a.76.76,0,0,1,.16-.53.83.83,0,0,1,.62-.18.85.85,0,0,1,.67.25,1,1,0,0,1,.26.51,5.16,5.16,0,0,1,0,.7l-.21,3Z"/><path class="cls-1" d="M139.24,32.91l.18,7.76v3.4a1.07,1.07,0,0,1-.21.67.68.68,0,0,1-.57.27q-1,0-1-1.83L137.6,32.6l.18-5.6q0-2,1.1-2,.66,0,1,1,.41,1.93,1.43,5.56t1.4,5.52q.28.92.72,2.73t.69,2.72q.12-6.5.12-15.76l0-.81a1.21,1.21,0,0,1,.15-.65.57.57,0,0,1,.52-.24,1,1,0,0,1,.6.18,1.17,1.17,0,0,1,.47,1q0,4.12-.23,10.58a45.84,45.84,0,0,1-.7,8.07l-.25.08-.28.08q-.83.19-1.05-.07a1.6,1.6,0,0,1-.31-.7q-.1-.44-.22-.86t-.93-4q-2.15-9.45-2.65-11Z"/><path class="cls-1" d="M155.49,32.91l-.06,1.51v1.64a19.63,19.63,0,0,1-.26,4,14,14,0,0,1-.53,1.71A5.67,5.67,0,0,1,154,43a6.88,6.88,0,0,1-2.23,1.93H149.7q-.76,0-.76-3.93l.09-9.45q0-2.62-.1-4.92a1,1,0,0,1-.25-.7.92.92,0,0,1,.34-.7,1.18,1.18,0,0,1,.81-.3,1,1,0,0,1,.81.53,3.38,3.38,0,0,0,.65.16,2.42,2.42,0,0,1,.64.18,5.49,5.49,0,0,1,2.62,2.75A10,10,0,0,1,155.49,32.91Zm-4.91-3.47.34,13.24v.72h.54a10.13,10.13,0,0,0,2-3.49,15.67,15.67,0,0,0,.42-4.13q0-9.05-3.11-9.46A17.8,17.8,0,0,0,150.58,29.44Z"/><path class="cls-1" d="M161.11,43.62l1.19-.07q1.14,0,1.14.73a.69.69,0,0,1-.4.66,1.91,1.91,0,0,1-.89.21h-2.83a.9.9,0,0,1-.65-.26,1,1,0,0,1-.29-.67,5.86,5.86,0,0,1,.06-1,8,8,0,0,0,.08-1l-.15-3.84.21-8.76-.16-2.53q0-2.12,1.26-2.12a1.11,1.11,0,0,1,.66.22l.56.05q.45,0,.78.1t.73.16q.85.23.85.81t-.88.94a11.42,11.42,0,0,0-2.27-.57q0,.64,0,1.29L160,32.24s0,.18.09.47l1.07,0q1.45,0,1.45.82a1.25,1.25,0,0,1-.26.78.86.86,0,0,1-.73.34,1.33,1.33,0,0,1-.82-.26h-.76q.09,1.14.09,2.17L160,41.93Q160,43.62,161.11,43.62Z"/><path class="cls-1" d="M167.38,35.87a6.51,6.51,0,0,0-.21,1.55q0,.71.18,3t.18,3a1.8,1.8,0,0,1-.24,1,.67.67,0,0,1-.55.35q-.44,0-.56-.6,0-1.11,0-2.73T166,34.37q-.26-5.49-.26-8.2,0-1.42,1-1.42a4.2,4.2,0,0,1,2.64.82,2.78,2.78,0,0,1,1.07,2.34,12.33,12.33,0,0,1-.32,3.19A15.77,15.77,0,0,1,168.88,34q.16.72.57,2.87a25.6,25.6,0,0,0,1.95,6.72,2.18,2.18,0,0,1,.31.92.86.86,0,0,1-.18.56.6.6,0,0,1-.49.23q-1,0-1.8-3.27-.35-1.42-.63-2.87a42.89,42.89,0,0,0-1-4.47A5.79,5.79,0,0,1,167.38,35.87Zm0-10-.1.42q0,1.23.06,3.55t.06,3.38a3,3,0,0,0,1.14-1.91,9.62,9.62,0,0,0,.43-2.37,11.88,11.88,0,0,0,0-1.21,4.66,4.66,0,0,0-.19-.86A1.3,1.3,0,0,0,167.34,25.86Z"/><path class="cls-1" d="M176.68,42l.06-1q-.12-.38-.48-6.77t-.4-7.8a5.18,5.18,0,0,1-2.14-.31q-.41-.27-.41-.56a.54.54,0,0,1,.32-.48,1.27,1.27,0,0,1,.63-.18l4.07.28h.48q.94,0,.94.72a.7.7,0,0,1-.31.59,1.13,1.13,0,0,1-.69.23l-1.38-.21-.06.31q0,2.84.5,8.51t.5,8.53a.85.85,0,0,1-.27.63.89.89,0,0,1-.64.26h-.67Z"/><path class="cls-1" d="M183.82,21.86a.93.93,0,0,1-.37.74,1.25,1.25,0,0,1-.81.31.8.8,0,0,1-.66-.28,1.09,1.09,0,0,1-.23-.72,1.07,1.07,0,0,1,.29-.75,1,1,0,0,1,.73-.31,1,1,0,0,1,.74.29A1,1,0,0,1,183.82,21.86Zm5.38,9.51,0,.51a23.39,23.39,0,0,0-.29,3.63q-.06,2.57-.26,4.15a19.87,19.87,0,0,1-.51,2.77,4.79,4.79,0,0,1-1,2,2.1,2.1,0,0,1-1.58.79,2.88,2.88,0,0,1-1.43-.31,2.45,2.45,0,0,1-.91-.91,6.89,6.89,0,0,1-.59-1.27,8.1,8.1,0,0,1-.35-1.57,25.53,25.53,0,0,1-.21-3.31l.16-7.91a20.89,20.89,0,0,0-.37-4.29V24.9a1.35,1.35,0,0,1,1.14.56,2,2,0,0,1,.42,1.25V41.21a4,4,0,0,0,.58,2.12,1.87,1.87,0,0,0,1.71,1q1.27,0,1.7-7.41v-.32q.38-6.77.38-11v-.5a.76.76,0,0,1,.16-.53.83.83,0,0,1,.62-.18.85.85,0,0,1,.67.25,1,1,0,0,1,.26.51,5.16,5.16,0,0,1,0,.7l-.21,3Zm-.32-8.47a.9.9,0,0,1-.7-.31,1,1,0,0,1-.28-.72,1.06,1.06,0,0,1,.32-.75,1,1,0,0,1,.73-.34.93.93,0,0,1,.71.33,1.1,1.1,0,0,1,.3.76.92.92,0,0,1-.34.73A1.12,1.12,0,0,1,188.88,22.9Z"/><path class="cls-1" d="M195,42l.06-1q-.12-.38-.48-6.77t-.4-7.8A5.18,5.18,0,0,1,192,26q-.41-.27-.41-.56a.54.54,0,0,1,.32-.48,1.27,1.27,0,0,1,.63-.18l4.07.28h.48q.94,0,.94.72a.7.7,0,0,1-.31.59,1.13,1.13,0,0,1-.69.23l-1.38-.21-.06.31q0,2.84.5,8.51t.5,8.53a.85.85,0,0,1-.27.63.89.89,0,0,1-.64.26h-.67Z"/><path class="cls-1" d="M203.24,43.62l1.19-.07q1.14,0,1.14.73a.69.69,0,0,1-.4.66,1.91,1.91,0,0,1-.89.21h-2.83a.9.9,0,0,1-.65-.26,1,1,0,0,1-.29-.67,5.86,5.86,0,0,1,.06-1,8,8,0,0,0,.08-1l-.15-3.84.21-8.76-.16-2.53q0-2.12,1.26-2.12a1.11,1.11,0,0,1,.66.22l.56.05q.45,0,.78.1t.73.16q.85.23.85.81t-.88.94a11.42,11.42,0,0,0-2.27-.57q0,.64,0,1.29l-.13,4.31s0,.18.09.47l1.07,0q1.45,0,1.45.82a1.25,1.25,0,0,1-.26.78.86.86,0,0,1-.73.34,1.33,1.33,0,0,1-.82-.26h-.76q.09,1.14.09,2.17l-.13,5.43Q202.16,43.62,203.24,43.62Z"/><rect class="cls-4" x="19" y="163" width="280" height="166"/><rect class="cls-5" x="52" y="154" width="215" height="185"/><rect class="cls-2" y="400" width="320.5" height="118"/><polygon class="cls-6" points="184.42 497.17 161.44 487.82 139.44 499.26 142.71 477.04 123.79 462.29 148.78 457.91 159.1 437.36 171.28 456.87 196.57 458.91 179.1 475.35 184.42 497.17"/><text class="cls-7" transform="translate(156 482.47)">5</text><text class="cls-3" transform="translate(100.5 424.97)">Schwierigkeitsgrad</text><rect class="cls-8" width="320" height="518"/><rect class="cls-1" x="18" y="62" width="286" height="437"/><circle class="cls-9" cx="84" cy="450" r="32"/><circle class="cls-10" cx="235" cy="450" r="32"/><use id="Häkchen-3" data-name="Häkchen" width="64" height="64" transform="translate(209 423) scale(0.81 0.81)" xlink:href="#Häkchen"/><use id="Löschen-3" data-name="Löschen" width="64" height="64" transform="translate(58 423) scale(0.81 0.81)" xlink:href="#Löschen"/><path d="M203.72,383.13q.59,4.2,1.23,10.94t.64,10.43a.88.88,0,0,1-1,1q-1,0-1-.78v-3.91a4.25,4.25,0,0,0-1.52-.5,17,17,0,0,0-1.94-.26,7.11,7.11,0,0,0-.56,2.51,6.81,6.81,0,0,1-.64,2.61q-1.45,0-1.6-.6.67-1,2.74-12.51.81-4.56,1-5.29.81-3.87,1.74-3.87a1.41,1.41,0,0,1,.89.26ZM203.6,399q0-.54-.29-3.24-.66-6.88-.66-7.7c0-.54,0-.84,0-.89a28.29,28.29,0,0,0-.84,4.25q-.67,4-.75,4.39t-.28,1a8.42,8.42,0,0,0-.42,2,8.22,8.22,0,0,0,2.07.34A5.43,5.43,0,0,0,203.6,399Z"/><path d="M210,393.69l.18,7.76v3.4a1.07,1.07,0,0,1-.21.67.67.67,0,0,1-.57.27q-1,0-1-1.83l-.06-10.58.18-5.6q0-2,1.1-2,.66,0,1,1,.41,1.93,1.43,5.56t1.4,5.52q.28.92.72,2.73t.69,2.72q.12-6.5.12-15.76l0-.81a1.21,1.21,0,0,1,.15-.65.57.57,0,0,1,.52-.24,1,1,0,0,1,.6.18,1.17,1.17,0,0,1,.47,1q0,4.12-.23,10.58a45.84,45.84,0,0,1-.7,8.07l-.25.08-.28.08q-.83.19-1.05-.07a1.6,1.6,0,0,1-.31-.7c-.06-.29-.14-.58-.22-.86s-.39-1.61-.93-4q-2.15-9.45-2.65-11Z"/><path d="M221.28,393.69l.18,7.76v3.4a1.07,1.07,0,0,1-.21.67.67.67,0,0,1-.57.27q-1,0-1-1.83l-.06-10.58.18-5.6q0-2,1.1-2,.66,0,1,1,.41,1.93,1.43,5.56t1.4,5.52q.28.92.72,2.73t.69,2.72q.12-6.5.12-15.76l0-.81a1.21,1.21,0,0,1,.15-.65.57.57,0,0,1,.52-.24,1,1,0,0,1,.6.18,1.17,1.17,0,0,1,.47,1q0,4.12-.23,10.58a45.84,45.84,0,0,1-.7,8.07l-.25.08-.28.08q-.83.19-1.05-.07a1.6,1.6,0,0,1-.31-.7c-.06-.29-.14-.58-.22-.86s-.39-1.61-.93-4q-2.15-9.45-2.65-11Z"/><path d="M233.7,404.4l1.19-.07q1.14,0,1.14.73a.69.69,0,0,1-.4.66,1.91,1.91,0,0,1-.89.21h-2.83a.9.9,0,0,1-.65-.26A1,1,0,0,1,231,405a5.86,5.86,0,0,1,.06-1,8,8,0,0,0,.08-1l-.15-3.84.21-8.76-.16-2.53q0-2.12,1.26-2.12a1.11,1.11,0,0,1,.66.22l.56.05c.3,0,.56.06.78.09s.47.09.73.16q.85.23.85.81T235,388a11.42,11.42,0,0,0-2.27-.57q0,.64,0,1.29l-.13,4.31s0,.18.09.47l1.07,0q1.45,0,1.45.82a1.25,1.25,0,0,1-.26.78.86.86,0,0,1-.73.34,1.33,1.33,0,0,1-.82-.26h-.76q.09,1.14.09,2.17l-.13,5.43Q232.62,404.4,233.7,404.4Z"/><path d="M240.24,387.46l-.12,7.49a6.35,6.35,0,0,0,1.58.15h1.14v-.63q0-1.38-.21-4.14t-.21-4.14a.72.72,0,0,1,.26-.56.74.74,0,0,1,.45-.23l.34,0,.24,0a.61.61,0,0,1,.21.07q.22.1.22.67,0,3.15.28,9.43t.28,9.43a.46.46,0,0,1-.23.41,1,1,0,0,1-.58.15,1.26,1.26,0,0,1-.66-.18.59.59,0,0,1-.32-.49q-.16-3-.16-7.35v-1.29a3,3,0,0,1-.67.06l-1.86-.28-.09,3.31v.13l.25,4.94a1.35,1.35,0,0,1-.21.76.7.7,0,0,1-.62.32q-.6,0-.83-1.09a15.27,15.27,0,0,1-.23-3l.09-4.57V395.1l.06-1.76-.21-6.77a.9.9,0,0,1,.25-.62.79.79,0,0,1,.6-.27Q240.24,385.68,240.24,387.46Z"/><path d="M249.25,404.22l0,.89a1.2,1.2,0,0,1-.2.74.76.76,0,0,1-.64.26,1.14,1.14,0,0,1-.72-.21.69.69,0,0,1-.26-.62q0-.4.34-7.51t.33-10.72a2.07,2.07,0,0,1,.23-1,.72.72,0,0,1,.54-.29,1,1,0,0,1,.47,0,.58.58,0,0,1,.21.2l.16.26a1.54,1.54,0,0,1,.12.36l.09.37c0,.08,0,.21.07.39l.09.53q0,.26.44,2.08t.87,4.7q.48,2.88,1.11,7.3.92-4.94,1.6-9.36t.71-4.7q0-.28.06-.41c0-.09,0-.22.08-.4a3.83,3.83,0,0,1,.11-.41,2.67,2.67,0,0,1,.15-.34,1,1,0,0,1,.22-.3.93.93,0,0,1,.66-.26,1.36,1.36,0,0,1,.73.22.68.68,0,0,1,.35.6q0,6.88.13,9.54t.12,3.19l0,4.83a1.78,1.78,0,0,1,.13.68,1.56,1.56,0,0,1-.23.77.7.7,0,0,1-.62.41q-.94,0-.94-1.87l0-2.77q0-2.92-.06-5.21,0-1.36,0-7.12-.45,2.81-1.26,7.54t-.86,5c0,.19-.06.37-.08.55s0,.33-.06.45a3,3,0,0,1-.11.44,1.84,1.84,0,0,1-.18.41.79.79,0,0,1-.7.4q-.88,0-1.05-1.29-.23-1.83-1-6.44t-1.08-6.2Q249.25,400.19,249.25,404.22Z"/><path d="M263.32,404.4l1.19-.07q1.14,0,1.14.73a.69.69,0,0,1-.4.66,1.91,1.91,0,0,1-.89.21h-2.83a.9.9,0,0,1-.65-.26,1,1,0,0,1-.29-.67,5.86,5.86,0,0,1,.06-1,8,8,0,0,0,.08-1l-.15-3.84.21-8.76-.16-2.53q0-2.12,1.26-2.12a1.11,1.11,0,0,1,.66.22l.56.05c.3,0,.56.06.78.09s.47.09.73.16q.85.23.85.81t-.88.94a11.42,11.42,0,0,0-2.27-.57q0,.64,0,1.29l-.13,4.31s0,.18.09.47l1.07,0q1.45,0,1.45.82a1.25,1.25,0,0,1-.26.78.86.86,0,0,1-.73.34,1.33,1.33,0,0,1-.82-.26h-.76q.09,1.14.09,2.17l-.13,5.43Q262.24,404.4,263.32,404.4Z"/><path d="M269.74,393.69l.18,7.76v3.4a1.07,1.07,0,0,1-.21.67.67.67,0,0,1-.57.27q-1,0-1-1.83l-.06-10.58.18-5.6q0-2,1.1-2,.66,0,1,1,.41,1.93,1.43,5.56t1.4,5.52q.28.92.72,2.73t.69,2.72q.12-6.5.12-15.76l0-.81a1.21,1.21,0,0,1,.15-.65.57.57,0,0,1,.52-.24,1,1,0,0,1,.6.18,1.17,1.17,0,0,1,.47,1q0,4.12-.23,10.58a45.84,45.84,0,0,1-.7,8.07l-.25.08-.28.08q-.83.19-1.05-.07a1.6,1.6,0,0,1-.31-.7c-.06-.29-.14-.58-.22-.86s-.39-1.61-.93-4q-2.15-9.45-2.65-11Z"/><path d="M58.72,383.13q.59,4.2,1.23,10.94t.64,10.43a.88.88,0,0,1-1,1q-1,0-1-.78v-3.91a4.25,4.25,0,0,0-1.52-.5,17,17,0,0,0-1.94-.26,7.11,7.11,0,0,0-.56,2.51,6.81,6.81,0,0,1-.64,2.61q-1.45,0-1.6-.6.67-1,2.74-12.51.81-4.56,1-5.29.81-3.87,1.74-3.87a1.41,1.41,0,0,1,.89.26ZM58.6,399q0-.54-.29-3.24-.66-6.88-.66-7.7c0-.54,0-.84,0-.89a28.29,28.29,0,0,0-.84,4.25q-.67,4-.75,4.39t-.28,1a8.42,8.42,0,0,0-.42,2,8.22,8.22,0,0,0,2.07.34A5.43,5.43,0,0,0,58.6,399Z"/><path d="M63.55,397.85l.13-9.51q0-1,0-1.55v-.28q0-1.25.85-1.25a6.13,6.13,0,0,1,1.82.38q1.14.38,1.14.89a6.66,6.66,0,0,0,.45,2,6.69,6.69,0,0,1,.45,2,10.46,10.46,0,0,1-.29,2.94,6.76,6.76,0,0,1-.92,1.79,4,4,0,0,1,1.13,2.1,12.46,12.46,0,0,1,.26,2.55,11.81,11.81,0,0,1-.15,2.07,6.19,6.19,0,0,1-.48,1.51,4.92,4.92,0,0,1-.82,1.25,3.76,3.76,0,0,1-2.89,1.14.75.75,0,0,1-.81-.56,3.4,3.4,0,0,1-.13-1Zm1.6,4.1a2,2,0,0,0-.19,1v1.35a2.19,2.19,0,0,0,1.46-1.19,3.9,3.9,0,0,0,.5-1.78q0-.82,0-1.31t-.12-1.19a7.21,7.21,0,0,0-.28-1.23,2,2,0,0,0-1.32-1.48q-.12,1.73-.12,3.6A15.22,15.22,0,0,0,65.15,402Zm0-15.29v7.69q1.51,0,1.51-3.65a9.43,9.43,0,0,0-.22-2Q66,386.75,65.15,386.66Z"/><path d="M73.07,388.71l.09,7.21a4.94,4.94,0,0,0-.18,1.63l-.12,4.78q0,2.07,1,2.07l1.25,0q1.61,0,1.61.88a.65.65,0,0,1-.28.53,1.27,1.27,0,0,1-.63.26,8.88,8.88,0,0,0-2.68-.35,1.87,1.87,0,0,1-.93.28.84.84,0,0,1-.7-.31,1,1,0,0,1-.25-.67l.29-13.4v-.22q-.09-.94-.09-2.81,0-2.84,1-2.84a.74.74,0,0,1,.53.22.71.71,0,0,1,.23.53Z"/><path d="M81.76,404.4l1.19-.07q1.14,0,1.14.73a.69.69,0,0,1-.4.66,1.91,1.91,0,0,1-.89.21H80a.9.9,0,0,1-.65-.26A1,1,0,0,1,79,405a5.86,5.86,0,0,1,.06-1,8,8,0,0,0,.08-1L79,399.14l.21-8.76-.16-2.53q0-2.12,1.26-2.12a1.11,1.11,0,0,1,.66.22l.56.05c.3,0,.56.06.78.09s.47.09.73.16q.85.23.85.81T83,388a11.42,11.42,0,0,0-2.27-.57q0,.64,0,1.29L80.68,393s0,.18.09.47l1.07,0q1.45,0,1.45.82A1.25,1.25,0,0,1,83,395a.86.86,0,0,1-.73.34,1.33,1.33,0,0,1-.82-.26h-.76q.09,1.14.09,2.17l-.13,5.43Q80.68,404.4,81.76,404.4Z"/><path d="M88.29,387.46l-.12,7.49a6.35,6.35,0,0,0,1.58.15H90.9v-.63q0-1.38-.21-4.14t-.21-4.14a.72.72,0,0,1,.26-.56.74.74,0,0,1,.45-.23l.34,0,.24,0a.61.61,0,0,1,.21.07q.22.1.22.67,0,3.15.28,9.43t.28,9.43a.46.46,0,0,1-.23.41,1,1,0,0,1-.58.15,1.26,1.26,0,0,1-.66-.18.59.59,0,0,1-.32-.49q-.16-3-.16-7.35v-1.29a3,3,0,0,1-.67.06L88.26,396l-.09,3.31v.13l.25,4.94a1.35,1.35,0,0,1-.21.76.7.7,0,0,1-.62.32q-.6,0-.83-1.09a15.27,15.27,0,0,1-.23-3l.09-4.57V395.1l.06-1.76-.21-6.77a.9.9,0,0,1,.25-.62.79.79,0,0,1,.6-.27Q88.29,385.68,88.29,387.46Z"/><path d="M97.36,393.69l.18,7.76v3.4a1.07,1.07,0,0,1-.21.67.67.67,0,0,1-.57.27q-1,0-1-1.83l-.06-10.58.18-5.6q0-2,1.1-2,.66,0,1,1,.41,1.93,1.43,5.56t1.4,5.52q.28.92.72,2.73t.69,2.72q.12-6.5.12-15.76l0-.81a1.21,1.21,0,0,1,.15-.65.57.57,0,0,1,.52-.24,1,1,0,0,1,.6.18,1.17,1.17,0,0,1,.47,1q0,4.12-.23,10.58a45.84,45.84,0,0,1-.7,8.07l-.25.08-.28.08q-.83.19-1.05-.07a1.6,1.6,0,0,1-.31-.7c-.06-.29-.14-.58-.22-.86s-.39-1.61-.93-4q-2.15-9.45-2.65-11Z"/><path d="M109.78,404.4l1.19-.07q1.14,0,1.14.73a.69.69,0,0,1-.4.66,1.91,1.91,0,0,1-.89.21H108a.9.9,0,0,1-.65-.26A1,1,0,0,1,107,405a5.86,5.86,0,0,1,.06-1,8,8,0,0,0,.08-1l-.15-3.84.21-8.76-.16-2.53q0-2.12,1.26-2.12a1.11,1.11,0,0,1,.66.22l.56.05c.3,0,.56.06.78.09s.47.09.73.16q.85.23.85.81t-.88.94a11.42,11.42,0,0,0-2.27-.57q0,.64,0,1.29L108.7,393s0,.18.09.47l1.07,0q1.45,0,1.45.82a1.25,1.25,0,0,1-.26.78.86.86,0,0,1-.73.34,1.33,1.33,0,0,1-.82-.26h-.76q.09,1.14.09,2.17l-.13,5.43Q108.7,404.4,109.78,404.4Z"/><path d="M116.2,393.69l.18,7.76v3.4a1.07,1.07,0,0,1-.21.67.67.67,0,0,1-.57.27q-1,0-1-1.83l-.06-10.58.18-5.6q0-2,1.1-2,.66,0,1,1,.41,1.93,1.43,5.56t1.4,5.52q.28.92.72,2.73t.69,2.72q.12-6.5.12-15.76l0-.81a1.21,1.21,0,0,1,.15-.65.57.57,0,0,1,.52-.24,1,1,0,0,1,.6.18,1.17,1.17,0,0,1,.47,1q0,4.12-.23,10.58a45.84,45.84,0,0,1-.7,8.07l-.25.08-.28.08q-.83.19-1.05-.07a1.6,1.6,0,0,1-.31-.7c-.06-.29-.14-.58-.22-.86s-.39-1.61-.93-4q-2.15-9.45-2.65-11Z"/></svg>