<svg id="Ebene_1" data-name="Ebene 1" xmlns="http://www.w3.org/2000/svg" xmlns:xlink="http://www.w3.org/1999/xlink" viewBox="0 0 165.56 191.23"><defs><style>.cls-1{fill:#af896d;}.cls-2{fill:#d1ae8b;}.cls-3{fill:#ba9778;}.cls-4,.cls-9{fill:#fff;}.cls-4{stroke:#000;stroke-miterlimit:10;}.cls-5{fill:url(#linear-gradient);}.cls-16,.cls-17,.cls-24,.cls-34,.cls-6{opacity:0.2;}.cls-6{fill:url(#linear-gradient-2);}.cls-10,.cls-11,.cls-12,.cls-14,.cls-15,.cls-20,.cls-21,.cls-23,.cls-25,.cls-26,.cls-27,.cls-28,.cls-29,.cls-30,.cls-31,.cls-32,.cls-33,.cls-7,.cls-8,.cls-9{opacity:0.38;}.cls-7{fill:url(#linear-gradient-3);}.cls-8{fill:url(#linear-gradient-4);}.cls-10{fill:url(#linear-gradient-5);}.cls-11{fill:url(#linear-gradient-6);}.cls-12{fill:url(#linear-gradient-7);}.cls-13{fill:#066f39;}.cls-14{fill:url(#linear-gradient-8);}.cls-15{fill:url(#linear-gradient-9);}.cls-16{fill:url(#linear-gradient-10);}.cls-18{fill:url(#linear-gradient-11);}.cls-19{fill:url(#linear-gradient-12);}.cls-20{fill:url(#linear-gradient-13);}.cls-21{fill:url(#linear-gradient-14);}.cls-22{fill:#e62123;}.cls-23{fill:url(#linear-gradient-15);}.cls-24{fill:url(#linear-gradient-16);}.cls-25{fill:url(#linear-gradient-17);}.cls-26{fill:url(#linear-gradient-18);}.cls-27{fill:url(#linear-gradient-19);}.cls-28{fill:url(#linear-gradient-20);}.cls-29{fill:url(#linear-gradient-21);}.cls-30{fill:url(#linear-gradient-22);}.cls-31{fill:url(#linear-gradient-23);}.cls-32{fill:url(#linear-gradient-24);}.cls-33{fill:url(#linear-gradient-25);}.cls-34{fill:url(#linear-gradient-26);}.cls-35{fill:url(#linear-gradient-27);}.cls-36{fill:url(#linear-gradient-28);}</style><linearGradient id="linear-gradient" x1="412.59" y1="67.43" x2="398.45" y2="149.56" gradientTransform="matrix(0.5, -0.87, -0.87, -0.5, 37.62, 667.6)" gradientUnits="userSpaceOnUse"><stop offset="0" stop-color="#d1902e"/><stop offset="1" stop-color="#e62123"/></linearGradient><linearGradient id="linear-gradient-2" x1="408.71" y1="110.24" x2="415.9" y2="110.24" gradientTransform="matrix(0.5, -0.87, -0.87, -0.5, 37.62, 667.6)" gradientUnits="userSpaceOnUse"><stop offset="0"/><stop offset="1" stop-color="#231f20" stop-opacity="0"/></linearGradient><linearGradient id="linear-gradient-3" x1="397.17" y1="109.41" x2="408.93" y2="109.41" gradientTransform="matrix(0.5, -0.87, -0.87, -0.5, 37.62, 667.6)" gradientUnits="userSpaceOnUse"><stop offset="0" stop-color="#fff"/><stop offset="1" stop-color="#fff" stop-opacity="0"/></linearGradient><linearGradient id="linear-gradient-4" x1="398.54" y1="125.13" x2="398.54" y2="119.1" xlink:href="#linear-gradient-3"/><linearGradient id="linear-gradient-5" x1="406.74" y1="103.38" x2="406.74" y2="101.27" xlink:href="#linear-gradient-3"/><linearGradient id="linear-gradient-6" x1="404.81" y1="99.52" x2="404.81" y2="97.41" xlink:href="#linear-gradient-3"/><linearGradient id="linear-gradient-7" x1="402.58" y1="88.63" x2="402.58" y2="86.52" xlink:href="#linear-gradient-3"/><linearGradient id="linear-gradient-8" x1="347.2" y1="-237.34" x2="347.2" y2="-241.17" gradientTransform="matrix(-0.07, -1, -1, 0.07, -36.4, 651.1)" xlink:href="#linear-gradient-3"/><linearGradient id="linear-gradient-9" x1="366.99" y1="91.81" x2="366.99" y2="89.31" gradientTransform="matrix(0.59, -0.8, -0.8, -0.59, 35.57, 629.64)" xlink:href="#linear-gradient-3"/><linearGradient id="linear-gradient-10" x1="406.9" y1="59.57" x2="417.33" y2="59.57" xlink:href="#linear-gradient-2"/><linearGradient id="linear-gradient-11" x1="400.16" y1="71.93" x2="391.88" y2="71.91" xlink:href="#linear-gradient-2"/><linearGradient id="linear-gradient-12" x1="408.59" y1="71.54" x2="406.01" y2="71.54" xlink:href="#linear-gradient-2"/><linearGradient id="linear-gradient-13" x1="406.96" y1="49.39" x2="406.96" y2="44.49" xlink:href="#linear-gradient-3"/><linearGradient id="linear-gradient-14" x1="394.74" y1="92.75" x2="394.74" y2="86.72" xlink:href="#linear-gradient-3"/><linearGradient id="linear-gradient-15" x1="452.65" y1="11.35" x2="452.65" y2="5.65" gradientTransform="translate(348.06 671.72) rotate(-115.95)" xlink:href="#linear-gradient-3"/><linearGradient id="linear-gradient-16" x1="457.73" y1="8.32" x2="450.21" y2="8.69" gradientTransform="translate(348.06 671.72) rotate(-115.95)" xlink:href="#linear-gradient-2"/><linearGradient id="linear-gradient-17" x1="442.43" y1="8.16" x2="453.54" y2="8.16" gradientTransform="translate(348.06 671.72) rotate(-115.95)" xlink:href="#linear-gradient-3"/><linearGradient id="linear-gradient-18" x1="449.43" y1="-6.45" x2="449.43" y2="-12.15" gradientTransform="translate(348.06 671.72) rotate(-115.95)" xlink:href="#linear-gradient-3"/><linearGradient id="linear-gradient-19" x1="442.39" y1="-16.99" x2="442.39" y2="-22.69" gradientTransform="translate(348.06 671.72) rotate(-115.95)" xlink:href="#linear-gradient-3"/><linearGradient id="linear-gradient-20" x1="447.83" y1="4.47" x2="447.83" y2="1.06" gradientTransform="translate(348.06 671.72) rotate(-115.95)" xlink:href="#linear-gradient-3"/><linearGradient id="linear-gradient-21" x1="452.94" y1="-20.87" x2="452.94" y2="-25.3" gradientTransform="translate(348.06 671.72) rotate(-115.95)" xlink:href="#linear-gradient-3"/><linearGradient id="linear-gradient-22" x1="442.67" y1="15.08" x2="442.67" y2="9.39" gradientTransform="translate(348.06 671.72) rotate(-115.95)" xlink:href="#linear-gradient-3"/><linearGradient id="linear-gradient-23" x1="453.99" y1="49.27" x2="453.99" y2="41.01" gradientTransform="translate(348.06 671.72) rotate(-115.95)" xlink:href="#linear-gradient-3"/><linearGradient id="linear-gradient-24" x1="328.54" y1="-345.57" x2="328.54" y2="-349.19" gradientTransform="translate(423.08 660.58) rotate(-81.8)" xlink:href="#linear-gradient-3"/><linearGradient id="linear-gradient-25" x1="422.6" y1="-2.69" x2="422.6" y2="-5.05" gradientTransform="translate(352.83 634) rotate(-122.3)" xlink:href="#linear-gradient-3"/><linearGradient id="linear-gradient-26" x1="451.69" y1="-39.87" x2="461.55" y2="-39.87" gradientTransform="translate(348.06 671.72) rotate(-115.95)" xlink:href="#linear-gradient-2"/><linearGradient id="linear-gradient-27" x1="445.33" y1="-28.18" x2="437.51" y2="-28.2" gradientTransform="translate(348.06 671.72) rotate(-115.95)" xlink:href="#linear-gradient-2"/><linearGradient id="linear-gradient-28" x1="453.3" y1="-28.55" x2="450.85" y2="-28.55" gradientTransform="translate(348.06 671.72) rotate(-115.95)" xlink:href="#linear-gradient-2"/></defs><title>danger_tüte</title><polygon class="cls-1" points="52 6 58 2 66 6 72 2 79 6 83 4 85.33 2 91 8 99.33 2 106 8 111 4 116 9 124 4 131 8 138 4 143 9 149 5 155 9 162 7 163 72 2 74 3 30 11 29 14 21 21 23 25 17 28 19 37 11 42 12 46 6 52 6"/><polygon class="cls-2" points="2.5 188.5 2.5 30.5 9.5 36.5 13.5 30.5 21.5 37.5 30.5 32.5 37.5 36.5 45.5 31.5 52.5 35.5 60.5 32.5 68.5 35.5 77.5 30.5 83.5 34.5 90.5 30.5 99.5 35.5 106.5 30.5 112.5 35.5 118.5 31.5 125.5 32.5 126 189 2.5 188.5"/><path class="cls-2" d="M252,129V279l-35,30,18-44c-3-1,0-121,0-121l6-7,6-2Z" transform="translate(-89 -120)"/><polygon class="cls-3" points="126 30 128 187 146 145 146 24 141 23 136 29.48 126 30"/><g id="Paperbag"><path d="M254.54,233.1V132.16c0-9.58,0-8.53-8.24-6.49a4.34,4.34,0,0,1-3.4-.74c-2.56-2.52-5.23-2.66-7,.49-1.93,3.42-3.87,1.62-4.57,0-1.84-4.36-3.76-4-7-1.2-1.09.94-4.2,1.46-5.08.78-5.26-4.12-5.13-4.26-10.15-.16-2.53,2.07-4.56,1.94-5.87-.75-1.4-2.89-3.42-2.64-5.33-1-2.1,1.75-3.78,1.86-5.41-.18-2.19-2.74-4.17-2.66-6.3,0a13.73,13.73,0,0,1-2.19,2c-2.88,2.33-4.1,2.13-5.92-.92-1.73-2.89-3.83-3.68-6.06-1.51-3,2.93-5,1.95-7.11-.57s-3.69-2.42-5.74,0c-3,3.47-4.77,3.3-7.6.06-2.22-2.54-5-2.56-7.17,0-1.91,2.23-4.3,1.51-6.67,1.6-1.27,0-2.83.13-3.69.81A9.44,9.44,0,0,0,131.5,128c-.91,2.05-2.08,2.69-4.19,1.33s-3.46-.14-4.43,1.53c-.68,1.17-1,2.56-1.94,3.53a3.7,3.7,0,0,1-2.92,1c-5.09-1.48-5.32-1.53-7.1,3.4-.69,1.93-1.49,2.6-3.4,1.39-2.33-1.48-3.72-.9-4.75.8q-.24.52-.52,1a14.08,14.08,0,0,1-1.21,2.23,4.56,4.56,0,0,1-1.67,2,6.35,6.35,0,0,1-2,1.26,8.62,8.62,0,0,1-1,.31,4.94,4.94,0,0,1-2.29.53,5.26,5.26,0,0,1-1.7-.27c-2.78.37-3.3,1.51-3.3,5.23v2a18.6,18.6,0,0,1,0,3.94v6a4.48,4.48,0,0,1,0,3.65Q89,237,89,305.05c0,4.87,1.37,6.15,6.6,6.15q55.41,0,110.83,0c2.83,0,6,.33,8.4-.67a45.7,45.7,0,0,0,10.05-6.22c4.21-3.23,8-6.92,12.12-10.25,4.82-3.9,10-7.44,14.63-11.52a9,9,0,0,0,2.78-6C254.65,262.05,254.54,247.57,254.54,233.1Zm-159-83.71c5.38.27,6.42-.26,8.27-4.82.69-1.71,1.44-2,3.35-1.2,4.84,2,6,1.37,6.83-3.42.27-1.57.48-2.59,2.85-1.42,3.6,1.79,5.52,1.14,7.05-2.3,1.06-2.39,2.25-3.33,5.13-2.69,2.35.52,4.17-.29,4.55-2.92a5.39,5.39,0,0,1,1.55-2.59,3,3,0,0,1,2-.79c.36,0,1,.83,1,1.29q.1,10.18,0,20.37c0,.37-1,1.12-1.16,1-3.41-1.72-4.91,1-6.43,2.62-2.63,2.84-3.34,3-5.78-.09a19.84,19.84,0,0,0-2.18-2c-4-.91-5.2,2-7.07,3.75-2.18,2-3.41,1.9-4.67-.59-.31-.61-1-1-1.4-1.61-2.21-3-3.65-3.16-6.48-.73l-.28.25c-3.5,3.1-5,3-8.16-.32-.26-.28-.59-.9-.51-1C94.46,149.85,95,149.36,95.54,149.39ZM209,307.63q-50.14,0-100.28,0c-3.79,0-7.6.36-11.38.71s-4.95-1.6-5.21-4.52c-.05-.59,0-1.19,0-1.79q0-72.47,0-144.94a17.2,17.2,0,0,1,.72-3.46,20.75,20.75,0,0,1,2.81,2.23c2.48,2.77,3.8,2.83,6.78.1,3.43-3.14,3.43-3.14,6.06.78s4.19,4.15,7.82.81a5.63,5.63,0,0,0,1.09-1c2-3.33,3.93-2.42,6.26-.16,4,3.86,4.95,3.69,8.26-.81,2.48-3.37,3.53-3.58,6.38-.68,3.62,3.68,4.89,2.88,8.87.08,3.49-2.45,5-2.45,7.39.74s3.95,3.21,6.93.51c.93-.84,1.81-1.72,2.77-2.52,1.65-1.37,3-1.33,4.38.51,3.13,4.22,4.41,4.29,8.25.78,4.09-3.74,4.09-3.74,7.36.44,2.53,3.24,4.13,3.34,7.26.48,3.76-3.44,3.74-3.43,7.13.54,1.68,2,3.36,2.09,5.42.22,1.37-1.24,3.11-2.66,4.86-2.91,3.8-.54,5,.71,5,4.21q0,36,0,71.94c0,24.81,0,48.91,0,73C214,308.33,213.7,307.63,209,307.63Zm4.23-158a6.31,6.31,0,0,1-3.14.11c-2.53-.79-4.2-.4-5.59,1.9-1.69,2.79-3.28,2.64-5.41-.16s-3.9-3-6.76-.53c-4.23,3.61-4.25,3.62-7.29-.92-1.54-2.31-3.64-1.55-5.61-.79-.78.3-1.31,1.13-2,1.72-3.68,3.37-3.68,3.37-7.08-.3-2.1-2.27-4.72-2.15-7.81.35-4.13,3.35-4.13,3.35-8.14.05-2.79-2.3-4.85-2.19-7.79.18a35.65,35.65,0,0,1-4,2.45,34.22,34.22,0,0,1-.58-4.3c-.07-5.37,0-10.74,0-16.11,0-3.59-.11-6.31,3.09-8.33,2.4-1.51,3.8-1.1,5.62.52,3.76,3.34,4.87,3.43,8.8.25,1.53-1.24,2.29-1.63,3.92-.09,3.95,3.73,4,3.57,8.92.72a3.69,3.69,0,0,1,3.11.48c5.88,4.65,5.94,4.78,11.17-.2,1.8-1.71,2.9-1.77,4.44.06,2.33,2.76,4.78,2.79,7.26.07.84-.92,1.3-1.8,2.54.18,3.46,5.56,4.38,4.74,9,1.27,4-3,3.69-3,8,0,1.32.89,4.29.75,5.92,0,2.45-1.11,3.88-2.08,5.82.77,1.17,1.71,3.46,2.89,6.08.82,1.87-1.48,4.09-3.3,6.78-.53.56.58,2.48.09,3.77,0a15.46,15.46,0,0,0,1.89-.31c-.25.5-.55,1-.76,1.49-.89,2.17-2.22,3.13-5.07,3.41-2.08.2-4.41,2.2-5.73,4s-2.52,2.54-4.58,2.23c-3.84-.59-6,1.26-7.22,4.21-1.12,2.78-2.88,3.93-6.2,3.8C216.92,148,215.1,149.14,213.24,149.59Zm4.95,150.83c-.37-.69-1.08-1.39-1.07-2.08q.3-33.49.73-67c0-25.89,0-51.06-.05-76.23,0-3.16,1.11-4.45,4.66-4.47,1.33,0,2.78-1.35,3.94-2.32.76-.64.93-1.84,1.65-2.55a21.71,21.71,0,0,1,3.08-2.16c.52,1,1.42,2.07,1.49,3.13.2,3.09.07,6.2.07,9.3,0,36.39-.11,72.77.11,109.16a32.32,32.32,0,0,1-4,15.34c-3.13,6.09-6.24,12.18-9.39,18.26A11.81,11.81,0,0,1,218.18,300.42Zm28.91-17.83c-6.92,5.38-13.86,10.74-20.73,16.17-1.93,1.52-3.6,3.31-5.45,4.92-.26.23-.86.13-1.31.19a3.47,3.47,0,0,1,.16-1.21c4.29-8,8.5-16.07,13-24,1.31-2.33,3.55-3.76,6.58-1.84,2.95,1,5.07,2,7.29,2.84S248.71,281.34,247.09,282.59Zm2.39-5.12c-4.33-1.65-8.63-3.39-12.8-5.35-.65-.3-.83-1.84-.84-2.82-.08-5.73,0-11.46,0-17.19,0-35.45.07-70.18-.12-104.9,0-2.94,2.16-4.27,3.1-6.39,1.24-2.79,3.13-3,5.84-3,2.28,0,3.58-1.36,3.8-3.67.07-.72,1.51-1.32,2.33-2,0,.84-.08,1.67-.09,2.51s0,1.91,0,2.86q0,60.51,0,121c0,5.91.53,11.82.66,17.73C251.34,276.69,249.87,277.62,249.48,277.47Z" transform="translate(-89 -120)"/></g><path class="cls-4" d="M153.48,167A35.13,35.13,0,0,0,122,218.69a30,30,0,0,1,3.63,14.16v2.29a2,2,0,0,0,1,1.73l2.55,1.54a1.35,1.35,0,0,0,2.05-1.16v-2.45a1.35,1.35,0,0,1,2.06-1.15l1.69,1a1.35,1.35,0,0,1,.64,1.15v5.4a2,2,0,0,0,1.37,1.92l1.74.6a1.35,1.35,0,0,0,1.79-1.28V239.1a1.35,1.35,0,0,1,1.76-1.29l2.2.7a1.35,1.35,0,0,1,.94,1.29v5.72a1.69,1.69,0,0,0,1.37,1.66l2.09.4a1.35,1.35,0,0,0,1.6-1.33v-5.58a1.35,1.35,0,0,1,1.35-1.35h2.36a1.35,1.35,0,0,1,1.35,1.35v5.58a1.35,1.35,0,0,0,1.6,1.33l2.09-.4a1.69,1.69,0,0,0,1.37-1.66V239.8a1.35,1.35,0,0,1,.94-1.29l2.2-.7a1.35,1.35,0,0,1,1.76,1.29v3.39a1.35,1.35,0,0,0,1.79,1.28l1.74-.6a2,2,0,0,0,1.37-1.92v-5.4a1.35,1.35,0,0,1,.64-1.15l1.69-1a1.35,1.35,0,0,1,2.06,1.15v2.45a1.35,1.35,0,0,0,2.05,1.16l2.55-1.54a2,2,0,0,0,1-1.73v-2.3A30.11,30.11,0,0,1,184,218.66,35.13,35.13,0,0,0,153.48,167Z" transform="translate(-89 -120)"/><circle cx="79.37" cy="90" r="11.24"/><circle cx="48.59" cy="90" r="11.24"/><path d="M148.84,225h0a2.45,2.45,0,0,0,2.22,2.46,2.19,2.19,0,0,0,1.92-1.34,2.19,2.19,0,0,0,1.92,1.34,2.45,2.45,0,0,0,2.22-2.46h0s.37-3.78-4.15-6.71C148.46,221.2,148.84,225,148.84,225Z" transform="translate(-89 -120)"/><path class="cls-5" d="M176.18,267.23A23.43,23.43,0,0,1,180,270a12.3,12.3,0,0,1,4.53,8.64l-1.35,5.65s-.69,3.58-6.11,3.7c-4.93.1-12.11-2.56-21.36-7.91h0a136.59,136.59,0,0,1-17.17-11.67c-8.48-6.72-19.86-17.42-25.87-30.18,0,0-1.27-2.59.48-3.28l0,0,0,0a1.71,1.71,0,0,1,1.72-.32,9.85,9.85,0,0,1,3.91,2.39l.89.79c2.54,2.24,4.62,4.07,6.8,5.67h0c1.68,1.28,2.58,2,3.4,2.52a102.83,102.83,0,0,0,14.94,8.92,159,159,0,0,0,24.43,9.41A33.1,33.1,0,0,1,176.18,267.23Z" transform="translate(-89 -120)"/><path class="cls-6" d="M169.33,264.26a33.1,33.1,0,0,1,6.85,3A23.43,23.43,0,0,1,180,270a12.82,12.82,0,0,1,4.33,7.09c-1.34-1.34-3.4-2.86-5-3-3.45-.21-7.41-6.06-12.73-8.55s-15.23-3.22-27.12-11.51c-8.3-5.8-21.73-16.39-27.26-17.74a1.43,1.43,0,0,1,.93-1.39l0,0,0,0a1.71,1.71,0,0,1,1.72-.32,9.85,9.85,0,0,1,3.91,2.39l.89.79c2.54,2.24,4.62,4.07,6.8,5.67h0c1.68,1.28,2.58,2,3.4,2.52a102.83,102.83,0,0,0,14.94,8.92A159,159,0,0,0,169.33,264.26Z" transform="translate(-89 -120)"/><path class="cls-7" d="M175.24,282.09c1.15-1.07-5.17,1.76-16.5-5.48-23.5-15-41.48-36.93-41.55-35.31C117.06,244.06,164.41,292.21,175.24,282.09Z" transform="translate(-89 -120)"/><path class="cls-8" d="M134.34,262.89s-6.56-.53-5.35-2.78,5.52,2.49,5.52,2.49" transform="translate(-89 -120)"/><path class="cls-9" d="M131.34,261.91s-1.34-.07-1.61-1.06S128.7,261.87,131.34,261.91Z" transform="translate(-89 -120)"/><path class="cls-10" d="M153.82,264.81s-2.3-.18-1.87-1,1.93.87,1.93.87" transform="translate(-89 -120)"/><path class="cls-9" d="M152.78,264.47s-.47,0-.56-.37S151.85,264.46,152.78,264.47Z" transform="translate(-89 -120)"/><path class="cls-11" d="M156.2,268.42s-2.3-.18-1.87-1,1.93.87,1.93.87" transform="translate(-89 -120)"/><path class="cls-9" d="M155.15,268.07s-.47,0-.56-.37S154.23,268.06,155.15,268.07Z" transform="translate(-89 -120)"/><path class="cls-12" d="M164.51,275.81s-2.3-.18-1.87-1,1.93.87,1.93.87" transform="translate(-89 -120)"/><path class="cls-9" d="M163.46,275.47s-.47,0-.56-.37S162.53,275.45,163.46,275.47Z" transform="translate(-89 -120)"/><path class="cls-13" d="M185,274c1.72,1.7,1.28,5.11,2.51,7a2,2,0,0,1,.44,1.51s13.2,8,14,8.73l.09.09c.41.39,1,.93,1,1.39s-.45.76-1.38,1a4,4,0,0,1-1.6.09,1.25,1.25,0,0,1-.66-.39l-.13-.16h0c-1.1-1.33-5-5.87-8.25-7.42a9.19,9.19,0,0,0-3.84-.92c-.31.56-2.48.63-3.36,1a19.65,19.65,0,0,1-13,1.94,26.33,26.33,0,0,0,6.18-2.07,24,24,0,0,0,3.9-2.22,8.47,8.47,0,0,0-1.27-3c-.47-.64-2.76-2.53-2.7-2.7s2.14.8,6.67,1l.32,0-.09-.25a52.82,52.82,0,0,1-1.51-9.54C182.39,269,183.76,272.71,185,274Z" transform="translate(-89 -120)"/><path class="cls-14" d="M179.48,287.54s-3.64,2.06-3.81.45,3.79-.66,3.79-.66" transform="translate(-89 -120)"/><path class="cls-9" d="M177.56,288.09s-.73.44-1.23,0S176.16,289,177.56,288.09Z" transform="translate(-89 -120)"/><path class="cls-15" d="M181.69,281.28s-2.68-.52-2.08-1.39,2.16,1.28,2.16,1.28" transform="translate(-89 -120)"/><path class="cls-9" d="M180.5,280.74s-.55-.09-.62-.51S179.41,280.6,180.5,280.74Z" transform="translate(-89 -120)"/><path class="cls-16" d="M185,274c1.72,1.7,1.28,5.11,2.51,7a2,2,0,0,1,.44,1.51s13.2,8,14,8.73l.09.09c.41.39,1,.93,1,1.39a.59.59,0,0,1-.19.44,2.62,2.62,0,0,0-1.77-1.79c-1.45-.4-2.19-1.71-3.91-2.71s-3-2-5.08-3.12l-4.44-2.4s.73-1.42-.36-1.66-.56-1.08-.93-2-1-1.31-1.13-2.07.19-2-.84-2.52c-.71-.35-1.73-3.6-2-5.66C182.66,269.74,183.88,272.83,185,274Z" transform="translate(-89 -120)"/><g class="cls-17"><path class="cls-18" d="M176.93,285.7a32.38,32.38,0,0,0,3.51-1.94h0c-.39.27-.33,1-1,1.06a7.39,7.39,0,0,0-2.56,1.39c-.22.31-1.19.46-1.74.49a15.16,15.16,0,0,0-2,.71c-.49.12-2.43.36-2.43.36A26.33,26.33,0,0,0,176.93,285.7Z" transform="translate(-89 -120)"/><path class="cls-19" d="M179,278.82c-.75-.08-1.23-.9-2.15-1,.1-.3,2.14.8,6.67,1l.32,0s-.71.57-1.12.34a3.86,3.86,0,0,0-1.79-.16A13,13,0,0,1,179,278.82Z" transform="translate(-89 -120)"/></g><path class="cls-20" d="M202.55,292.89s-4.67-.51-3.73-2.26,4.1,2.69,4.1,2.69" transform="translate(-89 -120)"/><path class="cls-9" d="M200.66,292s-1-.05-1.25-.83S198.6,292,200.66,292Z" transform="translate(-89 -120)"/><path class="cls-21" d="M160.46,282.4s-6.56-.53-5.35-2.78,5.52,2.49,5.52,2.49" transform="translate(-89 -120)"/><path class="cls-9" d="M157.46,281.42s-1.34-.07-1.61-1.06S154.82,281.38,157.46,281.42Z" transform="translate(-89 -120)"/><path class="cls-22" d="M129.48,265.23a22.14,22.14,0,0,0-3.82,2.33,11.62,11.62,0,0,0-4.85,7.83l.89,5.41s.41,3.43,5.5,3.9c4.63.43,11.59-1.59,20.67-6h0a129.05,129.05,0,0,0,17-9.83c8.45-5.76,19.9-15.06,26.43-26.68,0,0,1.37-2.36-.23-3.13l0,0,0,0a1.62,1.62,0,0,0-1.6-.42,9.31,9.31,0,0,0-3.84,2l-.89.68c-2.55,1.94-4.63,3.52-6.8,4.88h0c-1.67,1.1-2.56,1.67-3.38,2.15a97.16,97.16,0,0,1-14.68,7.39,150.19,150.19,0,0,1-23.66,7.21A31.27,31.27,0,0,0,129.48,265.23Z" transform="translate(-89 -120)"/><path class="cls-23" d="M155,262.08s6.22-.05,5.24-2.26-5.37,2-5.37,2" transform="translate(-89 -120)"/><path class="cls-9" d="M157.93,261.36s1.27,0,1.59-.89S160.42,261.51,157.93,261.36Z" transform="translate(-89 -120)"/><path class="cls-24" d="M185.57,240.57l-.89.68c-2.55,1.94-4.63,3.52-6.8,4.88h0c-1.67,1.1-2.56,1.67-3.38,2.15a97.16,97.16,0,0,1-14.68,7.39,150.19,150.19,0,0,1-23.66,7.21,31.27,31.27,0,0,0-6.66,2.33,22.14,22.14,0,0,0-3.82,2.33,11.62,11.62,0,0,0-4.85,7.83l.35,2.15v0c-.16-.34,3.55.59,3.55.59l3-1.48-3.28-.5s-3.53-2,2.56-5.14c0,0,11.63-6.92,16-5.06s7.64-2.09,14.36-4.82,8.3-6.92,14.46-9.47c5.09-2.11,15.32-12.82,20-11.68a1.28,1.28,0,0,0-.74-.91l0,0,0,0a1.62,1.62,0,0,0-1.6-.42A9.31,9.31,0,0,0,185.57,240.57Z" transform="translate(-89 -120)"/><path class="cls-25" d="M129.58,280.33c-1-1.09,4.75,2,15.92-4,23.16-12.56,41.6-32,41.56-30.45C187,248.44,139.1,290.6,129.58,280.33Z" transform="translate(-89 -120)"/><path class="cls-26" d="M140.44,272.77s6.22-.05,5.24-2.26-5.37,2-5.37,2" transform="translate(-89 -120)"/><path class="cls-9" d="M143.33,272.05s1.27,0,1.59-.89S145.82,272.2,143.33,272.05Z" transform="translate(-89 -120)"/><path class="cls-27" d="M134,283.72s6.22-.05,5.24-2.26-5.37,2-5.37,2" transform="translate(-89 -120)"/><path class="cls-9" d="M136.93,283s1.27,0,1.59-.89S139.43,283.14,136.93,283Z" transform="translate(-89 -120)"/><path class="cls-28" d="M153,268.48s3.73,0,3.14-1.35-3.22,1.18-3.22,1.18" transform="translate(-89 -120)"/><path class="cls-9" d="M154.77,268.05s.76,0,1-.53S156.27,268.14,154.77,268.05Z" transform="translate(-89 -120)"/><path class="cls-29" d="M127.09,275.39s4.84,0,4.07-1.75-4.18,1.53-4.18,1.53" transform="translate(-89 -120)"/><path class="cls-9" d="M129.34,274.83s1,0,1.24-.69S131.28,274.94,129.34,274.83Z" transform="translate(-89 -120)"/><path class="cls-30" d="M162.76,269.43s6.22-.05,5.24-2.26-5.37,2-5.37,2" transform="translate(-89 -120)"/><path class="cls-9" d="M165.65,268.71s1.27,0,1.59-.89S168.14,268.86,165.65,268.71Z" transform="translate(-89 -120)"/><path class="cls-31" d="M187.43,247.84s7.34-3.81,6.4-5.73c-1.94-4-3.23-1.83-6.23,3.84" transform="translate(-89 -120)"/><path class="cls-9" d="M191.43,244.22a3.21,3.21,0,0,0,1.21-1.38C192.93,242,193.22,243.74,191.43,244.22Z" transform="translate(-89 -120)"/><path class="cls-13" d="M120.05,272.33c-1.74,1.49-1.55,4.73-2.84,6.39a1.86,1.86,0,0,0-.52,1.39s-13,6.62-13.76,7.28l-.09.07c-.41.34-1,.81-1,1.24s.37.75,1.23,1a3.8,3.8,0,0,0,1.5.19,1.18,1.18,0,0,0,.65-.32l.13-.14h0c1.13-1.18,5.1-5.19,8.28-6.43a8.69,8.69,0,0,1,3.68-.6c.25.55,2.29.76,3.09,1.21a18.56,18.56,0,0,0,12.15,2.72,24.88,24.88,0,0,1-5.68-2.38,22.7,22.7,0,0,1-3.52-2.35,8,8,0,0,1,1.4-2.72c.49-.57,2.77-2.19,2.73-2.36s-2.07.61-6.35.48h-.3l.1-.23a49.9,49.9,0,0,0,2.07-8.89C122.86,267.87,121.32,271.24,120.05,272.33Z" transform="translate(-89 -120)"/><path class="cls-32" d="M124.34,285.51s3.29,2.19,3.56.68-3.53-.88-3.53-.88" transform="translate(-89 -120)"/><path class="cls-9" d="M126.11,286.16s.66.47,1.16.1S127.37,287.13,126.11,286.16Z" transform="translate(-89 -120)"/><path class="cls-33" d="M122.68,279.46s2.56-.31,2.06-1.17-2.12,1.06-2.12,1.06" transform="translate(-89 -120)"/><path class="cls-9" d="M123.84,279s.52,0,.62-.44S124.88,279,123.84,279Z" transform="translate(-89 -120)"/><path class="cls-34" d="M120.05,272.33c-1.74,1.49-1.55,4.73-2.84,6.39a1.86,1.86,0,0,0-.52,1.39s-13,6.62-13.76,7.28l-.09.07c-.41.34-1,.81-1,1.24a.56.56,0,0,0,.15.43,2.47,2.47,0,0,1,1.79-1.57c1.39-.28,2.18-1.46,3.87-2.28s3-1.68,5-2.59l4.35-2s-.59-1.38.46-1.54.6-1,1-1.83,1.06-1.16,1.2-1.87,0-1.91,1-2.32c.69-.28,1.88-3.28,2.28-5.19C122.56,268.52,121.19,271.35,120.05,272.33Z" transform="translate(-89 -120)"/><g class="cls-17"><path class="cls-35" d="M126.87,283.95a30.59,30.59,0,0,1-3.18-2.07h0c.35.29.25.92.86,1.07a7,7,0,0,1,2.31,1.48c.19.31,1.09.51,1.61.58a14.33,14.33,0,0,1,1.82.8c.45.14,2.26.51,2.26.51A24.88,24.88,0,0,1,126.87,283.95Z" transform="translate(-89 -120)"/><path class="cls-36" d="M125.37,277.33c.71,0,1.22-.77,2.09-.82-.08-.29-2.07.61-6.35.48h-.3s.63.59,1,.39a3.65,3.65,0,0,1,1.7,0A12.29,12.29,0,0,0,125.37,277.33Z" transform="translate(-89 -120)"/></g></svg>