<svg id="Ebene_1" data-name="Ebene 1" xmlns="http://www.w3.org/2000/svg" viewBox="0 0 165.56 191.23"><defs><style>.cls-1{fill:#af896d;}.cls-2{fill:#d1ae8b;}.cls-3{fill:#ba9778;}.cls-4{fill:#9d1d21;}.cls-5{fill:#fff;}</style></defs><title>expert-tüte</title><polygon class="cls-1" points="52 6 58 2 66 6 72 2 79 6 83 4 85.33 2 91 8 99.33 2 106 8 111 4 116 9 124 4 131 8 138 4 143 9 149 5 155 9 162 7 163 72 2 74 3 30 11 29 14 21 21 23 25 17 28 19 37 11 42 12 46 6 52 6"/><polygon class="cls-2" points="2.5 188.5 2.5 30.5 9.5 36.5 13.5 30.5 21.5 37.5 30.5 32.5 37.5 36.5 45.5 31.5 52.5 35.5 60.5 32.5 68.5 35.5 77.5 30.5 83.5 34.5 90.5 30.5 99.5 35.5 106.5 30.5 112.5 35.5 118.5 31.5 125.5 32.5 126 189 2.5 188.5"/><path class="cls-2" d="M252,129V279l-35,30,18-44c-3-1,0-121,0-121l6-7,6-2Z" transform="translate(-89 -120)"/><polygon class="cls-3" points="126 30 128 187 146 145 146 24 141 23 136 29.48 126 30"/><g id="Paperbag"><path d="M254.54,233.1V132.16c0-9.58,0-8.53-8.24-6.49a4.34,4.34,0,0,1-3.4-.74c-2.56-2.52-5.23-2.66-7,.49-1.93,3.42-3.87,1.62-4.57,0-1.84-4.36-3.76-4-7-1.2-1.09.94-4.2,1.46-5.08.78-5.26-4.12-5.13-4.26-10.15-.16-2.53,2.07-4.56,1.94-5.87-.75-1.4-2.89-3.42-2.64-5.33-1-2.1,1.75-3.78,1.86-5.41-.18-2.19-2.74-4.17-2.66-6.3,0a13.73,13.73,0,0,1-2.19,2c-2.88,2.33-4.1,2.13-5.92-.92-1.73-2.89-3.83-3.68-6.06-1.51-3,2.93-5,1.95-7.11-.57s-3.69-2.42-5.74,0c-3,3.47-4.77,3.3-7.6.06-2.22-2.54-5-2.56-7.17,0-1.91,2.23-4.3,1.51-6.67,1.6-1.27,0-2.83.13-3.69.81A9.44,9.44,0,0,0,131.5,128c-.91,2.05-2.08,2.69-4.19,1.33s-3.46-.14-4.43,1.53c-.68,1.17-1,2.56-1.94,3.53a3.7,3.7,0,0,1-2.92,1c-5.09-1.48-5.32-1.53-7.1,3.4-.69,1.93-1.49,2.6-3.4,1.39-2.33-1.48-3.72-.9-4.75.8q-.24.52-.52,1a14.08,14.08,0,0,1-1.21,2.23,4.56,4.56,0,0,1-1.67,2,6.35,6.35,0,0,1-2,1.26,8.62,8.62,0,0,1-1,.31,4.94,4.94,0,0,1-2.29.53,5.26,5.26,0,0,1-1.7-.27c-2.78.37-3.3,1.51-3.3,5.23v2a18.6,18.6,0,0,1,0,3.94v6a4.48,4.48,0,0,1,0,3.65Q89,237,89,305.05c0,4.87,1.37,6.15,6.6,6.15q55.41,0,110.83,0c2.83,0,6,.33,8.4-.67a45.7,45.7,0,0,0,10.05-6.22c4.21-3.23,8-6.92,12.12-10.25,4.82-3.9,10-7.44,14.63-11.52a9,9,0,0,0,2.78-6C254.65,262.05,254.54,247.57,254.54,233.1Zm-159-83.71c5.38.27,6.42-.26,8.27-4.82.69-1.71,1.44-2,3.35-1.2,4.84,2,6,1.37,6.83-3.42.27-1.57.48-2.59,2.85-1.42,3.6,1.79,5.52,1.14,7.05-2.3,1.06-2.39,2.25-3.33,5.13-2.69,2.35.52,4.17-.29,4.55-2.92a5.39,5.39,0,0,1,1.55-2.59,3,3,0,0,1,2-.79c.36,0,1,.83,1,1.29q.1,10.18,0,20.37c0,.37-1,1.12-1.16,1-3.41-1.72-4.91,1-6.43,2.62-2.63,2.84-3.34,3-5.78-.09a19.84,19.84,0,0,0-2.18-2c-4-.91-5.2,2-7.07,3.75-2.18,2-3.41,1.9-4.67-.59-.31-.61-1-1-1.4-1.61-2.21-3-3.65-3.16-6.48-.73l-.28.25c-3.5,3.1-5,3-8.16-.32-.26-.28-.59-.9-.51-1C94.46,149.85,95,149.36,95.54,149.39ZM209,307.63q-50.14,0-100.28,0c-3.79,0-7.6.36-11.38.71s-4.95-1.6-5.21-4.52c-.05-.59,0-1.19,0-1.79q0-72.47,0-144.94a17.2,17.2,0,0,1,.72-3.46,20.75,20.75,0,0,1,2.81,2.23c2.48,2.77,3.8,2.83,6.78.1,3.43-3.14,3.43-3.14,6.06.78s4.19,4.15,7.82.81a5.63,5.63,0,0,0,1.09-1c2-3.33,3.93-2.42,6.26-.16,4,3.86,4.95,3.69,8.26-.81,2.48-3.37,3.53-3.58,6.38-.68,3.62,3.68,4.89,2.88,8.87.08,3.49-2.45,5-2.45,7.39.74s3.95,3.21,6.93.51c.93-.84,1.81-1.72,2.77-2.52,1.65-1.37,3-1.33,4.38.51,3.13,4.22,4.41,4.29,8.25.78,4.09-3.74,4.09-3.74,7.36.44,2.53,3.24,4.13,3.34,7.26.48,3.76-3.44,3.74-3.43,7.13.54,1.68,2,3.36,2.09,5.42.22,1.37-1.24,3.11-2.66,4.86-2.91,3.8-.54,5,.71,5,4.21q0,36,0,71.94c0,24.81,0,48.91,0,73C214,308.33,213.7,307.63,209,307.63Zm4.23-158a6.31,6.31,0,0,1-3.14.11c-2.53-.79-4.2-.4-5.59,1.9-1.69,2.79-3.28,2.64-5.41-.16s-3.9-3-6.76-.53c-4.23,3.61-4.25,3.62-7.29-.92-1.54-2.31-3.64-1.55-5.61-.79-.78.3-1.31,1.13-2,1.72-3.68,3.37-3.68,3.37-7.08-.3-2.1-2.27-4.72-2.15-7.81.35-4.13,3.35-4.13,3.35-8.14.05-2.79-2.3-4.85-2.19-7.79.18a35.65,35.65,0,0,1-4,2.45,34.22,34.22,0,0,1-.58-4.3c-.07-5.37,0-10.74,0-16.11,0-3.59-.11-6.31,3.09-8.33,2.4-1.51,3.8-1.1,5.62.52,3.76,3.34,4.87,3.43,8.8.25,1.53-1.24,2.29-1.63,3.92-.09,3.95,3.73,4,3.57,8.92.72a3.69,3.69,0,0,1,3.11.48c5.88,4.65,5.94,4.78,11.17-.2,1.8-1.71,2.9-1.77,4.44.06,2.33,2.76,4.78,2.79,7.26.07.84-.92,1.3-1.8,2.54.18,3.46,5.56,4.38,4.74,9,1.27,4-3,3.69-3,8,0,1.32.89,4.29.75,5.92,0,2.45-1.11,3.88-2.08,5.82.77,1.17,1.71,3.46,2.89,6.08.82,1.87-1.48,4.09-3.3,6.78-.53.56.58,2.48.09,3.77,0a15.46,15.46,0,0,0,1.89-.31c-.25.5-.55,1-.76,1.49-.89,2.17-2.22,3.13-5.07,3.41-2.08.2-4.41,2.2-5.73,4s-2.52,2.54-4.58,2.23c-3.84-.59-6,1.26-7.22,4.21-1.12,2.78-2.88,3.93-6.2,3.8C216.92,148,215.1,149.14,213.24,149.59Zm4.95,150.83c-.37-.69-1.08-1.39-1.07-2.08q.3-33.49.73-67c0-25.89,0-51.06-.05-76.23,0-3.16,1.11-4.45,4.66-4.47,1.33,0,2.78-1.35,3.94-2.32.76-.64.93-1.84,1.65-2.55a21.71,21.71,0,0,1,3.08-2.16c.52,1,1.42,2.07,1.49,3.13.2,3.09.07,6.2.07,9.3,0,36.39-.11,72.77.11,109.16a32.32,32.32,0,0,1-4,15.34c-3.13,6.09-6.24,12.18-9.39,18.26A11.81,11.81,0,0,1,218.18,300.42Zm28.91-17.83c-6.92,5.38-13.86,10.74-20.73,16.17-1.93,1.52-3.6,3.31-5.45,4.92-.26.23-.86.13-1.31.19a3.47,3.47,0,0,1,.16-1.21c4.29-8,8.5-16.07,13-24,1.31-2.33,3.55-3.76,6.58-1.84,2.95,1,5.07,2,7.29,2.84S248.71,281.34,247.09,282.59Zm2.39-5.12c-4.33-1.65-8.63-3.39-12.8-5.35-.65-.3-.83-1.84-.84-2.82-.08-5.73,0-11.46,0-17.19,0-35.45.07-70.18-.12-104.9,0-2.94,2.16-4.27,3.1-6.39,1.24-2.79,3.13-3,5.84-3,2.28,0,3.58-1.36,3.8-3.67.07-.72,1.51-1.32,2.33-2,0,.84-.08,1.67-.09,2.51s0,1.91,0,2.86q0,60.51,0,121c0,5.91.53,11.82.66,17.73C251.34,276.69,249.87,277.62,249.48,277.47Z" transform="translate(-89 -120)"/></g><circle class="cls-4" cx="153.23" cy="243.38" r="48.77" transform="translate(-209.27 212.32) rotate(-75.82)"/><path class="cls-5" d="M163.82,201.46a43.1,43.1,0,1,1-17.15-.83,43,43,0,0,1,17.15.83m.62-2.46a45.78,45.78,0,1,0,33.17,55.6A45.78,45.78,0,0,0,164.45,199Z" transform="translate(-89 -120)"/><path class="cls-5" d="M163.33,203.42a41.09,41.09,0,1,1-16.35-.79,41,41,0,0,1,16.35.79m.17-.67a41.9,41.9,0,1,0,30.36,50.89,41.9,41.9,0,0,0-30.36-50.89Z" transform="translate(-89 -120)"/><path class="cls-5" d="M164.63,205.87l.59-.86v1l1,.09-.9.52.44.94-.91-.52-.59.85v-1l-1-.09.9-.52-.44-.94Z" transform="translate(-89 -120)"/><path class="cls-5" d="M168.37,207.21l.68-.79-.1,1,1,.19-.95.43.35,1-.85-.61-.68.79.1-1-1-.19.95-.43-.35-1Z" transform="translate(-89 -120)"/><path class="cls-5" d="M172,208.92l.76-.72-.21,1,1,.29-1,.33.24,1-.78-.69-.75.72.21-1-1-.3,1-.33-.24-1Z" transform="translate(-89 -120)"/><path class="cls-5" d="M175.35,211l.82-.64-.31,1,1,.4-1,.23.14,1-.71-.77-.82.64.31-1-1-.4,1-.23-.14-1Z" transform="translate(-89 -120)"/><path class="cls-5" d="M178.51,213.4l.89-.55-.41,1,.92.49-1,.12,0,1-.63-.83-.88.55.41-1-.92-.49,1-.12,0-1Z" transform="translate(-89 -120)"/><path class="cls-5" d="M181.41,216.12l.94-.46-.51.91.87.58-1,0-.07,1-.54-.89-.93.46.5-.91-.86-.58,1,0,.07-1Z" transform="translate(-89 -120)"/><path class="cls-5" d="M184,219.11l1-.36-.6.85.8.67-1-.09-.18,1-.45-.94-1,.36.59-.86-.8-.67,1,.09.18-1Z" transform="translate(-89 -120)"/><path class="cls-5" d="M186.32,222.35l1-.26-.68.79.73.74-1-.19-.28,1-.35-1-1,.26.68-.79-.73-.75,1,.19.28-1Z" transform="translate(-89 -120)"/><path class="cls-5" d="M188.28,225.81l1-.16-.75.72.65.81-1-.29-.38,1-.25-1-1,.16.75-.72-.65-.81,1,.29.38-1Z" transform="translate(-89 -120)"/><path class="cls-5" d="M189.88,229.44l1-.05-.82.64.57.88-1-.39-.47.93-.15-1-1,.05.82-.64-.57-.88,1,.39.47-.93Z" transform="translate(-89 -120)"/><path class="cls-5" d="M191.11,233.22l1,.05-.88.55.48.93-.92-.49-.57.87,0-1-1-.05.88-.55-.47-.93.92.49.57-.87Z" transform="translate(-89 -120)"/><path class="cls-5" d="M191.94,237.1l1,.16-.94.46.38,1-.87-.58-.65.81.07-1-1-.16.93-.46-.38-1,.87.58.65-.81Z" transform="translate(-89 -120)"/><path class="cls-5" d="M192.38,241.06l1,.26-1,.36.28,1-.8-.66-.73.74.17-1-1-.26,1-.36-.28-1,.8.66.73-.74Z" transform="translate(-89 -120)"/><path class="cls-5" d="M192.41,245l1,.36-1,.26.17,1-.73-.74-.8.66.28-1-1-.36,1-.26-.17-1,.73.74.8-.66Z" transform="translate(-89 -120)"/><path class="cls-5" d="M192,249l.94.46-1,.16.07,1-.65-.81-.87.58.38-1-.93-.46,1-.16-.07-1,.65.81.87-.58Z" transform="translate(-89 -120)"/><path class="cls-5" d="M191.27,252.9l.88.56-1,0,0,1-.56-.88-.92.48.48-.92-.88-.56,1,0,0-1,.56.88.92-.48Z" transform="translate(-89 -120)"/><path class="cls-5" d="M190.12,256.69l.82.64-1-.05-.14,1-.48-.93-1,.39.56-.88-.82-.64,1,0,.14-1,.48.93,1-.39Z" transform="translate(-89 -120)"/><path class="cls-5" d="M188.58,260.35l.76.72-1-.16-.24,1-.38-1-1,.29.65-.82-.75-.72,1,.15.25-1,.38,1,1-.29Z" transform="translate(-89 -120)"/><path class="cls-5" d="M186.69,263.84l.68.79-1-.26-.35,1-.28-1-1,.19.73-.75-.68-.79,1,.26.35-1,.28,1,1-.19Z" transform="translate(-89 -120)"/><path class="cls-5" d="M184.45,267.12l.59.86-1-.36-.44.94-.18-1-1,.09.8-.67-.59-.85,1,.36.45-.94.18,1,1-.09Z" transform="translate(-89 -120)"/><path class="cls-5" d="M181.88,270.16l.5.91-.93-.46-.54.89-.07-1-1,0,.86-.58-.5-.91.93.46.54-.89.07,1,1,0Z" transform="translate(-89 -120)"/><path class="cls-5" d="M179,272.92l.41,1-.88-.55-.63.83,0-1-1-.13.92-.49-.41-1,.88.55.63-.83,0,1,1,.13Z" transform="translate(-89 -120)"/><path class="cls-5" d="M175.9,275.38l.31,1-.82-.64-.71.77.14-1-1-.23,1-.4-.31-1,.82.64.71-.77-.14,1,1,.23Z" transform="translate(-89 -120)"/><path class="cls-5" d="M172.54,277.51l.21,1-.75-.72-.78.69.24-1-1-.33,1-.3-.21-1,.76.72.78-.69-.24,1,1,.33Z" transform="translate(-89 -120)"/><path class="cls-5" d="M169,279.28l.11,1-.68-.79-.85.61.34-1-.95-.43,1-.2-.11-1,.68.79.85-.61-.34,1,.95.43Z" transform="translate(-89 -120)"/><path class="cls-5" d="M165.28,280.7v1l-.6-.85-.9.52.44-.94-.9-.52,1-.09v-1l.6.85.9-.52-.44.94.9.52Z" transform="translate(-89 -120)"/><path class="cls-5" d="M161.44,281.73l-.11,1-.51-.91-1,.43.53-.89-.84-.61h1l.1-1,.51.91,1-.43-.53.89.84.61Z" transform="translate(-89 -120)"/><path class="cls-5" d="M157.52,282.37l-.21,1-.41-1-1,.33.62-.84-.78-.69,1,.12.21-1,.41,1,1-.33-.62.84.78.69Z" transform="translate(-89 -120)"/><path class="cls-5" d="M153.55,282.6l-.31,1-.31-1-1,.23.7-.77-.7-.77,1,.22.31-1,.31,1,1-.22-.7.77.7.77Z" transform="translate(-89 -120)"/><path class="cls-5" d="M149.58,282.43l-.41,1-.21-1-1,.12.78-.69-.62-.84,1,.33.41-1,.21,1,1-.12-.78.69.62.84Z" transform="translate(-89 -120)"/><path class="cls-5" d="M145.65,281.85l-.51.91-.1-1-1,0,.84-.61-.53-.89,1,.43.5-.91.11,1h1l-.84.61.53.89Z" transform="translate(-89 -120)"/><path class="cls-5" d="M141.8,280.89l-.6.86v-1l-1-.09.9-.52-.44-.94.91.52.59-.85v1l1,.09-.9.52.44.94Z" transform="translate(-89 -120)"/><path class="cls-5" d="M138.05,279.54l-.68.79.1-1-1-.19.95-.43-.34-1,.85.61.68-.79-.1,1,1,.19-.95.43.34,1Z" transform="translate(-89 -120)"/><path class="cls-5" d="M134.47,277.82l-.76.72.21-1-1-.3,1-.33-.24-1,.78.69.75-.72-.21,1,1,.3-1,.33.24,1Z" transform="translate(-89 -120)"/><path class="cls-5" d="M131.08,275.75l-.83.64.31-1-1-.4,1-.23-.14-1,.71.77.82-.64-.31,1,1,.4-1,.23.14,1Z" transform="translate(-89 -120)"/><path class="cls-5" d="M127.92,273.34l-.89.55.41-1-.92-.49,1-.12,0-1,.63.83.88-.55-.41,1,.92.49-1,.12,0,1Z" transform="translate(-89 -120)"/><path class="cls-5" d="M125,270.62l-.94.46.51-.91-.86-.58,1,0,.07-1,.54.89.93-.46-.5.91.86.58-1,0-.07,1Z" transform="translate(-89 -120)"/><path class="cls-5" d="M122.41,267.63l-1,.36.6-.85-.8-.67,1,.09.18-1,.45.94,1-.36-.59.85.8.67-1-.09-.18,1Z" transform="translate(-89 -120)"/><path class="cls-5" d="M120.12,264.38l-1,.26.68-.79-.73-.74,1,.19.28-1,.35,1,1-.26-.68.79.73.75-1-.19-.28,1Z" transform="translate(-89 -120)"/><path class="cls-5" d="M118.16,260.92l-1,.16.76-.72-.65-.81,1,.29.38-1,.25,1,1-.16-.75.72.65.82-1-.29-.38,1Z" transform="translate(-89 -120)"/><path class="cls-5" d="M116.57,257.28l-1,.05.82-.64-.57-.88,1,.39.48-.93.14,1,1-.05-.82.64.56.88-1-.39-.48.93Z" transform="translate(-89 -120)"/><path class="cls-5" d="M115.34,253.5l-1-.05.88-.55-.47-.93.92.49.57-.87,0,1,1,.05-.88.55.47.93-.92-.49-.57.87Z" transform="translate(-89 -120)"/><path class="cls-5" d="M114.51,249.62l-1-.16.94-.46-.38-1,.87.58.65-.81-.07,1,1,.16-.93.46.38,1-.87-.58-.65.81Z" transform="translate(-89 -120)"/><path class="cls-5" d="M114.08,245.67l-1-.26,1-.36-.28-1,.8.66.73-.74-.17,1,1,.26-1,.36.27,1-.8-.66-.73.74Z" transform="translate(-89 -120)"/><path class="cls-5" d="M114.05,241.69l-1-.36,1-.26-.17-1,.73.74.8-.66-.28,1,1,.36-1,.26.17,1-.73-.74-.8.66Z" transform="translate(-89 -120)"/><path class="cls-5" d="M114.43,237.74l-.93-.46,1-.16-.07-1,.65.81.87-.58-.38,1,.93.46-1,.16.07,1-.65-.81-.87.58Z" transform="translate(-89 -120)"/><path class="cls-5" d="M115.2,233.83l-.88-.56,1,0,0-1,.56.88.92-.48-.48.92.88.56-1,0,0,1-.56-.88-.92.48Z" transform="translate(-89 -120)"/><path class="cls-5" d="M116.36,230l-.82-.64,1,.05.14-1,.48.93,1-.39-.56.88.82.64-1-.05-.14,1-.48-.93-1,.39Z" transform="translate(-89 -120)"/><path class="cls-5" d="M117.9,226.37l-.76-.72,1,.16.24-1,.38,1,1-.29-.65.82.75.72-1-.16-.25,1-.38-1-1,.29Z" transform="translate(-89 -120)"/><path class="cls-5" d="M119.8,222.88l-.68-.79,1,.26.35-1,.28,1,1-.19-.73.75.68.79-1-.26-.35,1-.28-1-1,.19Z" transform="translate(-89 -120)"/><path class="cls-5" d="M122,219.61l-.59-.86,1,.36.45-.94.18,1,1-.08-.8.67.59.85-1-.36-.45.94-.18-1-1,.08Z" transform="translate(-89 -120)"/><path class="cls-5" d="M124.61,216.57l-.5-.91.93.46.54-.89.07,1,1,0-.86.58.5.91-.93-.46-.54.89-.07-1-1,0Z" transform="translate(-89 -120)"/><path class="cls-5" d="M127.47,213.82l-.41-1,.88.55.63-.83,0,1,1,.13-.92.49.41,1-.88-.55-.63.83,0-1-1-.13Z" transform="translate(-89 -120)"/><path class="cls-5" d="M130.6,211.37l-.31-1,.82.64.71-.77-.14,1,1,.23-1,.4.31,1-.82-.64-.71.77.14-1-1-.23Z" transform="translate(-89 -120)"/><path class="cls-5" d="M134,209.24l-.21-1,.75.72.78-.69-.24,1,1,.33-1,.3.21,1-.75-.72-.78.69.24-1-1-.33Z" transform="translate(-89 -120)"/><path class="cls-5" d="M137.51,207.46l-.1-1,.68.79.85-.61-.34,1,.95.43-1,.2.11,1-.68-.79-.85.61.34-1-.95-.43Z" transform="translate(-89 -120)"/><path class="cls-5" d="M141.22,206.05v-1l.59.86.9-.52-.44.94.9.52-1,.09v1l-.6-.85-.9.52.44-.94-.9-.52Z" transform="translate(-89 -120)"/><path class="cls-5" d="M145.06,205l.11-1,.5.91,1-.43-.53.89.84.61h-1l-.11,1-.51-.91-1,.42.53-.89L144,205Z" transform="translate(-89 -120)"/><path class="cls-5" d="M149,204.39l.21-1,.41,1,1-.33-.62.83.78.69-1-.12-.21,1-.41-1-1,.33.62-.83-.78-.69Z" transform="translate(-89 -120)"/><path class="cls-5" d="M153,204.16l.31-1,.31,1,1-.22-.7.77.7.77-1-.23-.31,1-.31-1-1,.22.7-.77-.7-.77Z" transform="translate(-89 -120)"/><path class="cls-5" d="M156.93,204.34l.41-1,.21,1,1-.12-.78.69.62.84-1-.33-.41,1-.21-1-1,.12.78-.69-.62-.84Z" transform="translate(-89 -120)"/><path class="cls-5" d="M160.85,204.92l.51-.91.1,1h1l-.84.61.53.89-1-.43-.51.91-.11-1h-1l.84-.61-.53-.89Z" transform="translate(-89 -120)"/><path class="cls-5" d="M126.83,232.74,130,220l7.52,1.9-.38,1.5L131,221.89l-1,3.88,5.76,1.45-.38,1.5-5.76-1.45-1.09,4.32L135,233.2l-.38,1.5Z" transform="translate(-89 -120)"/><path class="cls-5" d="M135.44,234.92l5.7-5.6-2-7,1.64.41,1.08,3.73a15.51,15.51,0,0,1,.43,1.78,15.76,15.76,0,0,1,1.19-1.24l3-2.84,1.48.37-5.16,5.05,2.23,7.71-1.7-.43-1.48-5.19q-.12-.43-.23-1-.53.6-.75.82l-3.73,3.77Z" transform="translate(-89 -120)"/><path class="cls-5" d="M146.19,237.63l3.21-12.69,3.92,1a6.54,6.54,0,0,1,2,.76,2.85,2.85,0,0,1,1.13,1.58,4.31,4.31,0,0,1,0,2.33,4.44,4.44,0,0,1-1.58,2.58,3.8,3.8,0,0,1-3.29.32l-2.67-.67-1.3,5.16Zm3.06-6.31,2.69.68a2.66,2.66,0,0,0,2-.11,2.4,2.4,0,0,0,1-1.59,2.76,2.76,0,0,0,0-1.36,1.69,1.69,0,0,0-.52-.91,3.92,3.92,0,0,0-1.43-.57l-2.67-.67Z" transform="translate(-89 -120)"/><path class="cls-5" d="M155.92,240.09l3.21-12.69,7.52,1.9-.38,1.5-6.15-1.55-1,3.88,5.76,1.45-.38,1.5-5.76-1.45-1.09,4.32,6.39,1.61-.38,1.5Z" transform="translate(-89 -120)"/><path class="cls-5" d="M165.58,242.53l3.21-12.69L173.4,231a5,5,0,0,1,2,.89,2.79,2.79,0,0,1,.83,1.47,4.13,4.13,0,0,1,0,2,3.33,3.33,0,0,1-3.8,2.72,3.66,3.66,0,0,1,.7.93,9.18,9.18,0,0,1,.67,1.89l.95,3.91-1.73-.44-.72-3a17.11,17.11,0,0,0-.69-2.39,2.46,2.46,0,0,0-.61-.93,2.6,2.6,0,0,0-1-.46l-1.59-.4L167,242.88Zm3.17-6.74,3,.75a3.73,3.73,0,0,0,1.53.14,1.84,1.84,0,0,0,1-.53,2.34,2.34,0,0,0,.59-1.09,2.08,2.08,0,0,0-.18-1.65,2.37,2.37,0,0,0-1.53-1l-3.29-.83Z" transform="translate(-89 -120)"/><path class="cls-5" d="M178.5,245.79l2.83-11.19-3.43-.87.38-1.5,8.25,2.08-.38,1.5-3.45-.87-2.83,11.19Z" transform="translate(-89 -120)"/><path class="cls-5" d="M125.52,255l3.21-12.69,1.38.35-2.83,11.19,5.13,1.3-.38,1.5Z" transform="translate(-89 -120)"/><path class="cls-5" d="M133.72,257.11l3.21-12.69,7.52,1.9-.38,1.5-6.15-1.55-1,3.88,5.76,1.45-.38,1.5-5.76-1.45L135.47,256l6.39,1.61-.38,1.5Z" transform="translate(-89 -120)"/><path class="cls-5" d="M146.37,260.31l-.83-13.71L147,247l.38,9.91q0,1.15,0,2.22.51-1,1.08-1.94l5.15-8.51,1.4.35-7.28,11.66Z" transform="translate(-89 -120)"/><path class="cls-5" d="M153.11,262l3.21-12.69,7.52,1.9-.38,1.5-6.15-1.55-1,3.88,5.76,1.45-.38,1.5L156,256.54l-1.09,4.32,6.39,1.61-.38,1.5Z" transform="translate(-89 -120)"/><path class="cls-5" d="M162.69,264.44l3.21-12.69,1.38.35-2.83,11.19,5.13,1.3-.38,1.5Z" transform="translate(-89 -120)"/><path class="cls-5" d="M172.2,263.49l1.31-6.83.71-2.81,1.58.4-.71,2.81L173,263.7Zm-1.12,3.07.45-1.77,1.45.37-.45,1.77Z" transform="translate(-89 -120)"/></svg>