<svg id="Ebene_1" data-name="Ebene 1" xmlns="http://www.w3.org/2000/svg" viewBox="0 0 165.56 190.27"><defs><style>.cls-1{fill:#af896d;}.cls-2{fill:#d1ae8b;}.cls-3{fill:#ba9778;}.cls-4{fill:#464b00;}.cls-5{fill:#993;}.cls-6{fill:#fff;}</style></defs><title>greenhorn-tüte</title><polygon class="cls-1" points="52 5.97 58 1.99 66 5.97 72 1.99 79 5.97 83 3.98 85.33 1.99 91 7.96 99.33 1.99 106 7.96 111 3.98 116 8.96 124 3.98 131 7.96 138 3.98 143 8.96 149 4.97 155 8.96 162 6.96 163 71.64 2 73.63 3 29.85 11 28.85 14 20.89 21 22.88 25 16.91 28 18.91 37 10.95 42 11.94 46 5.97 52 5.97"/><polygon class="cls-2" points="2.5 187.55 2.5 30.35 9.5 36.32 13.5 30.35 21.5 37.31 30.5 32.34 37.5 36.32 45.5 31.34 52.5 35.32 60.5 32.34 68.5 35.32 77.5 30.35 83.5 34.33 90.5 30.35 99.5 35.32 106.5 30.35 112.5 35.32 118.5 31.34 125.5 32.34 126 188.05 2.5 187.55"/><path class="cls-2" d="M237,34V183.2l-35,29.85,18-43.78c-3-1,0-120.39,0-120.39l6-7,6-2Z" transform="translate(-74 -25)"/><polygon class="cls-3" points="126 29.85 128 186.06 146 144.27 146 23.88 141 22.88 136 29.33 126 29.85"/><g id="Paperbag"><path d="M239.54,137.53V37.1c0-9.53,0-8.49-8.24-6.46a4.36,4.36,0,0,1-3.4-.73c-2.56-2.5-5.23-2.65-7,.48-1.93,3.41-3.87,1.61-4.57,0-1.84-4.34-3.76-4-7-1.2-1.09.93-4.2,1.46-5.08.77-5.26-4.1-5.13-4.24-10.15-.16-2.53,2.06-4.56,1.93-5.87-.75-1.4-2.87-3.42-2.62-5.33-1-2.1,1.74-3.78,1.85-5.41-.18-2.19-2.72-4.17-2.65-6.3,0a13.71,13.71,0,0,1-2.19,2c-2.88,2.32-4.1,2.12-5.92-.91-1.73-2.88-3.83-3.66-6.06-1.51-3,2.91-5,1.94-7.11-.57s-3.69-2.41-5.74,0c-3,3.45-4.77,3.28-7.6.06-2.22-2.53-5-2.55-7.17,0-1.91,2.22-4.3,1.5-6.67,1.59-1.27,0-2.83.13-3.69.81a9.39,9.39,0,0,0-2.52,3.62c-.91,2-2.08,2.68-4.19,1.33s-3.46-.14-4.43,1.52c-.68,1.16-1,2.54-1.94,3.51a3.71,3.71,0,0,1-2.92,1c-5.09-1.47-5.32-1.53-7.1,3.38-.69,1.92-1.49,2.59-3.4,1.38-2.33-1.47-3.72-.9-4.75.8q-.24.52-.52,1A14,14,0,0,1,86,49.11a4.54,4.54,0,0,1-1.67,2,6.36,6.36,0,0,1-2,1.25,8.65,8.65,0,0,1-1,.31,5,5,0,0,1-2.29.53,5.28,5.28,0,0,1-1.7-.27c-2.78.37-3.3,1.5-3.3,5.2v2a18.42,18.42,0,0,1,0,3.92v6a4.44,4.44,0,0,1,0,3.63q0,67.71,0,135.42c0,4.85,1.37,6.12,6.6,6.12q55.41,0,110.83,0c2.83,0,6,.33,8.4-.67a45.74,45.74,0,0,0,10.05-6.19c4.21-3.22,8-6.89,12.12-10.2,4.82-3.88,10-7.4,14.63-11.46a8.91,8.91,0,0,0,2.78-6C239.65,166.34,239.54,151.93,239.54,137.53Zm-159-83.29c5.38.27,6.42-.26,8.27-4.79.69-1.7,1.44-2,3.35-1.2,4.84,2,6,1.37,6.83-3.41.27-1.56.48-2.58,2.85-1.41,3.6,1.78,5.52,1.14,7.05-2.29,1.06-2.38,2.25-3.31,5.13-2.68,2.35.51,4.17-.29,4.55-2.9A5.36,5.36,0,0,1,120.12,33a3,3,0,0,1,2-.78c.36,0,1,.83,1,1.28q.1,10.13,0,20.27c0,.37-1,1.12-1.16,1-3.41-1.71-4.91,1-6.43,2.6-2.63,2.82-3.34,2.95-5.78-.09a19.8,19.8,0,0,0-2.18-2c-4-.9-5.2,2-7.07,3.73-2.18,2-3.41,1.89-4.67-.59-.31-.6-1-1-1.4-1.61-2.21-3-3.65-3.14-6.48-.73l-.28.25c-3.5,3.08-5,3-8.16-.32-.26-.28-.59-.9-.51-1C79.46,54.7,80,54.22,80.54,54.24ZM194,211.68q-50.14,0-100.28,0c-3.79,0-7.6.36-11.38.71s-4.95-1.59-5.21-4.5c-.05-.59,0-1.19,0-1.78q0-72.11,0-144.22a17,17,0,0,1,.72-3.44,20.73,20.73,0,0,1,2.81,2.22c2.48,2.76,3.8,2.82,6.78.1,3.43-3.12,3.43-3.12,6.06.78s4.19,4.13,7.82.81a5.62,5.62,0,0,0,1.09-1c2-3.31,3.93-2.4,6.26-.16,4,3.84,4.95,3.67,8.26-.81,2.48-3.35,3.53-3.56,6.38-.67,3.62,3.67,4.89,2.86,8.87.08,3.49-2.44,5-2.44,7.39.74s3.95,3.2,6.93.51c.93-.83,1.81-1.71,2.77-2.51,1.65-1.36,3-1.32,4.38.51,3.13,4.2,4.41,4.27,8.25.78,4.09-3.72,4.09-3.72,7.36.44,2.53,3.22,4.13,3.33,7.26.48,3.76-3.42,3.74-3.41,7.13.53,1.68,2,3.36,2.08,5.42.22,1.37-1.24,3.11-2.64,4.86-2.89,3.8-.54,5,.71,5,4.19q0,35.79,0,71.58c0,24.69,0,48.67,0,72.64C199,212.39,198.7,211.68,194,211.68Zm4.23-157.24a6.34,6.34,0,0,1-3.14.11c-2.53-.79-4.2-.4-5.59,1.89-1.69,2.78-3.28,2.63-5.41-.16s-3.9-3-6.76-.53c-4.23,3.59-4.25,3.6-7.29-.92-1.54-2.3-3.64-1.54-5.61-.79-.78.3-1.31,1.13-2,1.72-3.68,3.35-3.68,3.35-7.08-.3-2.1-2.26-4.72-2.14-7.81.35-4.13,3.33-4.13,3.33-8.14.05-2.79-2.29-4.85-2.18-7.79.18a35.68,35.68,0,0,1-4,2.43,33.88,33.88,0,0,1-.58-4.28c-.07-5.34,0-10.69,0-16,0-3.57-.11-6.28,3.09-8.29,2.4-1.51,3.8-1.09,5.62.52,3.76,3.33,4.87,3.41,8.8.24,1.53-1.24,2.29-1.62,3.92-.09,3.95,3.71,4,3.55,8.92.71a3.71,3.71,0,0,1,3.11.48c5.88,4.63,5.94,4.75,11.17-.2,1.8-1.7,2.9-1.76,4.44.06,2.33,2.75,4.78,2.78,7.26.07.84-.91,1.3-1.79,2.54.18,3.46,5.53,4.38,4.71,9,1.26,4-3,3.69-2.94,8,0,1.32.89,4.29.74,5.92,0,2.45-1.1,3.88-2.07,5.82.77,1.17,1.71,3.46,2.87,6.08.81,1.87-1.47,4.09-3.28,6.78-.53.56.58,2.48.09,3.77,0a15.53,15.53,0,0,0,1.89-.31c-.25.49-.55,1-.76,1.48-.89,2.16-2.22,3.12-5.07,3.39-2.08.2-4.41,2.19-5.73,3.95s-2.52,2.53-4.58,2.22c-3.84-.58-6,1.25-7.22,4.19-1.12,2.76-2.88,3.91-6.2,3.78C201.92,52.82,200.1,54,198.24,54.44Zm4.95,150.07c-.37-.69-1.08-1.38-1.07-2.07q.3-33.33.73-66.65c0-25.76,0-50.8-.05-75.85,0-3.14,1.11-4.42,4.66-4.44,1.33,0,2.78-1.34,3.94-2.31.76-.64.93-1.83,1.65-2.54a21.71,21.71,0,0,1,3.08-2.15c.52,1,1.42,2.05,1.49,3.12.2,3.08.07,6.17.07,9.25,0,36.2-.11,72.41.11,108.61a32,32,0,0,1-4,15.26c-3.13,6.06-6.24,12.12-9.39,18.17A11.75,11.75,0,0,1,203.18,204.51Zm28.91-17.74c-6.92,5.35-13.86,10.68-20.73,16.09-1.93,1.52-3.6,3.29-5.45,4.89-.26.23-.86.13-1.31.19a3.43,3.43,0,0,1,.16-1.21c4.29-8,8.5-16,13-23.88,1.31-2.32,3.55-3.74,6.58-1.83,2.95,1,5.07,2,7.29,2.82S233.71,185.53,232.09,186.77Zm2.39-5.1c-4.33-1.65-8.63-3.37-12.8-5.32-.65-.3-.83-1.83-.84-2.8-.08-5.7,0-11.4,0-17.1,0-35.27.07-69.82-.12-104.38,0-2.93,2.16-4.25,3.1-6.36,1.24-2.77,3.13-3,5.84-3,2.28,0,3.58-1.35,3.8-3.65.07-.71,1.51-1.32,2.33-2,0,.83-.08,1.66-.09,2.5s0,1.9,0,2.85q0,60.2,0,120.41c0,5.88.53,11.76.66,17.64C236.34,180.9,234.87,181.83,234.48,181.68Z" transform="translate(-74 -25)"/></g><path class="cls-4" d="M101.31,188.08c2.15.74,4.77.58,7,.69q4.35.21,8.7.34,8.37.25,16.74.22,18.71-.06,37.38-1.58a8.17,8.17,0,0,0,2.13-1,4,4,0,0,0,.69-.64,16.26,16.26,0,0,0,1-2.52l.3-20q-.43-4.77-.65-9.58-.33-7.48,0-15,.15-3.59.45-7.18c.19-2.27.6-4.55.6-6.83,0-4-2-7-6.52-7.59-5.41-.67-10.9-1-16.35-1.16a246.47,246.47,0,0,0-32.28,1q-3.9.37-7.78.86a51.52,51.52,0,0,0-8,1.21,5.16,5.16,0,0,0-3.77,4.05,67.84,67.84,0,0,0-.83,7.56q-1.46,15.3-2.08,30.66-.31,7.68-.4,15.36C97.69,180.57,96.55,186.44,101.31,188.08Z" transform="translate(-74 -25)"/><path class="cls-5" d="M88.37,119.21a3.66,3.66,0,0,1,3.25.59,2.06,2.06,0,0,1,.15,3,2.31,2.31,0,0,1-.91.42,4,4,0,0,1-3.44-.77,2,2,0,0,1-.84-1.8,2.19,2.19,0,0,1,1.79-1.44m.65,1.12a1.21,1.21,0,0,0-.89.31.79.79,0,0,0,.13,1,2,2,0,0,0,1,.46c.66.15,1.55.09,1.75-.55a1,1,0,0,0-.63-1.11A2.92,2.92,0,0,0,89,120.33Z" transform="translate(-74 -25)"/><path class="cls-5" d="M101,120.08a10.16,10.16,0,0,1-5.39-1.82,3.49,3.49,0,0,1-1.76-2.72,2.81,2.81,0,0,1,2.56-2.42,7.54,7.54,0,0,1,3.72.75c3.48,1.39,6.82,3.13,10.4,4.23s7.53,1.51,11,.21a9.65,9.65,0,0,1-5-1.45,5,5,0,0,1-2-2.15,2.54,2.54,0,0,1,.44-2.79c1-1,2.69-.62,4-.18a109.16,109.16,0,0,1,12.61,5c.5.24,1.08.59,1.1,1.14s-.53.94-1,1.22L121.2,125.2c-1.21.7-3,1.3-3.81.19s.46-2.84,1.71-3.74l2.45-1.76c-6-.4-11.82,1.94-17.29,4.44-2.1,1-4.3,2-6.6,1.8a2.61,2.61,0,0,1-2-.93c-.79-1.17.29-2.76,1.55-3.39S100,121,101,120.08m11.36,0c.18-.29-.3-.52-.64-.54-2.93-.18-5.51-1.86-8.18-3.08a27.77,27.77,0,0,0-6.45-2.05,1.87,1.87,0,0,0-1.14,0c-.75.36-.71,1.48-.28,2.19a5.43,5.43,0,0,0,3.77,2.21c1.48.27,3,.25,4.47.58a.92.92,0,0,1,.54.27c.13.16.1.45-.1.52A50.7,50.7,0,0,0,98,122.73c-.67.32-1.44.91-1.22,1.61a1.37,1.37,0,0,0,1.27.76,9.23,9.23,0,0,0,4.6-1.34,61.83,61.83,0,0,1,9.72-3.69m9.23-2.8a5.61,5.61,0,0,1,1.51.27,15.38,15.38,0,0,0,7.43,0c-3.76-1.75-7.61-3.31-11.52-4.69a3.74,3.74,0,0,0-2.31-.29c-.75.23-1.31,1.2-.85,1.83a7,7,0,0,0,5.75,2.83m-3.13,6.81a.77.77,0,0,0,.79.67,2.25,2.25,0,0,0,1.08-.36l8.38-4.51a.47.47,0,0,0,.15-.11c.23-.29-.35-.54-.72-.48-3.41.58-6.94,1.61-9.32,4.11A1.06,1.06,0,0,0,118.48,124.08Z" transform="translate(-74 -25)"/><path class="cls-5" d="M186.84,116.76a3.66,3.66,0,0,1-3.25-.59,2.06,2.06,0,0,1-.15-3,2.31,2.31,0,0,1,.91-.42,4,4,0,0,1,3.44.77,2,2,0,0,1,.84,1.8,2.19,2.19,0,0,1-1.79,1.44m-.65-1.12a1.21,1.21,0,0,0,.89-.31.79.79,0,0,0-.13-1,2,2,0,0,0-1-.46c-.66-.15-1.55-.09-1.75.55a1,1,0,0,0,.63,1.11A2.92,2.92,0,0,0,186.19,115.65Z" transform="translate(-74 -25)"/><path class="cls-5" d="M174.19,115.9a10.16,10.16,0,0,1,5.39,1.82,3.49,3.49,0,0,1,1.76,2.72,2.81,2.81,0,0,1-2.56,2.42,7.54,7.54,0,0,1-3.72-.75c-3.48-1.39-6.82-3.13-10.4-4.23s-7.53-1.51-11-.21a9.65,9.65,0,0,1,5,1.45,5,5,0,0,1,2,2.15,2.54,2.54,0,0,1-.44,2.79c-1,1-2.69.62-4,.18a109.16,109.16,0,0,1-12.61-5c-.5-.24-1.08-.59-1.1-1.14s.53-.94,1-1.22L154,110.78c1.21-.7,3-1.3,3.81-.19s-.46,2.84-1.71,3.74l-2.45,1.76c6,.4,11.82-1.94,17.29-4.44,2.1-1,4.3-2,6.6-1.8a2.61,2.61,0,0,1,2,.93c.79,1.17-.29,2.76-1.55,3.39s-2.77.82-3.84,1.74m-11.36,0c-.18.29.3.52.64.54,2.93.18,5.51,1.86,8.18,3.08a27.76,27.76,0,0,0,6.45,2.05,1.87,1.87,0,0,0,1.14,0c.75-.36.71-1.48.28-2.19a5.43,5.43,0,0,0-3.77-2.21c-1.48-.27-3-.25-4.47-.58a.92.92,0,0,1-.54-.27c-.13-.16-.1-.45.1-.52a50.7,50.7,0,0,0,6.38-2.55c.67-.32,1.44-.91,1.22-1.61a1.37,1.37,0,0,0-1.27-.76,9.23,9.23,0,0,0-4.6,1.34,61.83,61.83,0,0,1-9.72,3.69m-9.23,2.8a5.61,5.61,0,0,1-1.51-.27,15.38,15.38,0,0,0-7.43,0c3.76,1.75,7.61,3.31,11.52,4.69a3.74,3.74,0,0,0,2.31.29c.75-.23,1.31-1.2.85-1.83a7,7,0,0,0-5.75-2.83m3.13-6.81a.77.77,0,0,0-.79-.67,2.25,2.25,0,0,0-1.08.36l-8.38,4.51a.47.47,0,0,0-.15.11c-.23.29.35.54.72.48,3.41-.58,6.94-1.61,9.32-4.11A1.06,1.06,0,0,0,156.73,111.9Z" transform="translate(-74 -25)"/><path class="cls-5" d="M85.4,189.18a3.66,3.66,0,0,1,3.2.82,2.06,2.06,0,0,1-.07,3,2.31,2.31,0,0,1-.93.36,4,4,0,0,1-3.38-1,2,2,0,0,1-.71-1.86,2.19,2.19,0,0,1,1.89-1.31m.57,1.16a1.21,1.21,0,0,0-.91.25.79.79,0,0,0,.06,1,2,2,0,0,0,1,.53c.65.19,1.54.2,1.78-.42a1,1,0,0,0-.55-1.16A2.92,2.92,0,0,0,86,190.34Z" transform="translate(-74 -25)"/><path class="cls-5" d="M98,190.95a10.15,10.15,0,0,1-5.24-2.2,3.48,3.48,0,0,1-1.56-2.84,2.82,2.82,0,0,1,2.73-2.23,7.54,7.54,0,0,1,3.66,1c3.37,1.64,6.58,3.61,10.07,5s7.4,2,11,1a9.64,9.64,0,0,1-4.84-1.8,4.94,4.94,0,0,1-1.87-2.29,2.54,2.54,0,0,1,.64-2.75c1.09-.9,2.72-.43,4,.11a109.08,109.08,0,0,1,12.22,5.91c.49.27,1,.66,1,1.22s-.59.9-1.1,1.15l-11,5.31c-1.26.61-3.05,1.09-3.82-.08s.66-2.8,2-3.61l2.57-1.58c-6-.83-11.93,1.1-17.56,3.2-2.16.81-4.43,1.66-6.71,1.33a2.61,2.61,0,0,1-2-1.07c-.71-1.22.48-2.73,1.79-3.27s2.82-.62,4-1.46m11.34.79c.2-.27-.26-.54-.6-.58-2.91-.38-5.37-2.24-7.94-3.65A27.75,27.75,0,0,0,94.47,185a1.87,1.87,0,0,0-1.14,0c-.78.3-.81,1.42-.43,2.16a5.43,5.43,0,0,0,3.6,2.47c1.45.38,3,.46,4.41.9a.92.92,0,0,1,.52.31c.12.17.07.46-.13.51a50.74,50.74,0,0,0-6.54,2.09c-.69.27-1.5.8-1.33,1.52.12.51.7.76,1.22.84a9.23,9.23,0,0,0,4.69-1,61.87,61.87,0,0,1,10-3m9.4-2.13a5.61,5.61,0,0,1,1.48.37,15.38,15.38,0,0,0,7.4.57c-3.62-2-7.35-3.84-11.15-5.5a3.74,3.74,0,0,0-2.28-.45c-.77.18-1.4,1.1-1,1.77a7,7,0,0,0,5.53,3.23m-3.61,6.57a.77.77,0,0,0,.74.72,2.26,2.26,0,0,0,1.1-.28l8.68-3.91a.47.47,0,0,0,.16-.1c.25-.28-.31-.57-.68-.53-3.44.34-7,1.11-9.59,3.44A1.06,1.06,0,0,0,115.09,196.17Z" transform="translate(-74 -25)"/><path class="cls-5" d="M179.06,194.84a3.66,3.66,0,0,1-3.2-.82,2.06,2.06,0,0,1,.07-3,2.31,2.31,0,0,1,.93-.36,4,4,0,0,1,3.38,1,2,2,0,0,1,.71,1.86,2.19,2.19,0,0,1-1.89,1.31m-.57-1.16a1.21,1.21,0,0,0,.91-.25.79.79,0,0,0-.06-1,2,2,0,0,0-1-.53c-.65-.19-1.54-.2-1.78.42a1,1,0,0,0,.55,1.16A2.92,2.92,0,0,0,178.49,193.68Z" transform="translate(-74 -25)"/><path class="cls-5" d="M166.51,193.08a10.15,10.15,0,0,1,5.24,2.2,3.48,3.48,0,0,1,1.56,2.84,2.82,2.82,0,0,1-2.73,2.23,7.54,7.54,0,0,1-3.66-1c-3.37-1.64-6.58-3.61-10.07-5s-7.4-2-11-1a9.64,9.64,0,0,1,4.84,1.8,4.94,4.94,0,0,1,1.87,2.29,2.54,2.54,0,0,1-.64,2.75c-1.09.9-2.72.43-4-.11a109.08,109.08,0,0,1-12.22-5.91c-.49-.27-1-.66-1-1.22s.59-.9,1.1-1.15l11-5.31c1.26-.61,3.05-1.09,3.82.08s-.66,2.8-2,3.61L146,191.81c6,.83,11.93-1.1,17.56-3.2,2.16-.81,4.43-1.66,6.71-1.33a2.61,2.61,0,0,1,2,1.07c.71,1.22-.48,2.73-1.79,3.27s-2.82.62-4,1.46m-11.34-.79c-.2.27.26.54.6.58,2.91.38,5.37,2.24,7.94,3.65A27.75,27.75,0,0,0,170,199a1.87,1.87,0,0,0,1.14,0c.78-.3.81-1.42.43-2.16a5.43,5.43,0,0,0-3.6-2.47c-1.45-.38-3-.46-4.41-.9a.92.92,0,0,1-.52-.31c-.12-.17-.07-.46.13-.51a50.74,50.74,0,0,0,6.54-2.09c.69-.27,1.5-.8,1.33-1.52-.12-.51-.7-.76-1.22-.84a9.23,9.23,0,0,0-4.69,1,61.87,61.87,0,0,1-10,3m-9.4,2.13a5.61,5.61,0,0,1-1.48-.37,15.38,15.38,0,0,0-7.4-.57c3.62,2,7.35,3.84,11.15,5.5a3.74,3.74,0,0,0,2.28.45c.77-.18,1.4-1.1,1-1.77a7,7,0,0,0-5.53-3.23m3.61-6.57a.77.77,0,0,0-.74-.72,2.26,2.26,0,0,0-1.1.28l-8.68,3.91a.47.47,0,0,0-.16.1c-.25.28.31.57.68.53,3.44-.34,7-1.11,9.59-3.44A1.06,1.06,0,0,0,149.38,187.85Z" transform="translate(-74 -25)"/><path class="cls-5" d="M137.35,80.24a2.9,2.9,0,0,1-.47,2.59,1.67,1.67,0,0,1-2.41.12,1.83,1.83,0,0,1-.34-.72,3.15,3.15,0,0,1,.62-2.74,1.6,1.6,0,0,1,1.45-.67,1.75,1.75,0,0,1,1.16,1.43m-.9.52a1,1,0,0,0-.25-.71.64.64,0,0,0-.82.1A1.6,1.6,0,0,0,135,81c-.12.52-.08,1.24.44,1.39a.81.81,0,0,0,.9-.5A2.3,2.3,0,0,0,136.45,80.76Z" transform="translate(-74 -25)"/><path class="cls-5" d="M154.83,101.47a4.93,4.93,0,0,1-.81,4.4c-1,1.16-3.12,1.4-4.11.2a3.11,3.11,0,0,1-.58-1.23,5.37,5.37,0,0,1,1-4.67A2.72,2.72,0,0,1,152.86,99a3,3,0,0,1,2,2.43m-1.53.89a1.62,1.62,0,0,0-.43-1.2,1.1,1.1,0,0,0-1.4.18,2.72,2.72,0,0,0-.63,1.38c-.2.89-.13,2.11.75,2.37a1.37,1.37,0,0,0,1.52-.85A3.92,3.92,0,0,0,153.3,102.35Z" transform="translate(-74 -25)"/><path class="cls-5" d="M124.4,101.17a4.94,4.94,0,0,1,2,4,2.82,2.82,0,0,1-3.16,2.63,3.14,3.14,0,0,1-1.2-.63,5.38,5.38,0,0,1-2-4.35,2.7,2.7,0,0,1,1.28-2.39,3,3,0,0,1,3,.76m-.68,1.62a1.64,1.64,0,0,0-1.07-.7,1.09,1.09,0,0,0-1,1,2.72,2.72,0,0,0,.33,1.48c.38.83,1.17,1.76,2,1.44a1.36,1.36,0,0,0,.7-1.59A3.93,3.93,0,0,0,123.71,102.8Z" transform="translate(-74 -25)"/><path class="cls-5" d="M136.65,90.31A8,8,0,0,1,138.12,86a2.81,2.81,0,0,1,2.19-1.4,2.25,2.25,0,0,1,1.95,2,6,6,0,0,1-.6,3c-1.12,2.77-2.52,5.43-3.4,8.29a13.75,13.75,0,0,0-.17,8.79,7.63,7.63,0,0,1,1.17-4,4,4,0,0,1,1.73-1.62,2.06,2.06,0,0,1,2.24.35c.78.82.5,2.14.14,3.21a86.46,86.46,0,0,1-4,10.05c-.19.4-.47.86-.92.88s-.76-.42-1-.81l-4.89-8.42c-.56-1-1-2.37-.16-3s2.29.36,3,1.36l1.41,2c.32-4.78-1.56-9.42-3.58-13.77a10.92,10.92,0,0,1-1.45-5.26,2.07,2.07,0,0,1,.75-1.61c.94-.63,2.22.23,2.73,1.24s.66,2.21,1.4,3.06m0,9.05c.23.15.42-.24.43-.51.14-2.33,1.49-4.39,2.48-6.52a22,22,0,0,0,1.65-5.14,1.48,1.48,0,0,0,0-.91c-.29-.6-1.19-.56-1.76-.22a4.32,4.32,0,0,0-1.78,3c-.22,1.18-.2,2.39-.47,3.56a.73.73,0,0,1-.22.43c-.13.1-.36.08-.42-.08a40.16,40.16,0,0,0-2.05-5.08c-.26-.53-.73-1.15-1.29-1a1.09,1.09,0,0,0-.61,1,7.3,7.3,0,0,0,1.08,3.67,49,49,0,0,1,3,7.74m2.25,7.35a4.43,4.43,0,0,1-.22,1.2,12.14,12.14,0,0,0,0,5.92c1.41-3,2.66-6.06,3.78-9.18a3,3,0,0,0,.23-1.84c-.19-.6-1-1-1.48-.68a5.59,5.59,0,0,0-2.28,4.58m-5.48-2.49a.62.62,0,0,0-.54.63,1.78,1.78,0,0,0,.29.86l3.63,6.68a.38.38,0,0,0,.09.12c.24.19.44-.28.39-.57-.47-2.72-1.3-5.53-3.31-7.42A.86.86,0,0,0,133.44,104.22Z" transform="translate(-74 -25)"/><path class="cls-5" d="M161.06,95.47a8.55,8.55,0,0,0-7.69-3.35.23.23,0,0,0,0,.46,7.86,7.86,0,0,1,6.24,4.31,6.93,6.93,0,0,1,.61,3.88c-.15,1.11-.62,1.93-.46,3.06.12.88,1.21,1,1.79.55C164,102.47,162.56,97.56,161.06,95.47Z" transform="translate(-74 -25)"/><path class="cls-5" d="M167.71,88.14a14.62,14.62,0,0,0-13.43-4.33c-.14,0-.12.27,0,.26A13.78,13.78,0,0,1,165.95,89a13.54,13.54,0,0,1,2.71,6.14c.4,2.34-.09,4.32-.54,6.59-.25,1.25,1.58,2.46,2.26,1.06C172.62,98.16,171.09,91.83,167.71,88.14Z" transform="translate(-74 -25)"/><path class="cls-5" d="M122.61,93.17c-5.94.58-12.64,6.63-11.6,13.06.22,1.38,2.06.95,2.26-.21.47-2.8.71-5.12,2.45-7.51a12.76,12.76,0,0,1,7-4.78A.29.29,0,0,0,122.61,93.17Z" transform="translate(-74 -25)"/><path class="cls-5" d="M123.08,85.86c-5.46-.92-10.47,2-14.23,5.7a27.13,27.13,0,0,0-4.76,6.37c-1.16,2.14-2.77,5.13-2.56,7.62.1,1.15,1.72,2,2.43.76,1.08-2,1.37-4.34,2.29-6.4A26.94,26.94,0,0,1,109.93,94c3.21-4,7.82-7.49,13.13-7.65A.25.25,0,0,0,123.08,85.86Z" transform="translate(-74 -25)"/><path class="cls-6" d="M116,142.55a4.28,4.28,0,0,1-2.13,3.6,7.51,7.51,0,0,1-4.46,1.08,5.22,5.22,0,0,1-4.82-3.1,12.63,12.63,0,0,1-.94-6,16.29,16.29,0,0,1,1.76-6.86q2.06-3.94,5.34-3.81a2.83,2.83,0,0,1,.84.26,5.8,5.8,0,0,1,2.7,3,8.7,8.7,0,0,1,1,4.09q-.14,3.43-1.53,3.37-.79,0-.76-.68a3.64,3.64,0,0,1,.42-.8,2.57,2.57,0,0,0,.43-1.11,10.64,10.64,0,0,0-.6-4q-.89-2.57-2.62-2.64a3.68,3.68,0,0,0-3.15,2,10.4,10.4,0,0,0-1.53,3.7,22.26,22.26,0,0,0-.51,3.63,13.76,13.76,0,0,0,.33,4.38,4.35,4.35,0,0,0,2.93,3,4.27,4.27,0,0,0,1.18.27,5,5,0,0,0,2.49-.55,4.35,4.35,0,0,0,1.82-1.67,3.7,3.7,0,0,0,.62-1.38q0-.62-.93-.66a7.36,7.36,0,0,0-3.13.42,10.6,10.6,0,0,0-1.12.5q-.93,0-.87-1.53a.66.66,0,0,1,.39-.55,7.86,7.86,0,0,1,2.08-.42,15.6,15.6,0,0,1,2.22-.19,2.86,2.86,0,0,1,1.89.75A2.22,2.22,0,0,1,116,142.55Z" transform="translate(-74 -25)"/><path class="cls-6" d="M131.4,147.69v.14a.54.54,0,0,1-.49.26q-.4,0-.5-.16-.18-1.16-3.67-3.83T122,141.39l-1.61-.07-.07,1.74a15.05,15.05,0,0,0,.13,1.7,5.9,5.9,0,0,0,.23,1.56,3.92,3.92,0,0,0,.47.72q0,.65-.76.62a1.43,1.43,0,0,1-1.22-.64q-.4-.61-.19-5.53,0-.39-1-.74t-1-.77q0-.62,1.86-1.05a17.85,17.85,0,0,0,.37-2.69q.2-2.1.28-2.72,0-.31.32-1.68a7.83,7.83,0,0,0,.24-1.71,1.92,1.92,0,0,0-.75-.12q-.61,0-.59-.5a.68.68,0,0,1,.6-.71l.83-.19a1.83,1.83,0,0,1,.39-.6,1.46,1.46,0,0,1,.46-.07,1,1,0,0,1,.62.34.91.91,0,0,0,.57.33,2.6,2.6,0,0,0,.4,0,2.6,2.6,0,0,1,.4,0,10.08,10.08,0,0,1,5.23,1.51,4.85,4.85,0,0,1,2.44,4.55,5.49,5.49,0,0,1-1.6,3.88,14.36,14.36,0,0,1-3.6,2.25,1.46,1.46,0,0,0-.4.12,22,22,0,0,0,2.47,1.93,20.7,20.7,0,0,1,2.74,2.22A3.52,3.52,0,0,1,131.4,147.69Zm-2.19-13.24a3.63,3.63,0,0,0-1.81-3.37,7.47,7.47,0,0,0-3.85-1.12,6.75,6.75,0,0,0-1.36.06l-.39.55a3.65,3.65,0,0,0-.52,1.7q-.12,1.54-.19,1.82a32.35,32.35,0,0,0-.66,5.07,11.19,11.19,0,0,0,2.56.89,4.16,4.16,0,0,0,1.14-.18A7.21,7.21,0,0,0,127.6,138,5,5,0,0,0,129.21,134.45Z" transform="translate(-74 -25)"/><path class="cls-6" d="M144.5,147.19q-.15.3-.35.3l-.32-.06-.32-.06A12.34,12.34,0,0,0,140,148a12.36,12.36,0,0,1-3.55.61q-4-.16-3.71-6.82.22-5.28.66-9l.09-.9a3.07,3.07,0,0,0,0-.58,2.92,2.92,0,0,1-.05-.49q0-.67,1-.72a39.3,39.3,0,0,0,4.16-.7,19.79,19.79,0,0,1,4-.51,2,2,0,0,1,.39.07,1.4,1.4,0,0,1,.87.29.76.76,0,0,1,.4.61q0,.56-1.46.5a23.68,23.68,0,0,0-3.83.29,9.42,9.42,0,0,0-3.55,1q-.32,2.13-.82,6.67a.38.38,0,0,0,.3.15,9.14,9.14,0,0,0,2.54-.43,9.16,9.16,0,0,1,2.57-.43,3.06,3.06,0,0,1,1.4.42l.19.85q.05.11-.75.36a1.72,1.72,0,0,0-1-.32,13.24,13.24,0,0,0-2.69.4,17.11,17.11,0,0,0-2.71.73,21.4,21.4,0,0,0-.23,2.86q-.18,4.24,2,4.33a10,10,0,0,0,3-.56,10,10,0,0,1,3-.56Q144,146.16,144.5,147.19Z" transform="translate(-74 -25)"/><path class="cls-6" d="M157.3,147.72q-.15.3-.35.3l-.32-.06-.32-.06a12.34,12.34,0,0,0-3.55.61,12.36,12.36,0,0,1-3.55.61q-4-.16-3.71-6.82.22-5.28.66-9l.09-.9a3.05,3.05,0,0,0,0-.58,2.94,2.94,0,0,1-.05-.49q0-.67,1-.72a39.32,39.32,0,0,0,4.16-.7,19.79,19.79,0,0,1,4-.51,2,2,0,0,1,.39.07,1.4,1.4,0,0,1,.87.29.76.76,0,0,1,.4.61q0,.56-1.46.5a23.68,23.68,0,0,0-3.83.29,9.41,9.41,0,0,0-3.55,1q-.32,2.13-.82,6.67a.38.38,0,0,0,.3.15,9.14,9.14,0,0,0,2.54-.43,9.16,9.16,0,0,1,2.57-.43,3.06,3.06,0,0,1,1.4.42l.19.85q.05.11-.75.36a1.72,1.72,0,0,0-1-.32,13.24,13.24,0,0,0-2.69.4,17.11,17.11,0,0,0-2.71.73,21.45,21.45,0,0,0-.23,2.86q-.18,4.24,2,4.33a10,10,0,0,0,3-.56,10,10,0,0,1,3-.56Q156.81,146.68,157.3,147.72Z" transform="translate(-74 -25)"/><path class="cls-6" d="M171.6,130.54a.34.34,0,0,1-.27.36l-.55.2q-.41.21-.81,2.5a22.38,22.38,0,0,0-.38,2.92l-.44,8.53a8.29,8.29,0,0,1-.58,2.43q-.66,1.66-1.57,1.63-1.38-.06-2.46-2.66a32.78,32.78,0,0,1-1.18-3.89q-.74-2.86-2.2-8.58-.31,0-.36.55-.09.76-.62,3.92a32.19,32.19,0,0,0-.47,3.92q-.19,4.53.35,5.25a2.51,2.51,0,0,1,.29.52q0,.31-.44.57a1.36,1.36,0,0,1-.74.25q-1.14,0-1-3.73,0-.51,0-1.44t0-1.44a28,28,0,0,1,.52-3.68,28.11,28.11,0,0,0,.52-3.71l.15-3.63a.67.67,0,0,0,0-.18.67.67,0,0,1,0-.18q0-.73,1.47-.67a1.77,1.77,0,0,1,1.61.8,4.71,4.71,0,0,1,.17,1.25q.06.68.11,1.38a58.07,58.07,0,0,0,1.73,7.48q1.7,6,2.58,6.08t.86-3l.27-8.45a11.93,11.93,0,0,1,.67-3.3q.81-2.36,1.94-2.32A1.66,1.66,0,0,1,171.6,130.54Z" transform="translate(-74 -25)"/><path class="cls-6" d="M121.35,156.66l-.5.35a1.36,1.36,0,0,0-.33.49q-.69,1.58-1.1,8.8,1,.27,1,.72a1.18,1.18,0,0,1-.28.64l-.83.3a33.53,33.53,0,0,0,.13,3.64q0,.14.25.85a2.88,2.88,0,0,1,.16.8,1.12,1.12,0,0,1-.28.66.74.74,0,0,1-.61.31q-.76,0-1-1.17,0-.14-.15-1.79t-.11-2.13a5.17,5.17,0,0,1,.12-1,25,25,0,0,0-4.16.31l-4.12.64-.53.48q0,1.07-.06,2.16a3.79,3.79,0,0,0,.48,2.15q-.13.36-.37.35a1.6,1.6,0,0,0-.57.1,1.52,1.52,0,0,1-.5.11q-.54,0-.59-2.11,0-1.31,0-2.62l-.19-.29h-.11a1.18,1.18,0,0,1-.67-.24.64.64,0,0,1-.29-.56,1.36,1.36,0,0,1,.28-.62c.18-.26.36-.39.53-.39h.31l.14,0q.08-1.23.23-4.92a21.58,21.58,0,0,1,1-6.63,1.06,1.06,0,0,1,1-.71,1.52,1.52,0,0,1,.86.33.88.88,0,0,1,.39.76,2.7,2.7,0,0,1-.29.75q-.32.69-.35.8a31.63,31.63,0,0,0-1.12,8.12q-.05,1.26.43,1.28.14,0,1.51-.22a28.56,28.56,0,0,1,4.11-.39,4.11,4.11,0,0,0,.87-.12,4.84,4.84,0,0,1,1.2-.11q.58,0,.59-.76l0-2.48a33.8,33.8,0,0,1,.42-4.77q.58-3.75,1.68-3.7a1.28,1.28,0,0,1,1,.63A2.18,2.18,0,0,1,121.35,156.66Z" transform="translate(-74 -25)"/><path class="cls-6" d="M136.72,165.56a13,13,0,0,1-2.07,6.8,6.49,6.49,0,0,1-5.93,3.19,6.92,6.92,0,0,1-2.16-.51q-4.66-1.68-4.37-8.62a14.64,14.64,0,0,1,2.11-7.2q2.31-3.79,6.07-3.63a5.76,5.76,0,0,1,5,3.55A12.61,12.61,0,0,1,136.72,165.56Zm-1.57-.32q.26-6.23-3.85-7.81a2.3,2.3,0,0,0-.78-.2,5.2,5.2,0,0,0-3.62,1.51q-3.08,2.69-3.32,8.55a9.84,9.84,0,0,0,.16,1.69,7.27,7.27,0,0,0,1.43,3.66,4.81,4.81,0,0,0,3.58,1.5,5.1,5.1,0,0,0,4.92-3A13.11,13.11,0,0,0,135.15,165.24Z" transform="translate(-74 -25)"/><path class="cls-6" d="M151.84,175.57v.14a.54.54,0,0,1-.49.26q-.4,0-.5-.16-.18-1.16-3.67-3.83t-4.77-2.72l-1.61-.07-.07,1.74a15,15,0,0,0,.13,1.7,5.9,5.9,0,0,0,.23,1.56,3.93,3.93,0,0,0,.47.72q0,.65-.76.62a1.43,1.43,0,0,1-1.22-.64q-.4-.61-.19-5.53,0-.39-1-.74t-1-.77q0-.62,1.86-1a17.85,17.85,0,0,0,.37-2.69q.2-2.1.28-2.72,0-.31.32-1.68a7.82,7.82,0,0,0,.24-1.71,1.92,1.92,0,0,0-.75-.12q-.61,0-.59-.5a.68.68,0,0,1,.6-.71l.83-.19a1.83,1.83,0,0,1,.39-.6,1.46,1.46,0,0,1,.46-.07,1,1,0,0,1,.62.34.91.91,0,0,0,.57.33l.4,0a2.6,2.6,0,0,1,.4,0,10.08,10.08,0,0,1,5.23,1.51,4.85,4.85,0,0,1,2.44,4.55,5.49,5.49,0,0,1-1.6,3.88,14.37,14.37,0,0,1-3.6,2.25,1.46,1.46,0,0,0-.4.12,22,22,0,0,0,2.47,1.93,20.69,20.69,0,0,1,2.74,2.22A3.52,3.52,0,0,1,151.84,175.57Zm-2.19-13.24a3.63,3.63,0,0,0-1.81-3.37,7.47,7.47,0,0,0-3.85-1.12,6.75,6.75,0,0,0-1.36.06l-.39.55a3.65,3.65,0,0,0-.52,1.7q-.12,1.54-.19,1.82a32.35,32.35,0,0,0-.66,5.07,11.19,11.19,0,0,0,2.56.89,4.18,4.18,0,0,0,1.14-.18,7.2,7.2,0,0,0,3.46-1.91A5,5,0,0,0,149.64,162.33Z" transform="translate(-74 -25)"/><path class="cls-6" d="M166.61,157.37a.34.34,0,0,1-.27.36l-.55.2q-.41.21-.81,2.5a22.45,22.45,0,0,0-.38,2.92l-.44,8.53a8.28,8.28,0,0,1-.58,2.43q-.66,1.66-1.57,1.63-1.38-.06-2.46-2.66a32.92,32.92,0,0,1-1.18-3.89q-.74-2.86-2.2-8.58-.31,0-.36.55-.09.76-.62,3.92a32.2,32.2,0,0,0-.47,3.92q-.19,4.53.35,5.25a2.51,2.51,0,0,1,.29.52c0,.21-.16.4-.44.57a1.36,1.36,0,0,1-.74.25q-1.14,0-1-3.73,0-.51,0-1.44t0-1.44a28,28,0,0,1,.52-3.68,28.11,28.11,0,0,0,.52-3.71l.15-3.63a.67.67,0,0,0,0-.18.67.67,0,0,1,0-.18q0-.73,1.47-.67a1.77,1.77,0,0,1,1.61.8,4.69,4.69,0,0,1,.17,1.25q.06.68.11,1.38a58,58,0,0,0,1.73,7.48q1.7,6,2.58,6.08t.86-3l.27-8.45a11.91,11.91,0,0,1,.68-3.3q.81-2.36,1.94-2.32A1.66,1.66,0,0,1,166.61,157.37Z" transform="translate(-74 -25)"/></svg>