<svg id="Ebene_1" data-name="Ebene 1" xmlns="http://www.w3.org/2000/svg" viewBox="0 0 320.5 118"><defs><style>.cls-1{fill:#f2906d;}.cls-2{fill:#ffd405;}.cls-3{fill:#fff;}</style></defs><title>randomBag_bg2</title><rect class="cls-1" width="320.5" height="118"/><polygon class="cls-2" points="184.42 103.17 161.44 93.82 139.44 105.26 142.71 83.04 123.79 68.29 148.78 63.91 159.1 43.36 171.28 62.87 196.57 64.91 179.1 81.35 184.42 103.17"/><path class="cls-3" d="M108,26.12a2.63,2.63,0,0,1-1,2.21,4.45,4.45,0,0,1-2.78.79,7,7,0,0,1-2.93-.49v-1.2a7.71,7.71,0,0,0,1.44.44,7.55,7.55,0,0,0,1.54.16,3.11,3.11,0,0,0,1.88-.47,1.55,1.55,0,0,0,.63-1.32,1.69,1.69,0,0,0-.22-.91,2.07,2.07,0,0,0-.75-.66,10.44,10.44,0,0,0-1.59-.68,5.07,5.07,0,0,1-2.13-1.27,2.79,2.79,0,0,1-.64-1.91,2.38,2.38,0,0,1,.93-2,3.87,3.87,0,0,1,2.46-.73,7.25,7.25,0,0,1,2.94.59l-.39,1.08a6.64,6.64,0,0,0-2.58-.56,2.5,2.5,0,0,0-1.55.42,1.4,1.4,0,0,0-.56,1.18,1.81,1.81,0,0,0,.21.91,1.93,1.93,0,0,0,.69.65,8.49,8.49,0,0,0,1.49.66,5.92,5.92,0,0,1,2.32,1.29A2.54,2.54,0,0,1,108,26.12Z"/><path class="cls-3" d="M113.23,29.12a3.43,3.43,0,0,1-2.7-1.07,4.41,4.41,0,0,1-1-3,4.55,4.55,0,0,1,1-3.11,3.49,3.49,0,0,1,2.77-1.1,5.49,5.49,0,0,1,1.16.13,3.81,3.81,0,0,1,.91.29l-.37,1a5.77,5.77,0,0,0-.88-.27,4,4,0,0,0-.84-.11q-2.45,0-2.45,3.12a3.71,3.71,0,0,0,.6,2.27,2.08,2.08,0,0,0,1.77.79,5.41,5.41,0,0,0,2.06-.43v1.08A4.37,4.37,0,0,1,113.23,29.12Z"/><path class="cls-3" d="M122.65,29V23.81a2.1,2.1,0,0,0-.45-1.46,1.82,1.82,0,0,0-1.4-.48,2.3,2.3,0,0,0-1.85.69,3.49,3.49,0,0,0-.58,2.26V29h-1.22V17.6h1.22V21a7.51,7.51,0,0,1-.06,1h.07a2.48,2.48,0,0,1,1-.91,3.33,3.33,0,0,1,1.51-.33,3.1,3.1,0,0,1,2.21.7,3,3,0,0,1,.74,2.22V29Z"/><path class="cls-3" d="M132.92,29l-1.47-4.71q-.14-.43-.52-2h-.06q-.29,1.28-.51,2L128.84,29h-1.41l-2.19-8h1.27l1.18,4.61a18.76,18.76,0,0,1,.46,2.13h.06q.08-.42.26-1.08t.31-1L130.25,21h1.32L133,25.6a15.55,15.55,0,0,1,.56,2.12h.06a7.7,7.7,0,0,1,.16-.81q.13-.55,1.53-5.91h1.26l-2.22,8Z"/><path class="cls-3" d="M137.93,18.77a.81.81,0,0,1,.21-.61.76.76,0,0,1,1,0,.79.79,0,0,1,.21.61.81.81,0,0,1-.21.61.71.71,0,0,1-.51.2.7.7,0,0,1-.51-.2A.82.82,0,0,1,137.93,18.77ZM139.25,29H138V21h1.22Z"/><path class="cls-3" d="M145.22,29.12A3.69,3.69,0,0,1,142.41,28a4.2,4.2,0,0,1-1-3,4.66,4.66,0,0,1,1-3.08A3.18,3.18,0,0,1,145,20.82a3,3,0,0,1,2.39,1,3.81,3.81,0,0,1,.88,2.62v.77h-5.53a3.18,3.18,0,0,0,.71,2.15,2.47,2.47,0,0,0,1.91.73,6.46,6.46,0,0,0,2.56-.54v1.08a6.4,6.4,0,0,1-1.22.4A6.81,6.81,0,0,1,145.22,29.12Zm-.33-7.3a2,2,0,0,0-1.54.63,2.9,2.9,0,0,0-.68,1.74h4.2a2.67,2.67,0,0,0-.51-1.76A1.8,1.8,0,0,0,144.89,21.82Z"/><path class="cls-3" d="M153.9,20.8a4.75,4.75,0,0,1,1,.09L154.7,22a4.15,4.15,0,0,0-.88-.11,2.14,2.14,0,0,0-1.67.79,2.88,2.88,0,0,0-.69,2V29h-1.22V21h1l.14,1.49h.06a3.53,3.53,0,0,1,1.08-1.21A2.43,2.43,0,0,1,153.9,20.8Z"/><path class="cls-3" d="M156.26,18.77a.81.81,0,0,1,.21-.61.76.76,0,0,1,1,0,.8.8,0,0,1,.21.61.81.81,0,0,1-.21.61.71.71,0,0,1-.51.2.7.7,0,0,1-.51-.2A.82.82,0,0,1,156.26,18.77ZM157.58,29h-1.22V21h1.22Z"/><path class="cls-3" d="M166.73,20.94v.77l-1.49.18a2.61,2.61,0,0,1,.53,1.6,2.37,2.37,0,0,1-.81,1.88,3.25,3.25,0,0,1-2.21.7,3.68,3.68,0,0,1-.67-.06,1.2,1.2,0,0,0-.78,1,.52.52,0,0,0,.27.49,2,2,0,0,0,.93.16h1.42a3.17,3.17,0,0,1,2,.55,1.9,1.9,0,0,1,.7,1.6,2.28,2.28,0,0,1-1.07,2,5.73,5.73,0,0,1-3.12.7A4.26,4.26,0,0,1,160,32a1.89,1.89,0,0,1-.85-1.66,1.86,1.86,0,0,1,.47-1.27,2.39,2.39,0,0,1,1.32-.73,1.26,1.26,0,0,1-.52-.43,1.14,1.14,0,0,1-.21-.68,1.29,1.29,0,0,1,.23-.77,2.44,2.44,0,0,1,.74-.64,2.16,2.16,0,0,1-1-.87,2.56,2.56,0,0,1-.39-1.41,2.6,2.6,0,0,1,.79-2,3.23,3.23,0,0,1,2.24-.71A4.08,4.08,0,0,1,164,21Zm-6.4,9.38a1.09,1.09,0,0,0,.55,1,3,3,0,0,0,1.58.34,4.4,4.4,0,0,0,2.27-.46,1.4,1.4,0,0,0,.74-1.24,1,1,0,0,0-.4-.91,3.13,3.13,0,0,0-1.52-.25h-1.46a1.92,1.92,0,0,0-1.29.4A1.41,1.41,0,0,0,160.33,30.32Zm.66-6.8a1.63,1.63,0,0,0,.48,1.28,1.9,1.9,0,0,0,1.33.43,1.55,1.55,0,0,0,1.78-1.73,1.6,1.6,0,0,0-1.8-1.81,1.78,1.78,0,0,0-1.32.46,1.86,1.86,0,0,0-.46,1.36Z"/><path class="cls-3" d="M169.58,24.86a14.61,14.61,0,0,1,1-1.17l2.59-2.75h1.44l-3.25,3.42L174.8,29h-1.47l-2.83-3.79-.92.79v3h-1.2V17.6h1.2v6q0,.4-.06,1.24Z"/><path class="cls-3" d="M179.64,29.12A3.69,3.69,0,0,1,176.83,28a4.2,4.2,0,0,1-1-3,4.66,4.66,0,0,1,1-3.08,3.18,3.18,0,0,1,2.57-1.14,3,3,0,0,1,2.39,1,3.81,3.81,0,0,1,.88,2.62v.77h-5.53a3.18,3.18,0,0,0,.71,2.15,2.47,2.47,0,0,0,1.91.73,6.46,6.46,0,0,0,2.56-.54v1.08a6.4,6.4,0,0,1-1.22.4A6.82,6.82,0,0,1,179.64,29.12Zm-.33-7.3a2,2,0,0,0-1.54.63,2.91,2.91,0,0,0-.68,1.74h4.2a2.67,2.67,0,0,0-.51-1.76A1.8,1.8,0,0,0,179.31,21.82Z"/><path class="cls-3" d="M184.56,18.77a.81.81,0,0,1,.21-.61.76.76,0,0,1,1,0,.8.8,0,0,1,.21.61.81.81,0,0,1-.21.61.71.71,0,0,1-.51.2.7.7,0,0,1-.51-.2A.82.82,0,0,1,184.56,18.77ZM185.88,29h-1.22V21h1.22Z"/><path class="cls-3" d="M191.05,28.11a4,4,0,0,0,.62,0,3.92,3.92,0,0,0,.48-.1v.93a2.21,2.21,0,0,1-.58.16,4.33,4.33,0,0,1-.69.06q-2.33,0-2.33-2.45V21.93H187.4v-.59l1.15-.51.51-1.71h.7V21h2.33v1h-2.33v4.72a1.62,1.62,0,0,0,.34,1.11A1.2,1.2,0,0,0,191.05,28.11Z"/><path class="cls-3" d="M198.93,26.78a2,2,0,0,1-.83,1.73,3.93,3.93,0,0,1-2.34.61,5.08,5.08,0,0,1-2.49-.51V27.48a6,6,0,0,0,1.24.46,5.18,5.18,0,0,0,1.28.17,2.9,2.9,0,0,0,1.46-.3,1,1,0,0,0,.11-1.73,6.41,6.41,0,0,0-1.59-.79,8.68,8.68,0,0,1-1.59-.73,2.19,2.19,0,0,1-.7-.71,1.85,1.85,0,0,1-.23-.94,1.8,1.8,0,0,1,.8-1.55,3.73,3.73,0,0,1,2.19-.57,6.41,6.41,0,0,1,2.53.53l-.43,1a5.84,5.84,0,0,0-2.19-.5,2.52,2.52,0,0,0-1.3.27.84.84,0,0,0-.44.75.91.91,0,0,0,.17.55,1.62,1.62,0,0,0,.53.43,11.84,11.84,0,0,0,1.41.59,5.25,5.25,0,0,1,1.93,1A1.85,1.85,0,0,1,198.93,26.78Z"/><path class="cls-3" d="M207.48,20.94v.77l-1.49.18a2.61,2.61,0,0,1,.53,1.6,2.37,2.37,0,0,1-.81,1.88,3.25,3.25,0,0,1-2.21.7,3.68,3.68,0,0,1-.67-.06,1.2,1.2,0,0,0-.78,1,.52.52,0,0,0,.27.49,2,2,0,0,0,.93.16h1.42a3.17,3.17,0,0,1,2,.55,1.9,1.9,0,0,1,.7,1.6,2.28,2.28,0,0,1-1.07,2,5.73,5.73,0,0,1-3.12.7,4.26,4.26,0,0,1-2.43-.59,1.89,1.89,0,0,1-.85-1.66,1.86,1.86,0,0,1,.47-1.27,2.39,2.39,0,0,1,1.32-.73,1.26,1.26,0,0,1-.52-.43,1.14,1.14,0,0,1-.21-.68,1.29,1.29,0,0,1,.23-.77,2.44,2.44,0,0,1,.74-.64,2.16,2.16,0,0,1-1-.87,2.56,2.56,0,0,1-.39-1.41,2.6,2.6,0,0,1,.79-2,3.23,3.23,0,0,1,2.24-.71,4.08,4.08,0,0,1,1.14.15Zm-6.4,9.38a1.09,1.09,0,0,0,.55,1,3,3,0,0,0,1.58.34,4.4,4.4,0,0,0,2.27-.46,1.4,1.4,0,0,0,.74-1.24,1,1,0,0,0-.4-.91,3.13,3.13,0,0,0-1.52-.25h-1.46a1.92,1.92,0,0,0-1.29.4A1.41,1.41,0,0,0,201.08,30.32Zm.66-6.8a1.63,1.63,0,0,0,.48,1.28,1.9,1.9,0,0,0,1.33.43,1.55,1.55,0,0,0,1.78-1.73,1.6,1.6,0,0,0-1.8-1.81,1.78,1.78,0,0,0-1.32.46,1.86,1.86,0,0,0-.47,1.36Z"/><path class="cls-3" d="M212.79,20.8a4.75,4.75,0,0,1,1,.09L213.62,22a4.15,4.15,0,0,0-.88-.11,2.14,2.14,0,0,0-1.67.79,2.88,2.88,0,0,0-.69,2V29h-1.22V21h1l.14,1.49h.06a3.53,3.53,0,0,1,1.08-1.21A2.43,2.43,0,0,1,212.79,20.8Z"/><path class="cls-3" d="M220.19,29l-.24-1.14h-.06a3.38,3.38,0,0,1-1.2,1,3.64,3.64,0,0,1-1.49.27,2.68,2.68,0,0,1-1.87-.62,2.24,2.24,0,0,1-.68-1.75q0-2.43,3.89-2.55h1.36v-.5a2,2,0,0,0-.41-1.39,1.67,1.67,0,0,0-1.3-.45,5.3,5.3,0,0,0-2.27.62l-.37-.93a5.73,5.73,0,0,1,1.3-.51,5.67,5.67,0,0,1,1.42-.18,3.05,3.05,0,0,1,2.13.64,2.66,2.66,0,0,1,.69,2V29Zm-2.75-.86a2.47,2.47,0,0,0,1.78-.62,2.3,2.3,0,0,0,.65-1.74V25l-1.21,0a4.43,4.43,0,0,0-2.09.45,1.36,1.36,0,0,0-.64,1.24,1.25,1.25,0,0,0,.4,1,1.65,1.65,0,0,0,1.11.37Z"/><path class="cls-3" d="M229.06,27.9H229a2.86,2.86,0,0,1-2.52,1.22A3,3,0,0,1,224,28a4.74,4.74,0,0,1-.88-3.06,4.82,4.82,0,0,1,.88-3.08,3,3,0,0,1,2.45-1.1A2.92,2.92,0,0,1,229,22h.1l-.05-.58V17.59h1.21V29h-1Zm-2.43.21a2.22,2.22,0,0,0,1.81-.68,3.43,3.43,0,0,0,.56-2.19V25a4,4,0,0,0-.57-2.43,2.15,2.15,0,0,0-1.81-.73,1.86,1.86,0,0,0-1.64.83,4.13,4.13,0,0,0-.57,2.35,4,4,0,0,0,.56,2.32,1.91,1.91,0,0,0,1.66.76Z"/></svg>