<svg id="Ebene_1" data-name="Ebene 1" xmlns="http://www.w3.org/2000/svg" viewBox="0 0 320.5 518"><defs><style>.cls-1{fill:#fc926a;}.cls-2{fill:#fff;}.cls-3{fill:#ffd400;}</style></defs><title>Rezepte-Bot_Erstellen_tüten</title><rect class="cls-1" width="320.5" height="104"/><path class="cls-2" d="M36.32,76.81l-3.63-9.49h-.06q.1,1.13.1,2.68v6.81H31.58V66.1h1.88l3.39,8.83h.06l3.42-8.83h1.86V76.81H40.94v-6.9q0-1.19.1-2.58H41l-3.66,9.48Z"/><path class="cls-2" d="M44.83,66.61A.81.81,0,0,1,45,66a.76.76,0,0,1,1,0,.79.79,0,0,1,.21.61.81.81,0,0,1-.21.61.74.74,0,0,1-1,0A.82.82,0,0,1,44.83,66.61Zm1.32,10.2H44.94v-8h1.22Z"/><path class="cls-2" d="M51.32,76a4,4,0,0,0,.62,0l.48-.1v.93a2.23,2.23,0,0,1-.58.16,4.38,4.38,0,0,1-.69.06q-2.33,0-2.33-2.45V69.73H47.67v-.59l1.15-.51.51-1.71H50v1.86h2.33v.94H50v4.72a1.63,1.63,0,0,0,.34,1.11A1.2,1.2,0,0,0,51.32,76Z"/><path class="cls-2" d="M63.06,76.81H57.23V76l4.38-6.25H57.5v-.94h5.44v.94l-4.32,6.14h4.43Z"/><path class="cls-2" d="M66.08,68.78V74a2.1,2.1,0,0,0,.45,1.46,1.82,1.82,0,0,0,1.4.48,2.28,2.28,0,0,0,1.84-.69A3.47,3.47,0,0,0,70.35,73V68.78h1.22v8h-1l-.18-1.08h-.07a2.42,2.42,0,0,1-1,.91,3.48,3.48,0,0,1-1.51.31,3.07,3.07,0,0,1-2.19-.7A3,3,0,0,1,64.85,74V68.78Z"/><path class="cls-2" d="M77.76,69.73h-2v7.08H74.5V69.73H73.07v-.55l1.44-.44v-.45q0-3,2.59-3a5.32,5.32,0,0,1,1.49.26l-.31,1a4,4,0,0,0-1.2-.23,1.17,1.17,0,0,0-1,.46,2.55,2.55,0,0,0-.33,1.47v.52h2Z"/><path class="cls-2" d="M84.17,76.81l-.24-1.14h-.06a3.37,3.37,0,0,1-1.2,1,3.65,3.65,0,0,1-1.49.27,2.68,2.68,0,0,1-1.87-.62,2.24,2.24,0,0,1-.68-1.75q0-2.43,3.89-2.55l1.36,0v-.5a2,2,0,0,0-.41-1.4,1.67,1.67,0,0,0-1.3-.45,5.3,5.3,0,0,0-2.27.62l-.37-.93a5.71,5.71,0,0,1,1.3-.51,5.63,5.63,0,0,1,1.42-.18,3.06,3.06,0,0,1,2.13.64,2.66,2.66,0,0,1,.69,2v5.48ZM81.42,76a2.47,2.47,0,0,0,1.78-.62,2.3,2.3,0,0,0,.65-1.74v-.73l-1.22.05a4.43,4.43,0,0,0-2.09.45,1.36,1.36,0,0,0-.64,1.24,1.25,1.25,0,0,0,.4,1A1.66,1.66,0,0,0,81.42,76ZM80,66.61a.63.63,0,0,1,.66-.72.73.73,0,0,1,.48.17.68.68,0,0,1,.2.55.66.66,0,0,1-.68.73.66.66,0,0,1-.47-.18A.71.71,0,0,1,80,66.61Zm2.79,0a.63.63,0,0,1,.66-.72.72.72,0,0,1,.47.17.68.68,0,0,1,.2.55.69.69,0,0,1-.2.55.69.69,0,0,1-.47.18.66.66,0,0,1-.46-.18A.71.71,0,0,1,82.77,66.61Z"/><path class="cls-2" d="M88.79,76.81H87.57V65.41h1.22Z"/><path class="cls-2" d="M92.58,76.81H91.36V65.41h1.22Z"/><path class="cls-2" d="M95.06,66.61a.81.81,0,0,1,.21-.61.76.76,0,0,1,1,0,.79.79,0,0,1,.21.61.81.81,0,0,1-.21.61.74.74,0,0,1-1,0A.82.82,0,0,1,95.06,66.61Zm1.32,10.2H95.16v-8h1.22Z"/><path class="cls-2" d="M105.52,68.78v.77l-1.49.18a2.61,2.61,0,0,1,.53,1.6,2.37,2.37,0,0,1-.81,1.88,3.25,3.25,0,0,1-2.21.7,3.68,3.68,0,0,1-.67-.06,1.2,1.2,0,0,0-.78,1,.52.52,0,0,0,.27.49,2,2,0,0,0,.93.16h1.42a3.18,3.18,0,0,1,2,.55,1.91,1.91,0,0,1,.7,1.6,2.28,2.28,0,0,1-1.07,2,5.73,5.73,0,0,1-3.12.7,4.26,4.26,0,0,1-2.43-.59,1.89,1.89,0,0,1-.85-1.66,1.86,1.86,0,0,1,.47-1.27,2.39,2.39,0,0,1,1.32-.73,1.27,1.27,0,0,1-.52-.43,1.14,1.14,0,0,1-.21-.68,1.29,1.29,0,0,1,.23-.77,2.46,2.46,0,0,1,.74-.64,2.17,2.17,0,0,1-1-.87,2.56,2.56,0,0,1-.39-1.41,2.6,2.6,0,0,1,.79-2,3.23,3.23,0,0,1,2.24-.71,4.08,4.08,0,0,1,1.14.15Zm-6.4,9.38a1.09,1.09,0,0,0,.55,1,3,3,0,0,0,1.57.34,4.4,4.4,0,0,0,2.27-.46,1.4,1.4,0,0,0,.74-1.24,1,1,0,0,0-.4-.9,3.14,3.14,0,0,0-1.52-.25h-1.46a1.92,1.92,0,0,0-1.29.4A1.41,1.41,0,0,0,99.12,78.16Zm.66-6.8a1.63,1.63,0,0,0,.48,1.27,1.9,1.9,0,0,0,1.33.43,1.55,1.55,0,0,0,1.78-1.73,1.6,1.6,0,0,0-1.8-1.81,1.78,1.78,0,0,0-1.32.46A1.86,1.86,0,0,0,99.78,71.35Z"/><path class="cls-2" d="M110.56,77a3.69,3.69,0,0,1-2.81-1.08,4.2,4.2,0,0,1-1-3,4.66,4.66,0,0,1,1-3.08,3.18,3.18,0,0,1,2.57-1.14,3,3,0,0,1,2.39,1,3.81,3.81,0,0,1,.88,2.62V73H108a3.18,3.18,0,0,0,.71,2.15,2.47,2.47,0,0,0,1.91.73,6.47,6.47,0,0,0,2.56-.54v1.08a6.41,6.41,0,0,1-1.22.4A6.82,6.82,0,0,1,110.56,77Zm-.33-7.3a2,2,0,0,0-1.54.63A2.9,2.9,0,0,0,108,72h4.2a2.67,2.67,0,0,0-.51-1.76A1.8,1.8,0,0,0,110.23,69.66Z"/><path class="cls-2" d="M121.08,76.81V71.62a2.1,2.1,0,0,0-.45-1.46,1.82,1.82,0,0,0-1.4-.48,2.31,2.31,0,0,0-1.85.68,3.44,3.44,0,0,0-.59,2.25v4.21h-1.22v-8h1l.2,1.1h.06a2.48,2.48,0,0,1,1-.92,3.4,3.4,0,0,1,1.5-.33,3.05,3.05,0,0,1,2.18.7,3,3,0,0,1,.73,2.24v5.24Z"/><path class="cls-2" d="M135.36,76.81H128v-1l5.68-8.61h-5.51V66.1h7v1l-5.68,8.61h5.84Z"/><path class="cls-2" d="M138.39,68.78V74a2.1,2.1,0,0,0,.45,1.46,1.82,1.82,0,0,0,1.4.48,2.28,2.28,0,0,0,1.84-.69,3.47,3.47,0,0,0,.58-2.25V68.78h1.22v8h-1l-.18-1.08h-.07a2.42,2.42,0,0,1-1,.91,3.48,3.48,0,0,1-1.51.31,3.07,3.07,0,0,1-2.19-.7,3,3,0,0,1-.73-2.23V68.78Z"/><path class="cls-2" d="M149.05,76a4,4,0,0,0,.62,0l.48-.1v.93a2.23,2.23,0,0,1-.58.16,4.38,4.38,0,0,1-.69.06q-2.33,0-2.33-2.45V69.73H145.4v-.59l1.15-.51.51-1.71h.7v1.86h2.33v.94h-2.33v4.72a1.63,1.63,0,0,0,.34,1.11A1.2,1.2,0,0,0,149.05,76Z"/><path class="cls-2" d="M156.69,76.81l-.24-1.14h-.06a3.37,3.37,0,0,1-1.2,1,3.65,3.65,0,0,1-1.49.27,2.68,2.68,0,0,1-1.87-.62,2.24,2.24,0,0,1-.68-1.75q0-2.43,3.89-2.55l1.36,0v-.5a2,2,0,0,0-.41-1.4,1.67,1.67,0,0,0-1.3-.45,5.3,5.3,0,0,0-2.27.62l-.37-.93a5.71,5.71,0,0,1,1.3-.51,5.63,5.63,0,0,1,1.42-.18,3.06,3.06,0,0,1,2.13.64,2.66,2.66,0,0,1,.69,2v5.48ZM153.94,76a2.47,2.47,0,0,0,1.78-.62,2.3,2.3,0,0,0,.65-1.74v-.73l-1.22.05a4.43,4.43,0,0,0-2.09.45,1.36,1.36,0,0,0-.64,1.24,1.25,1.25,0,0,0,.4,1A1.66,1.66,0,0,0,153.94,76Z"/><path class="cls-2" d="M162.69,76a4,4,0,0,0,.62,0l.48-.1v.93a2.24,2.24,0,0,1-.58.16,4.4,4.4,0,0,1-.69.06q-2.33,0-2.33-2.45V69.73H159v-.59l1.15-.51.51-1.71h.7v1.86h2.33v.94H161.4v4.72a1.63,1.63,0,0,0,.34,1.11A1.2,1.2,0,0,0,162.69,76Z"/><path class="cls-2" d="M168.78,77A3.69,3.69,0,0,1,166,75.87a4.2,4.2,0,0,1-1-3,4.66,4.66,0,0,1,1-3.08,3.18,3.18,0,0,1,2.57-1.14,3,3,0,0,1,2.39,1,3.81,3.81,0,0,1,.88,2.62V73H166.2a3.18,3.18,0,0,0,.71,2.15,2.47,2.47,0,0,0,1.91.73,6.46,6.46,0,0,0,2.56-.54v1.08a6.4,6.4,0,0,1-1.22.4A6.82,6.82,0,0,1,168.78,77Zm-.33-7.3a2,2,0,0,0-1.54.63,2.91,2.91,0,0,0-.68,1.74h4.2a2.67,2.67,0,0,0-.51-1.76A1.8,1.8,0,0,0,168.45,69.66Z"/><path class="cls-2" d="M179.3,76.81V71.62a2.1,2.1,0,0,0-.45-1.46,1.82,1.82,0,0,0-1.4-.48,2.31,2.31,0,0,0-1.85.68A3.44,3.44,0,0,0,175,72.6v4.21h-1.21v-8h1l.2,1.1h.06a2.49,2.49,0,0,1,1-.92,3.4,3.4,0,0,1,1.5-.33,3.05,3.05,0,0,1,2.18.7,3,3,0,0,1,.73,2.24v5.24Z"/><path class="cls-2" d="M188.11,72.7a14.32,14.32,0,0,1,1-1.17l2.59-2.75h1.44l-3.25,3.42,3.48,4.61h-1.47L189,73l-.92.79v3h-1.2V65.41h1.2v6q0,.4-.06,1.25Z"/><path class="cls-2" d="M198.45,68.64a4.76,4.76,0,0,1,1,.09l-.17,1.13a4.14,4.14,0,0,0-.88-.11,2.14,2.14,0,0,0-1.67.79,2.88,2.88,0,0,0-.69,2v4.31h-1.21v-8h1l.14,1.49H196a3.52,3.52,0,0,1,1.08-1.21A2.42,2.42,0,0,1,198.45,68.64Z"/><path class="cls-2" d="M204.3,77a3.69,3.69,0,0,1-2.81-1.08,4.19,4.19,0,0,1-1-3,4.66,4.66,0,0,1,1-3.08A3.18,3.18,0,0,1,204,68.64a3,3,0,0,1,2.39,1,3.81,3.81,0,0,1,.88,2.62V73h-5.53a3.17,3.17,0,0,0,.71,2.15,2.47,2.47,0,0,0,1.91.73,6.47,6.47,0,0,0,2.56-.54v1.08a6.4,6.4,0,0,1-1.22.4A6.83,6.83,0,0,1,204.3,77Zm-.33-7.3a2,2,0,0,0-1.54.63,2.9,2.9,0,0,0-.68,1.74h4.2a2.67,2.67,0,0,0-.51-1.76A1.8,1.8,0,0,0,204,69.66Z"/><path class="cls-2" d="M214.26,76.81,214,75.67H214a3.37,3.37,0,0,1-1.2,1,3.65,3.65,0,0,1-1.49.27,2.68,2.68,0,0,1-1.87-.62,2.24,2.24,0,0,1-.68-1.75q0-2.43,3.89-2.55L214,72v-.5a2,2,0,0,0-.41-1.4,1.67,1.67,0,0,0-1.3-.45,5.3,5.3,0,0,0-2.27.62l-.37-.93a5.73,5.73,0,0,1,1.3-.51,5.63,5.63,0,0,1,1.42-.18,3.06,3.06,0,0,1,2.13.64,2.66,2.66,0,0,1,.69,2v5.48ZM211.51,76a2.47,2.47,0,0,0,1.78-.62,2.31,2.31,0,0,0,.65-1.74v-.73l-1.22.05a4.43,4.43,0,0,0-2.09.45,1.36,1.36,0,0,0-.64,1.24,1.25,1.25,0,0,0,.4,1A1.66,1.66,0,0,0,211.51,76Z"/><path class="cls-2" d="M220.26,76a4,4,0,0,0,.62,0l.48-.1v.93a2.24,2.24,0,0,1-.58.16,4.4,4.4,0,0,1-.69.06q-2.33,0-2.33-2.45V69.73H216.6v-.59l1.15-.51.51-1.71h.7v1.86h2.33v.94H219v4.72a1.63,1.63,0,0,0,.34,1.11A1.2,1.2,0,0,0,220.26,76Z"/><path class="cls-2" d="M222.86,66.61a.81.81,0,0,1,.21-.61.76.76,0,0,1,1,0,.8.8,0,0,1,.21.61.81.81,0,0,1-.21.61.71.71,0,0,1-.51.2.7.7,0,0,1-.51-.2A.82.82,0,0,1,222.86,66.61Zm1.32,10.2H223v-8h1.22Z"/><path class="cls-2" d="M228.51,76.81l-3-8h1.3l1.73,4.76a22.53,22.53,0,0,1,.69,2.17h.06a16.45,16.45,0,0,1,.51-1.61q.43-1.22,1.92-5.32H233l-3,8Z"/><path class="cls-2" d="M244.72,76.81l-1.47-4.71q-.14-.43-.52-2h-.06q-.29,1.28-.51,2l-1.52,4.69h-1.41l-2.19-8h1.28l1.18,4.61a18.76,18.76,0,0,1,.46,2.13H240q.08-.42.26-1.08t.31-1.05l1.47-4.61h1.32l1.44,4.61a15.55,15.55,0,0,1,.56,2.12h.06a7.62,7.62,0,0,1,.16-.81q.13-.55,1.53-5.91h1.26l-2.22,8Z"/><path class="cls-2" d="M253.22,77a3.69,3.69,0,0,1-2.81-1.08,4.19,4.19,0,0,1-1-3,4.66,4.66,0,0,1,1-3.08,3.18,3.18,0,0,1,2.57-1.14,3,3,0,0,1,2.39,1,3.81,3.81,0,0,1,.88,2.62V73h-5.53a3.17,3.17,0,0,0,.71,2.15,2.47,2.47,0,0,0,1.91.73,6.47,6.47,0,0,0,2.56-.54v1.08a6.4,6.4,0,0,1-1.22.4A6.83,6.83,0,0,1,253.22,77Zm-.33-7.3a2,2,0,0,0-1.54.63,2.9,2.9,0,0,0-.68,1.74h4.2a2.67,2.67,0,0,0-.51-1.76A1.8,1.8,0,0,0,252.89,69.66Z"/><path class="cls-2" d="M261.91,68.64a4.76,4.76,0,0,1,1,.09l-.17,1.13a4.14,4.14,0,0,0-.88-.11,2.14,2.14,0,0,0-1.67.79,2.88,2.88,0,0,0-.69,2v4.31h-1.22v-8h1l.14,1.49h.06a3.53,3.53,0,0,1,1.08-1.21A2.42,2.42,0,0,1,261.91,68.64Z"/><path class="cls-2" d="M269.83,75.73h-.07A2.85,2.85,0,0,1,267.25,77a3,3,0,0,1-2.45-1.08,4.74,4.74,0,0,1-.87-3.06,4.82,4.82,0,0,1,.88-3.08,3,3,0,0,1,2.45-1.1,2.92,2.92,0,0,1,2.51,1.19h.09l-.05-.58,0-.56V65.41H271v11.4h-1Zm-2.43.21a2.21,2.21,0,0,0,1.81-.68,3.43,3.43,0,0,0,.56-2.19v-.26a4,4,0,0,0-.57-2.44,2.15,2.15,0,0,0-1.81-.73,1.86,1.86,0,0,0-1.64.83,4.13,4.13,0,0,0-.57,2.35,4,4,0,0,0,.56,2.32A1.91,1.91,0,0,0,267.4,75.94Z"/><path class="cls-2" d="M277,77a3.69,3.69,0,0,1-2.81-1.08,4.19,4.19,0,0,1-1-3,4.66,4.66,0,0,1,1-3.08,3.18,3.18,0,0,1,2.57-1.14,3,3,0,0,1,2.39,1,3.81,3.81,0,0,1,.88,2.62V73h-5.53a3.17,3.17,0,0,0,.71,2.15,2.47,2.47,0,0,0,1.91.73,6.47,6.47,0,0,0,2.56-.54v1.08a6.4,6.4,0,0,1-1.22.4A6.83,6.83,0,0,1,277,77Zm-.33-7.3a2,2,0,0,0-1.54.63A2.9,2.9,0,0,0,274.4,72h4.2a2.67,2.67,0,0,0-.51-1.76A1.8,1.8,0,0,0,276.62,69.66Z"/><path class="cls-2" d="M287.47,76.81V71.62a2.09,2.09,0,0,0-.45-1.46,1.82,1.82,0,0,0-1.4-.48,2.31,2.31,0,0,0-1.85.68,3.44,3.44,0,0,0-.59,2.25v4.21H282v-8h1l.2,1.1h.06a2.48,2.48,0,0,1,1-.92,3.41,3.41,0,0,1,1.5-.33,3.05,3.05,0,0,1,2.18.7,3,3,0,0,1,.73,2.24v5.24Z"/><path class="cls-2" d="M116.48,37.38q1.1-8.79,1.1-11.47v-.57a1,1,0,0,1,.24-.62.7.7,0,0,1,.55-.3q1.22,0,1.22.88v.45a43.23,43.23,0,0,0,1.19,8.41q.54,2.46.76,3.84.16-1.66.59-4.79A84.47,84.47,0,0,0,123,22.68a1.65,1.65,0,0,1,.22-1,.83.83,0,0,1,.72-.3,1.2,1.2,0,0,1,.78.23.74.74,0,0,1,.29.6.94.94,0,0,1-.31.67,71.39,71.39,0,0,0-.8,7.34q-.35,4.88-.67,6.82t-.42,2.67a29.26,29.26,0,0,0-.38,4.35,1.19,1.19,0,0,1-.23.75.76.76,0,0,1-.63.29.77.77,0,0,1-.67-.48,4.35,4.35,0,0,1-.41-1.28q-.15-.8-.23-1.52t-.13-1.51q-.05-.78-.16-1.64t-.7-3.72q-.59-2.86-.67-3.33a107.22,107.22,0,0,0-1.1,12.67.78.78,0,0,1-.27.58.85.85,0,0,1-.59.26q-1.1,0-1.1-2.29,0-1.41-1.24-10.28t-1.57-9.7a1.16,1.16,0,0,1,1-.72q.86,0,1.25,2.26a19.82,19.82,0,0,1,.22,2.64q0,1.58.09,2.17t.19,1.77q.14,1.19.27,2Q116.13,35,116.48,37.38Z"/><path class="cls-2" d="M134.44,31.37l0,.51a23.39,23.39,0,0,0-.29,3.63q-.06,2.57-.26,4.15a19.87,19.87,0,0,1-.51,2.77,4.79,4.79,0,0,1-1,2,2.1,2.1,0,0,1-1.58.79,2.88,2.88,0,0,1-1.43-.31,2.45,2.45,0,0,1-.91-.91,6.89,6.89,0,0,1-.59-1.27,8.1,8.1,0,0,1-.35-1.57,25.53,25.53,0,0,1-.21-3.31l.16-7.91a20.89,20.89,0,0,0-.37-4.29V24.9a1.35,1.35,0,0,1,1.14.56,2,2,0,0,1,.42,1.25V41.21a4,4,0,0,0,.58,2.12,1.87,1.87,0,0,0,1.71,1q1.27,0,1.7-7.41v-.32q.38-6.77.38-11v-.5a.76.76,0,0,1,.16-.53.83.83,0,0,1,.62-.18.85.85,0,0,1,.67.25,1,1,0,0,1,.26.51,5.16,5.16,0,0,1,0,.7l-.21,3Z"/><path class="cls-2" d="M139.24,32.91l.18,7.76v3.4a1.07,1.07,0,0,1-.21.67.68.68,0,0,1-.57.27q-1,0-1-1.83L137.6,32.6l.18-5.6q0-2,1.1-2,.66,0,1,1,.41,1.93,1.43,5.56t1.4,5.52q.28.92.72,2.73t.69,2.72q.12-6.5.12-15.76l0-.81a1.21,1.21,0,0,1,.15-.65.57.57,0,0,1,.52-.24,1,1,0,0,1,.6.18,1.17,1.17,0,0,1,.47,1q0,4.12-.23,10.58a45.84,45.84,0,0,1-.7,8.07l-.25.08-.28.08q-.83.19-1.05-.07a1.6,1.6,0,0,1-.31-.7q-.1-.44-.22-.86t-.93-4q-2.15-9.45-2.65-11Z"/><path class="cls-2" d="M155.49,32.91l-.06,1.51v1.64a19.63,19.63,0,0,1-.26,4,14,14,0,0,1-.53,1.71A5.67,5.67,0,0,1,154,43a6.88,6.88,0,0,1-2.23,1.93H149.7q-.76,0-.76-3.93l.09-9.45q0-2.62-.1-4.92a1,1,0,0,1-.25-.7.92.92,0,0,1,.34-.7,1.18,1.18,0,0,1,.81-.3,1,1,0,0,1,.81.53,3.38,3.38,0,0,0,.65.16,2.42,2.42,0,0,1,.64.18,5.49,5.49,0,0,1,2.62,2.75A10,10,0,0,1,155.49,32.91Zm-4.91-3.47.34,13.24v.72h.54a10.13,10.13,0,0,0,2-3.49,15.67,15.67,0,0,0,.42-4.13q0-9.05-3.11-9.46A17.8,17.8,0,0,0,150.58,29.44Z"/><path class="cls-2" d="M161.11,43.62l1.19-.07q1.14,0,1.14.73a.69.69,0,0,1-.4.66,1.91,1.91,0,0,1-.89.21h-2.83a.9.9,0,0,1-.65-.26,1,1,0,0,1-.29-.67,5.86,5.86,0,0,1,.06-1,8,8,0,0,0,.08-1l-.15-3.84.21-8.76-.16-2.53q0-2.12,1.26-2.12a1.11,1.11,0,0,1,.66.22l.56.05q.45,0,.78.1t.73.16q.85.23.85.81t-.88.94a11.42,11.42,0,0,0-2.27-.57q0,.64,0,1.29L160,32.24s0,.18.09.47l1.07,0q1.45,0,1.45.82a1.25,1.25,0,0,1-.26.78.86.86,0,0,1-.73.34,1.33,1.33,0,0,1-.82-.26h-.76q.09,1.14.09,2.17L160,41.93Q160,43.62,161.11,43.62Z"/><path class="cls-2" d="M167.38,35.87a6.51,6.51,0,0,0-.21,1.55q0,.71.18,3t.18,3a1.8,1.8,0,0,1-.24,1,.67.67,0,0,1-.55.35q-.44,0-.56-.6,0-1.11,0-2.73T166,34.37q-.26-5.49-.26-8.2,0-1.42,1-1.42a4.2,4.2,0,0,1,2.64.82,2.78,2.78,0,0,1,1.07,2.34,12.33,12.33,0,0,1-.32,3.19A15.77,15.77,0,0,1,168.88,34q.16.72.57,2.87a25.6,25.6,0,0,0,1.95,6.72,2.18,2.18,0,0,1,.31.92.86.86,0,0,1-.18.56.6.6,0,0,1-.49.23q-1,0-1.8-3.27-.35-1.42-.63-2.87a42.89,42.89,0,0,0-1-4.47A5.79,5.79,0,0,1,167.38,35.87Zm0-10-.1.42q0,1.23.06,3.55t.06,3.38a3,3,0,0,0,1.14-1.91,9.62,9.62,0,0,0,.43-2.37,11.88,11.88,0,0,0,0-1.21,4.66,4.66,0,0,0-.19-.86A1.3,1.3,0,0,0,167.34,25.86Z"/><path class="cls-2" d="M176.68,42l.06-1q-.12-.38-.48-6.77t-.4-7.8a5.18,5.18,0,0,1-2.14-.31q-.41-.27-.41-.56a.54.54,0,0,1,.32-.48,1.27,1.27,0,0,1,.63-.18l4.07.28h.48q.94,0,.94.72a.7.7,0,0,1-.31.59,1.13,1.13,0,0,1-.69.23l-1.38-.21-.06.31q0,2.84.5,8.51t.5,8.53a.85.85,0,0,1-.27.63.89.89,0,0,1-.64.26h-.67Z"/><path class="cls-2" d="M183.82,21.86a.93.93,0,0,1-.37.74,1.25,1.25,0,0,1-.81.31.8.8,0,0,1-.66-.28,1.09,1.09,0,0,1-.23-.72,1.07,1.07,0,0,1,.29-.75,1,1,0,0,1,.73-.31,1,1,0,0,1,.74.29A1,1,0,0,1,183.82,21.86Zm5.38,9.51,0,.51a23.39,23.39,0,0,0-.29,3.63q-.06,2.57-.26,4.15a19.87,19.87,0,0,1-.51,2.77,4.79,4.79,0,0,1-1,2,2.1,2.1,0,0,1-1.58.79,2.88,2.88,0,0,1-1.43-.31,2.45,2.45,0,0,1-.91-.91,6.89,6.89,0,0,1-.59-1.27,8.1,8.1,0,0,1-.35-1.57,25.53,25.53,0,0,1-.21-3.31l.16-7.91a20.89,20.89,0,0,0-.37-4.29V24.9a1.35,1.35,0,0,1,1.14.56,2,2,0,0,1,.42,1.25V41.21a4,4,0,0,0,.58,2.12,1.87,1.87,0,0,0,1.71,1q1.27,0,1.7-7.41v-.32q.38-6.77.38-11v-.5a.76.76,0,0,1,.16-.53.83.83,0,0,1,.62-.18.85.85,0,0,1,.67.25,1,1,0,0,1,.26.51,5.16,5.16,0,0,1,0,.7l-.21,3Zm-.32-8.47a.9.9,0,0,1-.7-.31,1,1,0,0,1-.28-.72,1.06,1.06,0,0,1,.32-.75,1,1,0,0,1,.73-.34.93.93,0,0,1,.71.33,1.1,1.1,0,0,1,.3.76.92.92,0,0,1-.34.73A1.12,1.12,0,0,1,188.88,22.9Z"/><path class="cls-2" d="M195,42l.06-1q-.12-.38-.48-6.77t-.4-7.8A5.18,5.18,0,0,1,192,26q-.41-.27-.41-.56a.54.54,0,0,1,.32-.48,1.27,1.27,0,0,1,.63-.18l4.07.28h.48q.94,0,.94.72a.7.7,0,0,1-.31.59,1.13,1.13,0,0,1-.69.23l-1.38-.21-.06.31q0,2.84.5,8.51t.5,8.53a.85.85,0,0,1-.27.63.89.89,0,0,1-.64.26h-.67Z"/><path class="cls-2" d="M203.24,43.62l1.19-.07q1.14,0,1.14.73a.69.69,0,0,1-.4.66,1.91,1.91,0,0,1-.89.21h-2.83a.9.9,0,0,1-.65-.26,1,1,0,0,1-.29-.67,5.86,5.86,0,0,1,.06-1,8,8,0,0,0,.08-1l-.15-3.84.21-8.76-.16-2.53q0-2.12,1.26-2.12a1.11,1.11,0,0,1,.66.22l.56.05q.45,0,.78.1t.73.16q.85.23.85.81t-.88.94a11.42,11.42,0,0,0-2.27-.57q0,.64,0,1.29l-.13,4.31s0,.18.09.47l1.07,0q1.45,0,1.45.82a1.25,1.25,0,0,1-.26.78.86.86,0,0,1-.73.34,1.33,1.33,0,0,1-.82-.26h-.76q.09,1.14.09,2.17l-.13,5.43Q202.16,43.62,203.24,43.62Z"/><rect class="cls-1" y="400" width="320.5" height="118"/><polygon class="cls-3" points="184.42 503.17 161.44 493.82 139.44 505.26 142.71 483.04 123.79 468.29 148.78 463.91 159.1 443.36 171.28 462.87 196.57 464.91 179.1 481.35 184.42 503.17"/><path class="cls-2" d="M108,426.12a2.63,2.63,0,0,1-1,2.21,4.45,4.45,0,0,1-2.78.79,7,7,0,0,1-2.93-.49v-1.2a7.71,7.71,0,0,0,1.44.44,7.55,7.55,0,0,0,1.54.16,3.11,3.11,0,0,0,1.88-.47,1.55,1.55,0,0,0,.63-1.32,1.69,1.69,0,0,0-.22-.91,2.07,2.07,0,0,0-.75-.66,10.44,10.44,0,0,0-1.59-.68,5.07,5.07,0,0,1-2.13-1.27,2.79,2.79,0,0,1-.64-1.91,2.38,2.38,0,0,1,.93-2,3.87,3.87,0,0,1,2.46-.73,7.25,7.25,0,0,1,2.94.59l-.39,1.08a6.64,6.64,0,0,0-2.58-.56,2.5,2.5,0,0,0-1.55.42,1.4,1.4,0,0,0-.56,1.18,1.81,1.81,0,0,0,.21.91,1.93,1.93,0,0,0,.69.65,8.49,8.49,0,0,0,1.49.66,5.92,5.92,0,0,1,2.32,1.29A2.54,2.54,0,0,1,108,426.12Z"/><path class="cls-2" d="M113.23,429.12a3.43,3.43,0,0,1-2.7-1.07,4.41,4.41,0,0,1-1-3,4.55,4.55,0,0,1,1-3.11,3.49,3.49,0,0,1,2.77-1.1,5.49,5.49,0,0,1,1.16.13,3.81,3.81,0,0,1,.91.29l-.37,1a5.77,5.77,0,0,0-.88-.27,4,4,0,0,0-.84-.11q-2.45,0-2.45,3.12a3.71,3.71,0,0,0,.6,2.27,2.08,2.08,0,0,0,1.77.79,5.41,5.41,0,0,0,2.06-.43v1.08A4.37,4.37,0,0,1,113.23,429.12Z"/><path class="cls-2" d="M122.65,429v-5.19a2.1,2.1,0,0,0-.45-1.46,1.82,1.82,0,0,0-1.4-.48,2.3,2.3,0,0,0-1.85.69,3.49,3.49,0,0,0-.58,2.26V429h-1.22v-11.4h1.22V421a7.51,7.51,0,0,1-.06,1h.07a2.48,2.48,0,0,1,1-.91,3.33,3.33,0,0,1,1.51-.33,3.1,3.1,0,0,1,2.21.7,3,3,0,0,1,.74,2.22V429Z"/><path class="cls-2" d="M132.92,429l-1.47-4.71q-.14-.43-.52-2h-.06q-.29,1.28-.51,2l-1.52,4.7h-1.41l-2.19-8h1.27l1.18,4.61a18.76,18.76,0,0,1,.46,2.13h.06q.08-.42.26-1.08t.31-1.05l1.47-4.61h1.32l1.44,4.61a15.55,15.55,0,0,1,.56,2.12h.06a7.7,7.7,0,0,1,.16-.81q.13-.55,1.53-5.91h1.26l-2.22,8Z"/><path class="cls-2" d="M137.93,418.77a.81.81,0,0,1,.21-.61.76.76,0,0,1,1,0,.79.79,0,0,1,.21.61.81.81,0,0,1-.21.61.71.71,0,0,1-.51.2.7.7,0,0,1-.51-.2A.82.82,0,0,1,137.93,418.77Zm1.32,10.2H138v-8h1.22Z"/><path class="cls-2" d="M145.22,429.12a3.69,3.69,0,0,1-2.81-1.08,4.2,4.2,0,0,1-1-3,4.66,4.66,0,0,1,1-3.08,3.18,3.18,0,0,1,2.57-1.14,3,3,0,0,1,2.39,1,3.81,3.81,0,0,1,.88,2.62v.77h-5.53a3.18,3.18,0,0,0,.71,2.15,2.47,2.47,0,0,0,1.91.73,6.46,6.46,0,0,0,2.56-.54v1.08a6.4,6.4,0,0,1-1.22.4A6.81,6.81,0,0,1,145.22,429.12Zm-.33-7.3a2,2,0,0,0-1.54.63,2.9,2.9,0,0,0-.68,1.74h4.2a2.67,2.67,0,0,0-.51-1.76A1.8,1.8,0,0,0,144.89,421.82Z"/><path class="cls-2" d="M153.9,420.8a4.75,4.75,0,0,1,1,.09L154.7,422a4.15,4.15,0,0,0-.88-.11,2.14,2.14,0,0,0-1.67.79,2.88,2.88,0,0,0-.69,2V429h-1.22v-8h1l.14,1.49h.06a3.53,3.53,0,0,1,1.08-1.21A2.43,2.43,0,0,1,153.9,420.8Z"/><path class="cls-2" d="M156.26,418.77a.81.81,0,0,1,.21-.61.76.76,0,0,1,1,0,.8.8,0,0,1,.21.61.81.81,0,0,1-.21.61.71.71,0,0,1-.51.2.7.7,0,0,1-.51-.2A.82.82,0,0,1,156.26,418.77Zm1.32,10.2h-1.22v-8h1.22Z"/><path class="cls-2" d="M166.73,420.94v.77l-1.49.18a2.61,2.61,0,0,1,.53,1.6,2.37,2.37,0,0,1-.81,1.88,3.25,3.25,0,0,1-2.21.7,3.68,3.68,0,0,1-.67-.06,1.2,1.2,0,0,0-.78,1,.52.52,0,0,0,.27.49,2,2,0,0,0,.93.16h1.42a3.17,3.17,0,0,1,2,.55,1.9,1.9,0,0,1,.7,1.6,2.28,2.28,0,0,1-1.07,2,5.73,5.73,0,0,1-3.12.7A4.26,4.26,0,0,1,160,432a1.89,1.89,0,0,1-.85-1.66,1.86,1.86,0,0,1,.47-1.27,2.39,2.39,0,0,1,1.32-.73,1.26,1.26,0,0,1-.52-.43,1.14,1.14,0,0,1-.21-.68,1.29,1.29,0,0,1,.23-.77,2.44,2.44,0,0,1,.74-.64,2.16,2.16,0,0,1-1-.87,2.56,2.56,0,0,1-.39-1.41,2.6,2.6,0,0,1,.79-2,3.23,3.23,0,0,1,2.24-.71,4.08,4.08,0,0,1,1.14.15Zm-6.4,9.38a1.09,1.09,0,0,0,.55,1,3,3,0,0,0,1.58.34,4.4,4.4,0,0,0,2.27-.46,1.4,1.4,0,0,0,.74-1.24,1,1,0,0,0-.4-.91,3.13,3.13,0,0,0-1.52-.25h-1.46a1.92,1.92,0,0,0-1.29.4A1.41,1.41,0,0,0,160.33,430.32Zm.66-6.8a1.63,1.63,0,0,0,.48,1.28,1.9,1.9,0,0,0,1.33.43,1.55,1.55,0,0,0,1.78-1.73,1.6,1.6,0,0,0-1.8-1.81,1.78,1.78,0,0,0-1.32.46A1.86,1.86,0,0,0,161,423.51Z"/><path class="cls-2" d="M169.58,424.86a14.61,14.61,0,0,1,1-1.17l2.59-2.75h1.44l-3.25,3.42L174.8,429h-1.47l-2.83-3.79-.92.79v3h-1.2v-11.4h1.2v6q0,.4-.06,1.24Z"/><path class="cls-2" d="M179.64,429.12a3.69,3.69,0,0,1-2.81-1.08,4.2,4.2,0,0,1-1-3,4.66,4.66,0,0,1,1-3.08,3.18,3.18,0,0,1,2.57-1.14,3,3,0,0,1,2.39,1,3.81,3.81,0,0,1,.88,2.62v.77h-5.53a3.18,3.18,0,0,0,.71,2.15,2.47,2.47,0,0,0,1.91.73,6.46,6.46,0,0,0,2.56-.54v1.08a6.4,6.4,0,0,1-1.22.4A6.82,6.82,0,0,1,179.64,429.12Zm-.33-7.3a2,2,0,0,0-1.54.63,2.91,2.91,0,0,0-.68,1.74h4.2a2.67,2.67,0,0,0-.51-1.76A1.8,1.8,0,0,0,179.31,421.82Z"/><path class="cls-2" d="M184.56,418.77a.81.81,0,0,1,.21-.61.76.76,0,0,1,1,0,.8.8,0,0,1,.21.61.81.81,0,0,1-.21.61.71.71,0,0,1-.51.2.7.7,0,0,1-.51-.2A.82.82,0,0,1,184.56,418.77Zm1.32,10.2h-1.22v-8h1.22Z"/><path class="cls-2" d="M191.05,428.11a4,4,0,0,0,.62,0,3.92,3.92,0,0,0,.48-.1v.93a2.21,2.21,0,0,1-.58.16,4.33,4.33,0,0,1-.69.06q-2.33,0-2.33-2.45v-4.78H187.4v-.59l1.15-.51.51-1.71h.7v1.86h2.33v.95h-2.33v4.72a1.62,1.62,0,0,0,.34,1.11A1.2,1.2,0,0,0,191.05,428.11Z"/><path class="cls-2" d="M198.93,426.78a2,2,0,0,1-.83,1.73,3.93,3.93,0,0,1-2.34.61,5.08,5.08,0,0,1-2.49-.51v-1.13a6,6,0,0,0,1.24.46,5.18,5.18,0,0,0,1.28.17,2.9,2.9,0,0,0,1.46-.3,1,1,0,0,0,.11-1.73,6.41,6.41,0,0,0-1.59-.79,8.68,8.68,0,0,1-1.59-.73,2.19,2.19,0,0,1-.7-.71,1.85,1.85,0,0,1-.23-.94,1.8,1.8,0,0,1,.8-1.55,3.73,3.73,0,0,1,2.19-.57,6.41,6.41,0,0,1,2.53.53l-.43,1a5.84,5.84,0,0,0-2.19-.5,2.52,2.52,0,0,0-1.3.27.84.84,0,0,0-.44.75.91.91,0,0,0,.17.55,1.62,1.62,0,0,0,.53.43,11.84,11.84,0,0,0,1.41.59,5.25,5.25,0,0,1,1.93,1A1.85,1.85,0,0,1,198.93,426.78Z"/><path class="cls-2" d="M207.48,420.94v.77l-1.49.18a2.61,2.61,0,0,1,.53,1.6,2.37,2.37,0,0,1-.81,1.88,3.25,3.25,0,0,1-2.21.7,3.68,3.68,0,0,1-.67-.06,1.2,1.2,0,0,0-.78,1,.52.52,0,0,0,.27.49,2,2,0,0,0,.93.16h1.42a3.17,3.17,0,0,1,2,.55,1.9,1.9,0,0,1,.7,1.6,2.28,2.28,0,0,1-1.07,2,5.73,5.73,0,0,1-3.12.7,4.26,4.26,0,0,1-2.43-.59,1.89,1.89,0,0,1-.85-1.66,1.86,1.86,0,0,1,.47-1.27,2.39,2.39,0,0,1,1.32-.73,1.26,1.26,0,0,1-.52-.43,1.14,1.14,0,0,1-.21-.68,1.29,1.29,0,0,1,.23-.77,2.44,2.44,0,0,1,.74-.64,2.16,2.16,0,0,1-1-.87,2.56,2.56,0,0,1-.39-1.41,2.6,2.6,0,0,1,.79-2,3.23,3.23,0,0,1,2.24-.71,4.08,4.08,0,0,1,1.14.15Zm-6.4,9.38a1.09,1.09,0,0,0,.55,1,3,3,0,0,0,1.58.34,4.4,4.4,0,0,0,2.27-.46,1.4,1.4,0,0,0,.74-1.24,1,1,0,0,0-.4-.91,3.13,3.13,0,0,0-1.52-.25h-1.46a1.92,1.92,0,0,0-1.29.4A1.41,1.41,0,0,0,201.08,430.32Zm.66-6.8a1.63,1.63,0,0,0,.48,1.28,1.9,1.9,0,0,0,1.33.43,1.55,1.55,0,0,0,1.78-1.73,1.6,1.6,0,0,0-1.8-1.81,1.78,1.78,0,0,0-1.32.46A1.86,1.86,0,0,0,201.74,423.51Z"/><path class="cls-2" d="M212.79,420.8a4.75,4.75,0,0,1,1,.09l-.17,1.13a4.15,4.15,0,0,0-.88-.11,2.14,2.14,0,0,0-1.67.79,2.88,2.88,0,0,0-.69,2V429h-1.22v-8h1l.14,1.49h.06a3.53,3.53,0,0,1,1.08-1.21A2.43,2.43,0,0,1,212.79,420.8Z"/><path class="cls-2" d="M220.19,429l-.24-1.14h-.06a3.38,3.38,0,0,1-1.2,1,3.64,3.64,0,0,1-1.49.27,2.68,2.68,0,0,1-1.87-.62,2.24,2.24,0,0,1-.68-1.75q0-2.43,3.89-2.55l1.36,0v-.5a2,2,0,0,0-.41-1.39,1.67,1.67,0,0,0-1.3-.45,5.3,5.3,0,0,0-2.27.62l-.37-.93a5.73,5.73,0,0,1,1.3-.51,5.67,5.67,0,0,1,1.42-.18,3.05,3.05,0,0,1,2.13.64,2.66,2.66,0,0,1,.69,2V429Zm-2.75-.86a2.47,2.47,0,0,0,1.78-.62,2.3,2.3,0,0,0,.65-1.74V425l-1.21.05a4.43,4.43,0,0,0-2.09.45,1.36,1.36,0,0,0-.64,1.24,1.25,1.25,0,0,0,.4,1A1.65,1.65,0,0,0,217.44,428.11Z"/><path class="cls-2" d="M229.06,427.9H229a2.86,2.86,0,0,1-2.52,1.22A3,3,0,0,1,224,428a4.74,4.74,0,0,1-.88-3.06,4.82,4.82,0,0,1,.88-3.08,3,3,0,0,1,2.45-1.1A2.92,2.92,0,0,1,229,422h.1l-.05-.58,0-.56v-3.27h1.21V429h-1Zm-2.43.21a2.22,2.22,0,0,0,1.81-.68,3.43,3.43,0,0,0,.56-2.19V425a4,4,0,0,0-.57-2.43,2.15,2.15,0,0,0-1.81-.73,1.86,1.86,0,0,0-1.64.83,4.13,4.13,0,0,0-.57,2.35,4,4,0,0,0,.56,2.32A1.91,1.91,0,0,0,226.63,428.1Z"/></svg>