<?xml version="1.0" encoding="utf-8"?>
<!-- Generator: Adobe Illustrator 20.1.0, SVG Export Plug-In . SVG Version: 6.00 Build 0)  -->
<svg version="1.1" id="Ebene_1" xmlns="http://www.w3.org/2000/svg" xmlns:xlink="http://www.w3.org/1999/xlink" x="0px" y="0px"
	 viewBox="0 0 80 80" style="enable-background:new 0 0 80 80;" xml:space="preserve">
<style type="text/css">
	.st0{fill:#FFFFFF;}
</style>
<g>
	<g>
		<path class="st0" d="M11.6,21.8h57.9c3.7,0,6.6-3,6.6-6.6c0-3.7-3-6.6-6.6-6.6H11.6c-3.6,0-6.6,3-6.6,6.6
			C5,18.9,7.9,21.8,11.6,21.8z M69.4,33.4H11.6c-3.7,0-6.6,3-6.6,6.6c0,3.7,3,6.6,6.6,6.6h57.9c3.7,0,6.6-3,6.6-6.6
			C76,36.3,73.1,33.4,69.4,33.4z M69.4,58.2H11.6c-3.7,0-6.6,3-6.6,6.6c0,3.7,3,6.6,6.6,6.6h57.9c3.7,0,6.6-3,6.6-6.6
			C76,61.1,73.1,58.2,69.4,58.2z"/>
	</g>
</g>
</svg>
